<?xml version="1.0" encoding="UTF-8" standalone="no"?>
<svg width="160.161mm" height="75.1417mm"
 viewBox="0 0 454 213"
 xmlns="http://www.w3.org/2000/svg" xmlns:xlink="http://www.w3.org/1999/xlink"  version="1.2" baseProfile="tiny">
<title>Qt SVG Document</title>
<desc>MATLAB, The MathWorks, Inc. Version 25.2.0.3123386 R2025b Update 3</desc>
<defs>
</defs>
<g fill="none" stroke="black" stroke-width="1" fill-rule="evenodd" stroke-linecap="square" stroke-linejoin="bevel" >

<g fill="#ffffff" fill-opacity="1" stroke="none" transform="matrix(0.75,0,0,0.75,0,0)"
font-family="Microsoft YaHei UI" font-size="9" font-weight="400" font-style="normal" 
>
<path vector-effect="none" fill-rule="evenodd" d="M0,0 L606,0 L606,285 L0,285 L0,0"/>
</g>

<g fill="#ffffff" fill-opacity="1" stroke="none" transform="matrix(7.5e-05,0,0,7.5e-05,0,0)"
font-family="Microsoft YaHei UI" font-size="9" font-weight="400" font-style="normal" 
>
<path vector-effect="none" fill-rule="evenodd" d="M620000,210000 L620000,2.42e+06 L4.32e+06,2.42e+06 L4.32e+06,210000 L620000,210000"/>
</g>

<g fill="#262626" fill-opacity="0.14902" stroke="#262626" stroke-opacity="0.14902" stroke-width="1.06667" stroke-linecap="butt" stroke-linejoin="round" transform="matrix(0.75,0,0,0.75,0,0)"
font-family="Microsoft YaHei UI" font-size="9" font-weight="400" font-style="normal" 
>
<polyline fill="none" vector-effect="none" points="62,21 62,242 " />
<polyline fill="none" vector-effect="none" points="136,21 136,242 " />
<polyline fill="none" vector-effect="none" points="210,21 210,242 " />
<polyline fill="none" vector-effect="none" points="284,21 284,242 " />
<polyline fill="none" vector-effect="none" points="358,21 358,242 " />
<polyline fill="none" vector-effect="none" points="432,21 432,242 " />
<polyline fill="none" vector-effect="none" points="62,242 432,242 " />
<polyline fill="none" vector-effect="none" points="62,211.517 432,211.517 " />
<polyline fill="none" vector-effect="none" points="62,181.034 432,181.034 " />
<polyline fill="none" vector-effect="none" points="62,150.552 432,150.552 " />
<polyline fill="none" vector-effect="none" points="62,120.069 432,120.069 " />
<polyline fill="none" vector-effect="none" points="62,89.5862 432,89.5862 " />
<polyline fill="none" vector-effect="none" points="62,59.1034 432,59.1034 " />
<polyline fill="none" vector-effect="none" points="62,28.6207 432,28.6207 " />
</g>

<g fill="#262626" fill-opacity="1" stroke="#262626" stroke-opacity="1" stroke-width="1" stroke-linecap="square" stroke-linejoin="bevel" transform="matrix(0.75,0,0,0.75,165.75,210.275)"
font-family="Arial" font-size="14" font-weight="400" font-style="normal" 
>
<text fill="#262626" fill-opacity="1" stroke="none" xml:space="preserve" x="0" y="0" font-family="Arial" font-size="14" font-weight="400" font-style="normal" 
 >Time (s)</text>
</g>

<g fill="#262626" fill-opacity="1" stroke="#262626" stroke-opacity="1" stroke-width="1.06667" stroke-linecap="square" stroke-linejoin="round" transform="matrix(0.75,0,0,0.75,0,0)"
font-family="Arial" font-size="14" font-weight="400" font-style="normal" 
>
<polyline fill="none" vector-effect="none" points="62,242 432,242 " />
<polyline fill="none" vector-effect="none" points="62,21 432,21 " />
<polyline fill="none" vector-effect="none" points="62,245.7 62,242 " />
<polyline fill="none" vector-effect="none" points="62,21 62,17.3 " />
<polyline fill="none" vector-effect="none" points="136,245.7 136,242 " />
<polyline fill="none" vector-effect="none" points="136,21 136,17.3 " />
<polyline fill="none" vector-effect="none" points="210,245.7 210,242 " />
<polyline fill="none" vector-effect="none" points="210,21 210,17.3 " />
<polyline fill="none" vector-effect="none" points="284,245.7 284,242 " />
<polyline fill="none" vector-effect="none" points="284,21 284,17.3 " />
<polyline fill="none" vector-effect="none" points="358,245.7 358,242 " />
<polyline fill="none" vector-effect="none" points="358,21 358,17.3 " />
<polyline fill="none" vector-effect="none" points="432,245.7 432,242 " />
<polyline fill="none" vector-effect="none" points="432,21 432,17.3 " />
</g>

<g fill="#262626" fill-opacity="1" stroke="#262626" stroke-opacity="1" stroke-width="1" stroke-linecap="square" stroke-linejoin="bevel" transform="matrix(0.75,0,0,0.75,43.875,197.275)"
font-family="Arial" font-size="13" font-weight="400" font-style="normal" 
>
<text fill="#262626" fill-opacity="1" stroke="none" xml:space="preserve" x="0" y="0" font-family="Arial" font-size="13" font-weight="400" font-style="normal" 
 >0</text>
</g>

<g fill="#262626" fill-opacity="1" stroke="#262626" stroke-opacity="1" stroke-width="1" stroke-linecap="square" stroke-linejoin="bevel" transform="matrix(0.75,0,0,0.75,99.375,197.275)"
font-family="Arial" font-size="13" font-weight="400" font-style="normal" 
>
<text fill="#262626" fill-opacity="1" stroke="none" xml:space="preserve" x="0" y="0" font-family="Arial" font-size="13" font-weight="400" font-style="normal" 
 >2</text>
</g>

<g fill="#262626" fill-opacity="1" stroke="#262626" stroke-opacity="1" stroke-width="1" stroke-linecap="square" stroke-linejoin="bevel" transform="matrix(0.75,0,0,0.75,154.875,197.275)"
font-family="Arial" font-size="13" font-weight="400" font-style="normal" 
>
<text fill="#262626" fill-opacity="1" stroke="none" xml:space="preserve" x="0" y="0" font-family="Arial" font-size="13" font-weight="400" font-style="normal" 
 >4</text>
</g>

<g fill="#262626" fill-opacity="1" stroke="#262626" stroke-opacity="1" stroke-width="1" stroke-linecap="square" stroke-linejoin="bevel" transform="matrix(0.75,0,0,0.75,210.375,197.275)"
font-family="Arial" font-size="13" font-weight="400" font-style="normal" 
>
<text fill="#262626" fill-opacity="1" stroke="none" xml:space="preserve" x="0" y="0" font-family="Arial" font-size="13" font-weight="400" font-style="normal" 
 >6</text>
</g>

<g fill="#262626" fill-opacity="1" stroke="#262626" stroke-opacity="1" stroke-width="1" stroke-linecap="square" stroke-linejoin="bevel" transform="matrix(0.75,0,0,0.75,265.875,197.275)"
font-family="Arial" font-size="13" font-weight="400" font-style="normal" 
>
<text fill="#262626" fill-opacity="1" stroke="none" xml:space="preserve" x="0" y="0" font-family="Arial" font-size="13" font-weight="400" font-style="normal" 
 >8</text>
</g>

<g fill="#262626" fill-opacity="1" stroke="#262626" stroke-opacity="1" stroke-width="1" stroke-linecap="square" stroke-linejoin="bevel" transform="matrix(0.75,0,0,0.75,318.75,197.275)"
font-family="Arial" font-size="13" font-weight="400" font-style="normal" 
>
<text fill="#262626" fill-opacity="1" stroke="none" xml:space="preserve" x="0" y="0" font-family="Arial" font-size="13" font-weight="400" font-style="normal" 
 >10</text>
</g>

<g fill="#262626" fill-opacity="1" stroke="#262626" stroke-opacity="1" stroke-width="1" stroke-linecap="square" stroke-linejoin="bevel" transform="matrix(0,-0.75,0.75,0,20.225,149.25)"
font-family="Arial" font-size="14" font-weight="400" font-style="normal" 
>
<text fill="#262626" fill-opacity="1" stroke="none" xml:space="preserve" x="0" y="0" font-family="Arial" font-size="14" font-weight="400" font-style="normal" 
 >Normalized response</text>
</g>

<g fill="#262626" fill-opacity="1" stroke="#262626" stroke-opacity="1" stroke-width="1.06667" stroke-linecap="square" stroke-linejoin="round" transform="matrix(0.75,0,0,0.75,0,0)"
font-family="Arial" font-size="14" font-weight="400" font-style="normal" 
>
<polyline fill="none" vector-effect="none" points="62,242 62,21 " />
<polyline fill="none" vector-effect="none" points="432,242 432,21 " />
<polyline fill="none" vector-effect="none" points="58.3,242 62,242 " />
<polyline fill="none" vector-effect="none" points="432,242 435.7,242 " />
<polyline fill="none" vector-effect="none" points="58.3,211.517 62,211.517 " />
<polyline fill="none" vector-effect="none" points="432,211.517 435.7,211.517 " />
<polyline fill="none" vector-effect="none" points="58.3,181.034 62,181.034 " />
<polyline fill="none" vector-effect="none" points="432,181.034 435.7,181.034 " />
<polyline fill="none" vector-effect="none" points="58.3,150.552 62,150.552 " />
<polyline fill="none" vector-effect="none" points="432,150.552 435.7,150.552 " />
<polyline fill="none" vector-effect="none" points="58.3,120.069 62,120.069 " />
<polyline fill="none" vector-effect="none" points="432,120.069 435.7,120.069 " />
<polyline fill="none" vector-effect="none" points="58.3,89.5862 62,89.5862 " />
<polyline fill="none" vector-effect="none" points="432,89.5862 435.7,89.5862 " />
<polyline fill="none" vector-effect="none" points="58.3,59.1034 62,59.1034 " />
<polyline fill="none" vector-effect="none" points="432,59.1034 435.7,59.1034 " />
<polyline fill="none" vector-effect="none" points="58.3,28.6207 62,28.6207 " />
<polyline fill="none" vector-effect="none" points="432,28.6207 435.7,28.6207 " />
</g>

<g fill="#262626" fill-opacity="1" stroke="#262626" stroke-opacity="1" stroke-width="1" stroke-linecap="square" stroke-linejoin="bevel" transform="matrix(0.75,0,0,0.75,34.475,184.875)"
font-family="Arial" font-size="13" font-weight="400" font-style="normal" 
>
<text fill="#262626" fill-opacity="1" stroke="none" xml:space="preserve" x="0" y="0" font-family="Arial" font-size="13" font-weight="400" font-style="normal" 
 >0</text>
</g>

<g fill="#262626" fill-opacity="1" stroke="#262626" stroke-opacity="1" stroke-width="1" stroke-linecap="square" stroke-linejoin="bevel" transform="matrix(0.75,0,0,0.75,26.225,162.013)"
font-family="Arial" font-size="13" font-weight="400" font-style="normal" 
>
<text fill="#262626" fill-opacity="1" stroke="none" xml:space="preserve" x="0" y="0" font-family="Arial" font-size="13" font-weight="400" font-style="normal" 
 >0.2</text>
</g>

<g fill="#262626" fill-opacity="1" stroke="#262626" stroke-opacity="1" stroke-width="1" stroke-linecap="square" stroke-linejoin="bevel" transform="matrix(0.75,0,0,0.75,26.225,139.151)"
font-family="Arial" font-size="13" font-weight="400" font-style="normal" 
>
<text fill="#262626" fill-opacity="1" stroke="none" xml:space="preserve" x="0" y="0" font-family="Arial" font-size="13" font-weight="400" font-style="normal" 
 >0.4</text>
</g>

<g fill="#262626" fill-opacity="1" stroke="#262626" stroke-opacity="1" stroke-width="1" stroke-linecap="square" stroke-linejoin="bevel" transform="matrix(0.75,0,0,0.75,26.225,116.289)"
font-family="Arial" font-size="13" font-weight="400" font-style="normal" 
>
<text fill="#262626" fill-opacity="1" stroke="none" xml:space="preserve" x="0" y="0" font-family="Arial" font-size="13" font-weight="400" font-style="normal" 
 >0.6</text>
</g>

<g fill="#262626" fill-opacity="1" stroke="#262626" stroke-opacity="1" stroke-width="1" stroke-linecap="square" stroke-linejoin="bevel" transform="matrix(0.75,0,0,0.75,26.225,93.4267)"
font-family="Arial" font-size="13" font-weight="400" font-style="normal" 
>
<text fill="#262626" fill-opacity="1" stroke="none" xml:space="preserve" x="0" y="0" font-family="Arial" font-size="13" font-weight="400" font-style="normal" 
 >0.8</text>
</g>

<g fill="#262626" fill-opacity="1" stroke="#262626" stroke-opacity="1" stroke-width="1" stroke-linecap="square" stroke-linejoin="bevel" transform="matrix(0.75,0,0,0.75,34.475,70.5647)"
font-family="Arial" font-size="13" font-weight="400" font-style="normal" 
>
<text fill="#262626" fill-opacity="1" stroke="none" xml:space="preserve" x="0" y="0" font-family="Arial" font-size="13" font-weight="400" font-style="normal" 
 >1</text>
</g>

<g fill="#262626" fill-opacity="1" stroke="#262626" stroke-opacity="1" stroke-width="1" stroke-linecap="square" stroke-linejoin="bevel" transform="matrix(0.75,0,0,0.75,26.225,47.7026)"
font-family="Arial" font-size="13" font-weight="400" font-style="normal" 
>
<text fill="#262626" fill-opacity="1" stroke="none" xml:space="preserve" x="0" y="0" font-family="Arial" font-size="13" font-weight="400" font-style="normal" 
 >1.2</text>
</g>

<g fill="#262626" fill-opacity="1" stroke="#262626" stroke-opacity="1" stroke-width="1" stroke-linecap="square" stroke-linejoin="bevel" transform="matrix(0.75,0,0,0.75,26.225,24.8405)"
font-family="Arial" font-size="13" font-weight="400" font-style="normal" 
>
<text fill="#262626" fill-opacity="1" stroke="none" xml:space="preserve" x="0" y="0" font-family="Arial" font-size="13" font-weight="400" font-style="normal" 
 >1.4</text>
</g>

<g fill="none" stroke="#0072bd" stroke-opacity="1" stroke-width="2.4" stroke-linecap="butt" stroke-linejoin="round" transform="matrix(0.75,0,0,0.75,0,0)"
font-family="Arial" font-size="13" font-weight="400" font-style="normal" 
>
<polyline fill="none" vector-effect="none" points="74.6353,242 75.32,240.491 76.06,238.708 76.8,236.757 77.54,234.669 78.28,232.444 79.02,230.081 79.76,227.582 80.5,224.96 81.24,222.217 81.98,219.351 82.72,216.379 83.46,213.3 84.2,210.13 84.94,206.869 85.68,203.516 86.42,200.071 87.16,196.55 87.9,192.968 88.64,189.311 89.38,185.592 90.12,181.827 90.86,178.017 91.6,174.145 92.34,170.244 93.08,166.311 93.82,162.349 94.56,158.371 95.3,154.377 96.04,150.354 96.78,146.33 97.52,142.306 98.26,138.298 99,134.289 99.74,130.281 100.48,126.303 101.22,122.34 101.96,118.408 102.7,114.506 103.44,110.635 104.18,106.809 104.92,103.014 105.66,99.2797 106.4,95.5913 107.14,91.9486 107.88,88.3669 108.62,84.8461 109.36,81.4016 110.1,78.018 110.84,74.6954 111.58,71.4642 112.32,68.294 113.06,65.2 113.8,62.1974 114.54,59.2711 115.28,56.4362 116.02,53.6928 116.76,51.0255 117.5,48.465 118.24,45.9806 118.98,43.603 119.72,41.3168 120.46,39.1372 121.2,37.0339 121.94,35.0526 122.68,33.1474 123.42,31.3641 124.16,29.6723 124.9,28.072 125.64,26.5936 126.38,25.2066 127.12,23.9111 127.86,22.7223 128.6,21.6401 129.086,21 " />
<polyline fill="none" vector-effect="none" points="144.452,21 144.88,21.503 145.62,22.4327 146.36,23.4234 147.1,24.4903 147.84,25.6181 148.58,26.807 149.32,28.0415 150.06,29.337 150.8,30.6935 151.54,32.0805 152.28,33.5284 153.02,35.0068 153.76,36.5462 154.5,38.1008 155.24,39.7164 155.98,41.3472 156.72,43.0238 157.46,44.7156 158.2,46.4379 158.94,48.1906 159.68,49.9586 160.42,51.7419 161.16,53.5556 161.9,55.3693 162.64,57.1983 163.38,59.0425 164.12,60.8867 164.86,62.7309 165.6,64.5751 166.34,66.4345 167.08,68.2788 167.82,70.123 168.56,71.9672 169.3,73.7809 170.04,75.5946 170.78,77.4083 171.52,79.1916 172.26,80.9596 173,82.7123 173.74,84.4499 174.48,86.1569 175.22,87.8335 175.96,89.4948 176.7,91.1256 177.44,92.7259 178.18,94.2958 178.92,95.8352 179.66,97.3288 180.4,98.8072 181.14,100.24 181.88,101.642 182.62,102.999 183.36,104.325 184.1,105.605 184.84,106.839 185.58,108.044 186.32,109.202 187.06,110.314 187.8,111.381 188.54,112.403 189.28,113.393 190.02,114.323 190.76,115.207 191.5,116.06 192.24,116.853 192.98,117.6 193.72,118.301 194.46,118.972 195.2,119.581 195.94,120.145 196.68,120.663 197.42,121.136 198.16,121.547 198.9,121.928 199.64,122.264 200.38,122.553 201.12,122.797 201.86,122.995 202.6,123.148 203.34,123.27 204.08,123.331 204.82,123.361 205.56,123.346 206.3,123.285 207.04,123.193 207.78,123.056 208.52,122.889 209.26,122.675 210,122.416 210.74,122.142 211.48,121.822 212.22,121.471 212.96,121.09 213.7,120.663 214.44,120.221 215.18,119.734 215.92,119.231 216.66,118.697 217.4,118.133 218.14,117.554 218.88,116.944 219.62,116.304 220.36,115.649 221.1,114.978 221.84,114.277 222.58,113.561 223.32,112.829 224.06,112.082 224.8,111.32 225.54,110.543 226.28,109.766 227.02,108.958 227.76,108.15 228.5,107.327 229.24,106.504 229.98,105.666 230.72,104.828 231.46,103.989 232.2,103.136 232.94,102.282 233.68,101.429 234.42,100.575 235.16,99.737 235.9,98.8834 236.64,98.0299 237.38,97.1917 238.12,96.3534 238.86,95.5151 239.6,94.6921 240.34,93.8843 241.08,93.0765 241.82,92.2687 242.56,91.4761 243.3,90.6988 244.04,89.9368 244.78,89.1747 245.52,88.4431 246.26,87.7115 247,86.9952 247.74,86.2941 248.48,85.6082 249.22,84.9376 249.96,84.2974 250.7,83.6573 251.44,83.0477 252.18,82.4532 252.92,81.8741 253.66,81.3101 254.4,80.7767 255.14,80.2585 255.88,79.7555 256.62,79.2678 257.36,78.8105 258.1,78.3685 258.84,77.957 259.58,77.5608 260.32,77.1797 261.06,76.8292 261.8,76.4939 262.54,76.189 263.28,75.8994 264.02,75.6251 264.76,75.3812 265.5,75.1526 266.24,74.9545 266.98,74.7716 267.72,74.6039 268.46,74.4668 269.2,74.3448 269.94,74.2534 270.68,74.1619 271.42,74.101 272.16,74.0705 272.9,74.0552 273.64,74.04 274.38,74.0705 275.12,74.101 275.86,74.1619 276.6,74.2229 277.34,74.3143 278.08,74.421 278.82,74.5582 279.56,74.6954 280.3,74.8478 281.04,75.0154 281.78,75.2136 282.52,75.4117 283.26,75.6251 284,75.8537 284.74,76.0823 285.48,76.3414 286.22,76.6158 286.96,76.8901 287.7,77.1797 288.44,77.4693 289.18,77.7741 289.92,78.0942 290.66,78.4143 291.4,78.7496 292.14,79.1001 292.88,79.4355 293.62,79.8012 294.36,80.1518 295.1,80.5176 295.84,80.8986 296.58,81.2644 297.32,81.6455 298.06,82.0265 298.8,82.4228 299.54,82.8038 300.28,83.2001 301.02,83.5811 301.76,83.9774 302.5,84.3737 303.24,84.7547 303.98,85.151 304.72,85.5472 305.46,85.9283 306.2,86.3246 306.94,86.7056 307.68,87.0866 308.42,87.4677 309.16,87.8335 309.9,88.1992 310.64,88.565 311.38,88.9308 312.12,89.2814 312.86,89.6319 313.6,89.9825 314.34,90.3178 315.08,90.6531 315.82,90.9732 316.56,91.2932 317.3,91.5981 318.04,91.9029 318.78,92.1925 319.52,92.4821 320.26,92.7564 321,93.0308 321.74,93.2899 322.48,93.549 323.22,93.7928 323.96,94.0214 324.7,94.2501 325.44,94.4634 326.18,94.6616 326.92,94.8597 327.66,95.0426 328.4,95.2255 329.14,95.3932 329.88,95.5456 330.62,95.698 331.36,95.8352 332.1,95.9571 332.84,96.079 333.58,96.1857 334.32,96.2772 335.06,96.3686 335.8,96.4448 336.54,96.521 337.28,96.582 338.02,96.6277 338.76,96.6735 339.5,96.7039 340.24,96.7192 340.98,96.7344 341.72,96.7344 342.46,96.7344 343.2,96.7192 343.94,96.7039 344.68,96.6735 345.42,96.6277 346.16,96.582 346.9,96.521 347.64,96.4601 348.38,96.3991 349.12,96.3229 349.86,96.2315 350.6,96.1552 351.34,96.0486 352.08,95.9571 352.82,95.8352 353.56,95.7285 354.3,95.6066 355.04,95.4846 355.78,95.3475 356.52,95.2103 357.26,95.0731 358,94.9359 358.74,94.7835 359.48,94.6311 360.22,94.4787 360.96,94.311 361.7,94.1586 362.44,93.991 363.18,93.8233 363.92,93.6557 364.66,93.488 365.4,93.3051 366.14,93.1374 366.88,92.9545 367.62,92.7717 368.36,92.604 369.1,92.4211 369.84,92.2382 370.58,92.0553 371.32,91.8724 372.06,91.7048 372.8,91.5219 373.54,91.339 374.28,91.1561 375.02,90.9884 375.76,90.8055 376.5,90.6379 377.24,90.455 377.98,90.2873 378.72,90.1197 379.46,89.952 380.2,89.7843 380.94,89.6319 381.68,89.4643 382.42,89.3119 383.16,89.1594 383.9,89.007 384.64,88.8546 385.38,88.7175 386.12,88.5803 386.86,88.4431 387.6,88.3059 388.34,88.1688 389.08,88.0468 389.82,87.9249 390.56,87.8182 391.3,87.6963 392.04,87.5896 392.78,87.4829 393.52,87.3762 394.26,87.2848 395,87.1933 395.74,87.1019 396.48,87.0257 397.22,86.9494 397.96,86.8732 398.7,86.797 399.44,86.7361 400.18,86.6751 400.92,86.6141 401.66,86.5684 402.4,86.5227 403.14,86.477 403.88,86.4465 404.62,86.4008 405.36,86.3855 406.1,86.355 406.84,86.3398 407.58,86.3246 408.32,86.3093 409.06,86.2941 409.8,86.2941 410.54,86.2941 411.28,86.2941 412.02,86.3093 412.76,86.3246 413.5,86.3398 414.24,86.355 414.98,86.3855 415.72,86.4008 416.46,86.4312 417.2,86.477 417.94,86.5074 418.68,86.5532 419.42,86.5989 420.16,86.6446 420.9,86.6903 421.64,86.7361 422.38,86.797 423.12,86.8428 423.86,86.9037 424.6,86.9647 425.34,87.0409 426.08,87.1019 426.82,87.1628 427.56,87.239 428.3,87.3 429.04,87.3762 429.78,87.4524 430.52,87.5286 431.26,87.6048 432,87.681 " />
</g>

<g fill="none" stroke="#d95319" stroke-opacity="1" stroke-width="2.4" stroke-linecap="butt" stroke-linejoin="round" transform="matrix(0.75,0,0,0.75,0,0)"
font-family="Arial" font-size="13" font-weight="400" font-style="normal" 
>
<polyline fill="none" vector-effect="none" points="62,242 62.74,241.406 63.48,240.445 64.22,239.119 64.96,237.473 65.7,235.492 66.44,233.19 67.18,230.615 67.92,227.765 68.66,224.671 69.4,221.317 70.14,217.751 70.88,213.986 71.62,210.024 72.36,205.893 73.1,201.61 73.84,197.19 74.58,192.648 75.32,188 76.06,183.26 76.8,178.443 77.54,173.581 78.28,168.658 79.02,163.72 79.76,158.752 80.5,153.783 81.24,148.829 81.98,143.891 82.72,138.999 83.46,134.152 84.2,129.351 84.94,124.626 85.68,119.962 86.42,115.405 87.16,110.924 87.9,106.565 88.64,102.298 89.38,98.1671 90.12,94.1434 90.86,90.2568 91.6,86.5074 92.34,82.8952 93.08,79.4355 93.82,76.1128 94.56,72.9579 95.3,69.9401 96.04,67.0899 96.78,64.4074 97.52,61.8621 98.26,59.4997 99,57.2897 99.74,55.2321 100.48,53.3422 101.22,51.6199 101.96,50.0501 102.7,48.6479 103.44,47.3828 104.18,46.2854 104.92,45.3405 105.66,44.5327 106.4,43.8773 107.14,43.3591 107.88,42.9781 108.62,42.7342 109.36,42.6123 110.1,42.6123 110.84,42.7495 111.58,42.9933 112.32,43.3591 113.06,43.8163 113.8,44.3803 114.54,45.0509 115.28,45.7977 116.02,46.636 116.76,47.5657 117.5,48.5564 118.24,49.6233 118.98,50.7664 119.72,51.9552 120.46,53.205 121.2,54.5005 121.94,55.8418 122.68,57.2288 123.42,58.6462 124.16,60.0941 124.9,61.5573 125.64,63.051 126.38,64.5599 127.12,66.084 127.86,67.6081 128.6,69.1323 129.34,70.6564 130.08,72.1805 130.82,73.6894 131.56,75.1983 132.3,76.6768 133.04,78.1552 133.78,79.5879 134.52,81.0053 135.26,82.4075 136,83.764 136.74,85.09 137.48,86.3703 138.22,87.6353 138.96,88.8394 139.7,90.013 140.44,91.1561 141.18,92.2382 141.92,93.2746 142.66,94.2805 143.4,95.2255 144.14,96.1248 144.88,96.9783 145.62,97.7708 146.36,98.5329 147.1,99.234 147.84,99.8894 148.58,100.484 149.32,101.048 150.06,101.551 150.8,102.008 151.54,102.404 152.28,102.77 153.02,103.09 153.76,103.349 154.5,103.578 155.24,103.761 155.98,103.883 156.72,103.989 157.46,104.035 158.2,104.05 158.94,104.035 159.68,103.974 160.42,103.867 161.16,103.745 161.9,103.578 162.64,103.395 163.38,103.182 164.12,102.922 164.86,102.648 165.6,102.358 166.34,102.038 167.08,101.703 167.82,101.337 168.56,100.956 169.3,100.575 170.04,100.164 170.78,99.737 171.52,99.3102 172.26,98.8682 173,98.4262 173.74,95.2255 174.48,92.101 175.22,89.0833 175.96,86.2026 176.7,83.4744 177.44,80.9443 178.18,78.6277 178.92,76.5548 179.66,74.7411 180.4,73.1865 181.14,71.9214 181.88,70.946 182.62,70.2754 183.36,69.8791 184.1,69.7877 184.84,69.9706 185.58,70.4278 186.32,71.1441 187.06,72.1043 187.8,73.2779 188.54,74.6497 189.28,76.2043 190.02,77.9113 190.76,79.7403 191.5,81.6607 192.24,83.6421 192.98,85.6539 193.72,87.681 194.46,89.6777 195.2,91.6286 195.94,93.5032 196.68,95.2712 197.42,96.9173 198.16,98.411 198.9,99.737 199.64,100.88 200.38,101.84 201.12,102.572 201.86,103.105 202.6,103.41 203.34,103.502 204.08,103.364 204.82,103.014 205.56,102.45 206.3,101.688 207.04,100.728 207.78,99.5998 208.52,98.3195 209.26,96.9021 210,95.3475 210.74,93.7166 211.48,92.0096 212.22,90.2416 212.96,88.4431 213.7,86.6599 214.44,84.8766 215.18,83.1544 215.92,81.4778 216.66,79.9079 217.4,78.4295 218.14,77.0883 218.88,75.8842 219.62,74.8326 220.36,73.9486 221.1,73.2474 221.84,72.7292 222.58,72.4092 223.32,72.2872 224.06,72.3482 224.8,72.6073 225.54,73.0493 226.28,73.6894 227.02,74.482 227.76,75.4575 228.5,76.5701 229.24,77.8046 229.98,79.1763 230.72,80.6395 231.46,82.1789 232.2,83.7945 232.94,85.4406 233.68,87.1019 234.42,88.7784 235.16,90.4397 235.9,92.0553 236.64,93.6099 237.38,95.0883 238.12,96.4753 238.86,97.7708 239.6,98.9292 240.34,99.9656 241.08,100.85 241.82,101.596 242.56,102.176 243.3,102.587 244.04,102.846 244.78,102.938 245.52,102.861 246.26,102.633 247,102.237 247.74,101.718 248.48,101.048 249.22,100.255 249.96,99.3559 250.7,98.35 251.44,97.2526 252.18,96.0943 252.92,94.8902 253.66,93.6404 254.4,92.3754 255.14,91.0951 255.88,89.8301 256.62,88.6108 257.36,87.4219 258.1,86.2788 258.84,85.2272 259.58,84.2517 260.32,83.3677 261.06,82.5904 261.8,81.935 262.54,81.3863 263.28,80.9748 264.02,80.6852 264.76,80.5176 265.5,80.5023 266.24,80.5938 266.98,80.8224 267.72,81.1577 268.46,81.615 269.2,82.1789 269.94,82.8343 270.68,83.5811 271.42,84.3889 272.16,85.2729 272.9,86.2026 273.64,87.1781 274.38,88.1688 275.12,89.1747 275.86,90.1806 276.6,91.1713 277.34,92.1315 278.08,93.046 278.82,93.9148 279.56,94.7073 280.3,95.4389 281.04,96.0943 281.78,96.643 282.52,97.1154 283.26,97.4812 284,97.7403 284.74,97.8928 285.48,97.9385 286.22,97.8775 286.96,97.7099 287.7,97.4355 288.44,97.0697 289.18,96.6277 289.92,96.079 290.66,95.4694 291.4,94.7835 292.14,94.0367 292.88,93.2441 293.62,92.4059 294.36,91.5523 295.1,90.6836 295.84,89.7996 296.58,88.9308 297.32,88.0773 298.06,87.2543 298.8,86.4617 299.54,85.7149 300.28,85.029 301.02,84.4041 301.76,83.8402 302.5,83.3677 303.24,82.9714 303.98,82.6666 304.72,82.438 305.46,82.3161 306.2,82.2703 306.94,82.3161 307.68,82.4532 308.42,82.6666 309.16,82.9714 309.9,83.3525 310.64,83.7945 311.38,84.3127 312.12,84.8766 312.86,85.4863 313.6,86.1416 314.34,86.8275 315.08,87.5439 315.82,88.2602 316.56,88.9766 317.3,89.7081 318.04,90.4092 318.78,91.0799 319.52,91.7352 320.26,92.3449 321,92.9088 321.74,93.427 322.48,93.8843 323.22,94.2653 323.96,94.5854 324.7,94.8445 325.44,95.0274 326.18,95.1341 326.92,95.1646 327.66,95.1341 328.4,95.0121 329.14,94.8445 329.88,94.6006 330.62,94.2958 331.36,93.93 332.1,93.5185 332.84,93.0612 333.58,92.5583 334.32,92.0401 335.06,91.4914 335.8,90.9275 336.54,90.3483 337.28,89.7691 338.02,89.1899 338.76,88.6413 339.5,88.1078 340.24,87.5896 340.98,87.1171 341.72,86.6751 342.46,86.2788 343.2,85.9283 343.94,85.6387 344.68,85.3948 345.42,85.2272 346.16,85.1052 346.9,85.0443 347.64,85.0443 348.38,85.09 349.12,85.2119 349.86,85.3796 350.6,85.6082 351.34,85.8826 352.08,86.1874 352.82,86.5532 353.56,86.9342 354.3,87.361 355.04,87.803 355.78,88.2755 356.52,88.7479 357.26,89.2204 358,89.7081 358.74,90.1806 359.48,90.6379 360.22,91.0799 360.96,91.4914 361.7,91.8877 362.44,92.2382 363.18,92.5583 363.92,92.8326 364.66,93.0612 365.4,93.2441 366.14,93.3813 366.88,93.4728 367.62,93.5032 368.36,93.5032 369.1,93.4423 369.84,93.3356 370.58,93.1832 371.32,92.985 372.06,92.7412 372.8,92.4668 373.54,92.162 374.28,91.8267 375.02,91.4761 375.76,91.0951 376.5,90.7141 377.24,90.3178 377.98,89.9063 378.72,89.51 379.46,89.1137 380.2,88.7327 380.94,88.3669 381.68,88.0316 382.42,87.7115 383.16,87.4219 383.9,87.1628 384.64,86.9342 385.38,86.7513 386.12,86.5989 386.86,86.4922 387.6,86.416 388.34,86.3855 389.08,86.4008 389.82,86.4617 390.56,86.5532 391.3,86.6751 392.04,86.8428 392.78,87.0409 393.52,87.2695 394.26,87.5134 395,87.7877 395.74,88.0926 396.48,88.3974 397.22,88.7175 397.96,89.0375 398.7,89.3728 399.44,89.6929 400.18,90.013 400.92,90.3178 401.66,90.6074 402.4,90.8817 403.14,91.1408 403.88,91.3694 404.62,91.5828 405.36,91.7657 406.1,91.9029 406.84,92.0248 407.58,92.101 408.32,92.1468 409.06,92.162 409.8,92.1468 410.54,92.0858 411.28,92.0096 412.02,91.9029 412.76,91.7505 413.5,91.5828 414.24,91.3999 414.98,91.1866 415.72,90.9579 416.46,90.7141 417.2,90.455 417.94,90.1959 418.68,89.9215 419.42,89.6624 420.16,89.3881 420.9,89.129 421.64,88.8851 422.38,88.6413 423.12,88.4279 423.86,88.2145 424.6,88.0316 425.34,87.8639 426.08,87.7268 426.82,87.6201 427.56,87.5286 428.3,87.4677 429.04,87.4372 429.78,87.4372 430.52,87.4677 431.26,87.5134 432,87.5896 " />
</g>

<g fill="none" stroke="#009980" stroke-opacity="1" stroke-width="2.4" stroke-linecap="butt" stroke-linejoin="round" transform="matrix(0.75,0,0,0.75,0,0)"
font-family="Arial" font-size="13" font-weight="400" font-style="normal" 
>
<polyline fill="none" vector-effect="none" points="62,242 62.74,239.226 63.48,236.239 64.22,233.069 64.96,229.7 65.7,226.179 66.44,222.522 67.18,218.711 67.92,214.794 68.66,210.786 69.4,206.686 70.14,202.51 70.88,198.272 71.62,193.99 72.36,189.676 73.1,185.333 73.84,180.989 74.58,176.63 75.32,172.301 76.06,167.973 76.8,163.675 77.54,159.422 78.28,155.216 79.02,151.055 79.76,146.955 80.5,142.916 81.24,138.953 81.98,135.066 82.72,131.271 83.46,127.568 84.2,123.94 84.94,120.42 85.68,116.99 86.42,113.683 87.16,110.467 87.9,107.358 88.64,104.355 89.38,101.474 90.12,98.7006 90.86,96.0486 91.6,93.5032 92.34,91.0799 93.08,88.7632 93.82,86.5684 94.56,84.4804 95.3,82.5142 96.04,80.6548 96.78,78.9172 97.52,77.2712 98.26,75.747 99,74.3296 99.74,73.0036 100.48,71.7995 101.22,70.6869 101.96,69.6657 102.7,68.7512 103.44,67.9282 104.18,67.1966 104.92,66.5412 105.66,65.9773 106.4,65.5048 107.14,65.1086 107.88,64.7885 108.62,64.5294 109.36,64.3465 110.1,64.2398 110.84,64.1941 111.58,64.2093 112.32,64.2855 113.06,64.4074 113.8,64.5903 114.54,64.819 115.28,65.0933 116.02,65.4134 116.76,65.7792 117.5,66.1755 118.24,66.6175 118.98,67.0747 119.72,67.5777 120.46,68.0959 121.2,68.6445 121.94,69.2085 122.68,69.8029 123.42,70.4126 124.16,71.0374 124.9,71.6624 125.64,72.3177 126.38,72.9731 127.12,73.6285 127.86,74.2991 128.6,74.9697 129.34,75.6403 130.08,76.311 130.82,76.9663 131.56,77.637 132.3,78.2923 133.04,78.9477 133.78,79.6031 134.52,80.2432 135.26,80.8681 136,81.493 136.74,82.1027 137.48,82.6971 138.22,83.2763 138.96,83.8402 139.7,84.4041 140.44,84.9376 141.18,85.471 141.92,85.974 142.66,86.4617 143.4,86.9342 144.14,87.4067 144.88,87.8335 145.62,88.2602 146.36,88.6717 147.1,89.0528 147.84,89.4338 148.58,89.7843 149.32,90.1197 150.06,90.4397 150.8,90.7293 151.54,91.0189 152.28,91.278 153.02,91.5371 153.76,91.7657 154.5,91.9791 155.24,92.1772 155.98,92.3601 156.72,92.5278 157.46,92.6802 158.2,92.8174 158.94,92.9545 159.68,93.0612 160.42,93.1527 161.16,93.2441 161.9,93.3051 162.64,93.3661 163.38,93.4118 164.12,93.4575 164.86,93.4728 165.6,93.488 166.34,93.5032 167.08,93.5032 167.82,93.488 168.56,93.4575 169.3,93.427 170.04,93.3965 170.78,93.3508 171.52,93.3051 172.26,93.2441 173,93.1832 173.74,91.8877 174.48,90.6074 175.22,89.3881 175.96,88.2145 176.7,87.1171 177.44,86.0959 178.18,85.1814 178.92,84.3584 179.66,83.6573 180.4,83.0629 181.14,82.6057 181.88,82.2703 182.62,82.057 183.36,81.9808 184.1,82.0112 184.84,82.1789 185.58,82.4685 186.32,82.8648 187.06,83.3677 187.8,83.9621 188.54,84.6328 189.28,85.3796 190.02,86.2026 190.76,87.0714 191.5,87.9706 192.24,88.9003 192.98,89.8301 193.72,90.775 194.46,91.6895 195.2,92.5735 195.94,93.427 196.68,94.2348 197.42,94.9817 198.16,95.6523 198.9,96.2467 199.64,96.7497 200.38,97.1612 201.12,97.4812 201.86,97.6946 202.6,97.8013 203.34,97.8166 204.08,97.7251 204.82,97.527 205.56,97.2374 206.3,96.8411 207.04,96.3686 207.78,95.8199 208.52,95.195 209.26,94.5092 210,93.7623 210.74,92.9698 211.48,92.1315 212.22,91.278 212.96,90.4245 213.7,89.5557 214.44,88.687 215.18,87.8487 215.92,87.0409 216.66,86.2636 217.4,85.532 218.14,84.8614 218.88,84.2517 219.62,83.7183 220.36,83.261 221.1,82.88 221.84,82.5904 222.58,82.377 223.32,82.2551 224.06,82.2246 224.8,82.2856 225.54,82.4228 226.28,82.6514 227.02,82.9562 227.76,83.3372 228.5,83.7792 229.24,84.2974 229.98,84.8461 230.72,85.4558 231.46,86.1112 232.2,86.7818 232.94,87.4829 233.68,88.1992 234.42,88.9003 235.16,89.6167 235.9,90.3026 236.64,90.9732 237.38,91.5981 238.12,92.1925 238.86,92.7412 239.6,93.2441 240.34,93.6861 241.08,94.0672 241.82,94.372 242.56,94.6159 243.3,94.7835 244.04,94.8902 244.78,94.9207 245.52,94.875 246.26,94.7683 247,94.5854 247.74,94.3415 248.48,94.0367 249.22,93.6861 249.96,93.2746 250.7,92.8174 251.44,92.3297 252.18,91.8267 252.92,91.278 253.66,90.7293 254.4,90.1654 255.14,89.6014 255.88,89.0528 256.62,88.5041 257.36,87.9859 258.1,87.4829 258.84,87.0257 259.58,86.5989 260.32,86.2331 261.06,85.8978 261.8,85.6234 262.54,85.3948 263.28,85.2272 264.02,85.1205 264.76,85.0595 265.5,85.0748 266.24,85.1357 266.98,85.2577 267.72,85.4406 268.46,85.6539 269.2,85.9283 269.94,86.2483 270.68,86.6141 271.42,86.9952 272.16,87.4219 272.9,87.8639 273.64,88.3212 274.38,88.7784 275.12,89.2661 275.86,89.7234 276.6,90.1959 277.34,90.6531 278.08,91.0799 278.82,91.4914 279.56,91.8724 280.3,92.2077 281.04,92.5278 281.78,92.7869 282.52,93.0155 283.26,93.1984 284,93.3203 284.74,93.4118 285.48,93.4423 286.22,93.427 286.96,93.3661 287.7,93.2594 288.44,93.107 289.18,92.9088 289.92,92.665 290.66,92.4059 291.4,92.101 292.14,91.781 292.88,91.4304 293.62,91.0494 294.36,90.6683 295.1,90.2873 295.84,89.891 296.58,89.51 297.32,89.129 298.06,88.7479 298.8,88.3974 299.54,88.0621 300.28,87.7572 301.02,87.4677 301.76,87.2238 302.5,87.0104 303.24,86.8275 303.98,86.6903 304.72,86.5836 305.46,86.5227 306.2,86.4922 306.94,86.5074 307.68,86.5684 308.42,86.6599 309.16,86.797 309.9,86.9647 310.64,87.1628 311.38,87.3762 312.12,87.6353 312.86,87.8944 313.6,88.184 314.34,88.4888 315.08,88.8089 315.82,89.1137 316.56,89.4338 317.3,89.7539 318.04,90.0739 318.78,90.3635 319.52,90.6531 320.26,90.9275 321,91.1713 321.74,91.3847 322.48,91.5828 323.22,91.7505 323.96,91.9029 324.7,92.0096 325.44,92.0858 326.18,92.1163 326.92,92.1315 327.66,92.101 328.4,92.0553 329.14,91.9639 329.88,91.8419 330.62,91.7048 331.36,91.5371 332.1,91.3542 332.84,91.1408 333.58,90.9122 334.32,90.6683 335.06,90.4092 335.8,90.1501 336.54,89.891 337.28,89.6319 338.02,89.3728 338.76,89.1137 339.5,88.8699 340.24,88.6413 340.98,88.4279 341.72,88.2145 342.46,88.0468 343.2,87.8792 343.94,87.7572 344.68,87.6353 345.42,87.5591 346.16,87.4981 346.9,87.4677 347.64,87.4677 348.38,87.4981 349.12,87.5439 349.86,87.6201 350.6,87.7268 351.34,87.8487 352.08,87.9859 352.82,88.1535 353.56,88.3364 354.3,88.5193 355.04,88.7175 355.78,88.9308 356.52,89.1442 357.26,89.3576 358,89.5862 358.74,89.7996 359.48,89.9977 360.22,90.2111 360.96,90.394 361.7,90.5769 362.44,90.7293 363.18,90.8817 363.92,91.0037 364.66,91.1103 365.4,91.1866 366.14,91.2628 366.88,91.2932 367.62,91.3237 368.36,91.3085 369.1,91.2932 369.84,91.2475 370.58,91.1713 371.32,91.0951 372.06,90.9884 372.8,90.8665 373.54,90.7293 374.28,90.5769 375.02,90.4245 375.76,90.2568 376.5,90.0892 377.24,89.9063 377.98,89.7234 378.72,89.5557 379.46,89.3728 380.2,89.2052 380.94,89.0375 381.68,88.8851 382.42,88.7479 383.16,88.6108 383.9,88.5041 384.64,88.3974 385.38,88.3212 386.12,88.245 386.86,88.1992 387.6,88.1688 388.34,88.1688 389.08,88.1688 389.82,88.1992 390.56,88.2297 391.3,88.2907 392.04,88.3669 392.78,88.4583 393.52,88.565 394.26,88.6717 395,88.7936 395.74,88.9308 396.48,89.068 397.22,89.2204 397.96,89.3576 398.7,89.51 399.44,89.6472 400.18,89.7996 400.92,89.9368 401.66,90.0739 402.4,90.1959 403.14,90.3026 403.88,90.4092 404.62,90.5007 405.36,90.5769 406.1,90.6531 406.84,90.6988 407.58,90.7293 408.32,90.7598 409.06,90.7598 409.8,90.7598 410.54,90.7293 411.28,90.6988 412.02,90.6379 412.76,90.5769 413.5,90.5007 414.24,90.4092 414.98,90.3178 415.72,90.2111 416.46,90.1044 417.2,89.9825 417.94,89.8758 418.68,89.7539 419.42,89.6319 420.16,89.51 420.9,89.3881 421.64,89.2814 422.38,89.1747 423.12,89.068 423.86,88.9766 424.6,88.8851 425.34,88.8241 426.08,88.7479 426.82,88.7022 427.56,88.6565 428.3,88.6413 429.04,88.626 429.78,88.626 430.52,88.626 431.26,88.6565 432,88.687 " />
</g>

<g fill="#0072bd" fill-opacity="1" stroke="#0072bd" stroke-opacity="1" stroke-width="2.4" stroke-linecap="butt" stroke-linejoin="round" transform="matrix(0.75,0,0,0.75,0,0)"
font-family="Arial" font-size="13" font-weight="400" font-style="normal" 
>
<polyline fill="none" vector-effect="none" points="454,30.5 494,30.5 " />
</g>

<g fill="#d95319" fill-opacity="1" stroke="#d95319" stroke-opacity="1" stroke-width="2.4" stroke-linecap="butt" stroke-linejoin="round" transform="matrix(0.75,0,0,0.75,0,0)"
font-family="Arial" font-size="13" font-weight="400" font-style="normal" 
>
<polyline fill="none" vector-effect="none" points="454,46 494,46 " />
</g>

<g fill="#009980" fill-opacity="1" stroke="#009980" stroke-opacity="1" stroke-width="2.4" stroke-linecap="butt" stroke-linejoin="round" transform="matrix(0.75,0,0,0.75,0,0)"
font-family="Arial" font-size="13" font-weight="400" font-style="normal" 
>
<polyline fill="none" vector-effect="none" points="454,61.5 494,61.5 " />
</g>

<g fill="#262626" fill-opacity="1" stroke="#262626" stroke-opacity="1" stroke-width="1" stroke-linecap="square" stroke-linejoin="bevel" transform="matrix(0.75,0,0,0.75,372.75,26.25)"
font-family="Arial" font-size="13" font-weight="400" font-style="normal" 
>
<text fill="#262626" fill-opacity="1" stroke="none" xml:space="preserve" x="0" y="0" font-family="Arial" font-size="13" font-weight="400" font-style="normal" 
 >Baseline</text>
</g>

<g fill="#262626" fill-opacity="1" stroke="#262626" stroke-opacity="1" stroke-width="1" stroke-linecap="square" stroke-linejoin="bevel" transform="matrix(0.75,0,0,0.75,372.75,37.875)"
font-family="Arial" font-size="13" font-weight="400" font-style="normal" 
>
<text fill="#262626" fill-opacity="1" stroke="none" xml:space="preserve" x="0" y="0" font-family="Arial" font-size="13" font-weight="400" font-style="normal" 
 >Method A</text>
</g>

<g fill="#262626" fill-opacity="1" stroke="#262626" stroke-opacity="1" stroke-width="1" stroke-linecap="square" stroke-linejoin="bevel" transform="matrix(0.75,0,0,0.75,372.75,49.5)"
font-family="Arial" font-size="13" font-weight="400" font-style="normal" 
>
<text fill="#262626" fill-opacity="1" stroke="none" xml:space="preserve" x="0" y="0" font-family="Arial" font-size="13" font-weight="400" font-style="normal" 
 >Method B</text>
</g>
</g>
</svg>
