<?xml version="1.0" encoding="UTF-8" standalone="no"?>
<svg width="160.161mm" height="75.1417mm"
 viewBox="0 0 454 213"
 xmlns="http://www.w3.org/2000/svg" xmlns:xlink="http://www.w3.org/1999/xlink"  version="1.2" baseProfile="tiny">
<title>Qt SVG Document</title>
<defs>
</defs>
<g fill="none" stroke="black" stroke-width="1" fill-rule="evenodd" stroke-linecap="square" stroke-linejoin="bevel" >

<g fill="#ffffff" fill-opacity="1" stroke="none" transform="matrix(0.75,0,0,0.75,0,0)"
font-family="Microsoft YaHei UI" font-size="9" font-weight="400" font-style="normal" 
>
<path vector-effect="none" fill-rule="evenodd" d="M0,0 L606,0 L606,285 L0,285 L0,0"/>
</g>

<g fill="#ffffff" fill-opacity="1" stroke="none" transform="matrix(7.5e-05,0,0,7.5e-05,0,0)"
font-family="Microsoft YaHei UI" font-size="9" font-weight="400" font-style="normal" 
>
<path vector-effect="none" fill-rule="evenodd" d="M600000,210000 L600000,2.42e+06 L4.2e+06,2.42e+06 L4.2e+06,210000 L600000,210000"/>
</g>

<g fill="#262626" fill-opacity="0.14902" stroke="#262626" stroke-opacity="0.14902" stroke-width="1.06667" stroke-linecap="butt" stroke-linejoin="round" transform="matrix(0.75,0,0,0.75,0,0)"
font-family="Microsoft YaHei UI" font-size="9" font-weight="400" font-style="normal" 
>
<polyline fill="none" vector-effect="none" points="60,21 60,242 " />
<polyline fill="none" vector-effect="none" points="132,21 132,242 " />
<polyline fill="none" vector-effect="none" points="204,21 204,242 " />
<polyline fill="none" vector-effect="none" points="276,21 276,242 " />
<polyline fill="none" vector-effect="none" points="348,21 348,242 " />
<polyline fill="none" vector-effect="none" points="420,21 420,242 " />
<polyline fill="none" vector-effect="none" points="60,234.633 420,234.633 " />
<polyline fill="none" vector-effect="none" points="60,205.167 420,205.167 " />
<polyline fill="none" vector-effect="none" points="60,175.7 420,175.7 " />
<polyline fill="none" vector-effect="none" points="60,146.233 420,146.233 " />
<polyline fill="none" vector-effect="none" points="60,116.767 420,116.767 " />
<polyline fill="none" vector-effect="none" points="60,87.3 420,87.3 " />
<polyline fill="none" vector-effect="none" points="60,57.8333 420,57.8333 " />
<polyline fill="none" vector-effect="none" points="60,28.3667 420,28.3667 " />
</g>

<g fill="#262626" fill-opacity="1" stroke="#262626" stroke-opacity="1" stroke-width="1" stroke-linecap="square" stroke-linejoin="bevel" transform="matrix(0.75,0,0,0.75,160.5,210.2)"
font-family="Arial" font-size="14" font-weight="400" font-style="normal" 
>
<text fill="#262626" fill-opacity="1" stroke="none" xml:space="preserve" x="0" y="0" font-family="Arial" font-size="14" font-weight="400" font-style="normal" 
 >Time (s)</text>
</g>

<g fill="#262626" fill-opacity="1" stroke="#262626" stroke-opacity="1" stroke-width="1.06667" stroke-linecap="square" stroke-linejoin="round" transform="matrix(0.75,0,0,0.75,0,0)"
font-family="Arial" font-size="14" font-weight="400" font-style="normal" 
>
<polyline fill="none" vector-effect="none" points="60,242 420,242 " />
<polyline fill="none" vector-effect="none" points="60,21 420,21 " />
<polyline fill="none" vector-effect="none" points="60,245.6 60,242 " />
<polyline fill="none" vector-effect="none" points="60,21 60,17.4 " />
<polyline fill="none" vector-effect="none" points="132,245.6 132,242 " />
<polyline fill="none" vector-effect="none" points="132,21 132,17.4 " />
<polyline fill="none" vector-effect="none" points="204,245.6 204,242 " />
<polyline fill="none" vector-effect="none" points="204,21 204,17.4 " />
<polyline fill="none" vector-effect="none" points="276,245.6 276,242 " />
<polyline fill="none" vector-effect="none" points="276,21 276,17.4 " />
<polyline fill="none" vector-effect="none" points="348,245.6 348,242 " />
<polyline fill="none" vector-effect="none" points="348,21 348,17.4 " />
<polyline fill="none" vector-effect="none" points="420,245.6 420,242 " />
<polyline fill="none" vector-effect="none" points="420,21 420,17.4 " />
</g>

<g fill="#262626" fill-opacity="1" stroke="#262626" stroke-opacity="1" stroke-width="1" stroke-linecap="square" stroke-linejoin="bevel" transform="matrix(0.75,0,0,0.75,42.375,197.2)"
font-family="Arial" font-size="13" font-weight="400" font-style="normal" 
>
<text fill="#262626" fill-opacity="1" stroke="none" xml:space="preserve" x="0" y="0" font-family="Arial" font-size="13" font-weight="400" font-style="normal" 
 >0</text>
</g>

<g fill="#262626" fill-opacity="1" stroke="#262626" stroke-opacity="1" stroke-width="1" stroke-linecap="square" stroke-linejoin="bevel" transform="matrix(0.75,0,0,0.75,96.375,197.2)"
font-family="Arial" font-size="13" font-weight="400" font-style="normal" 
>
<text fill="#262626" fill-opacity="1" stroke="none" xml:space="preserve" x="0" y="0" font-family="Arial" font-size="13" font-weight="400" font-style="normal" 
 >2</text>
</g>

<g fill="#262626" fill-opacity="1" stroke="#262626" stroke-opacity="1" stroke-width="1" stroke-linecap="square" stroke-linejoin="bevel" transform="matrix(0.75,0,0,0.75,150.375,197.2)"
font-family="Arial" font-size="13" font-weight="400" font-style="normal" 
>
<text fill="#262626" fill-opacity="1" stroke="none" xml:space="preserve" x="0" y="0" font-family="Arial" font-size="13" font-weight="400" font-style="normal" 
 >4</text>
</g>

<g fill="#262626" fill-opacity="1" stroke="#262626" stroke-opacity="1" stroke-width="1" stroke-linecap="square" stroke-linejoin="bevel" transform="matrix(0.75,0,0,0.75,204.375,197.2)"
font-family="Arial" font-size="13" font-weight="400" font-style="normal" 
>
<text fill="#262626" fill-opacity="1" stroke="none" xml:space="preserve" x="0" y="0" font-family="Arial" font-size="13" font-weight="400" font-style="normal" 
 >6</text>
</g>

<g fill="#262626" fill-opacity="1" stroke="#262626" stroke-opacity="1" stroke-width="1" stroke-linecap="square" stroke-linejoin="bevel" transform="matrix(0.75,0,0,0.75,258.375,197.2)"
font-family="Arial" font-size="13" font-weight="400" font-style="normal" 
>
<text fill="#262626" fill-opacity="1" stroke="none" xml:space="preserve" x="0" y="0" font-family="Arial" font-size="13" font-weight="400" font-style="normal" 
 >8</text>
</g>

<g fill="#262626" fill-opacity="1" stroke="#262626" stroke-opacity="1" stroke-width="1" stroke-linecap="square" stroke-linejoin="bevel" transform="matrix(0.75,0,0,0.75,309.75,197.2)"
font-family="Arial" font-size="13" font-weight="400" font-style="normal" 
>
<text fill="#262626" fill-opacity="1" stroke="none" xml:space="preserve" x="0" y="0" font-family="Arial" font-size="13" font-weight="400" font-style="normal" 
 >10</text>
</g>

<g fill="#262626" fill-opacity="1" stroke="#262626" stroke-opacity="1" stroke-width="1" stroke-linecap="square" stroke-linejoin="bevel" transform="matrix(0,-0.75,0.75,0,15.8,139.875)"
font-family="Arial" font-size="14" font-weight="400" font-style="normal" 
>
<text fill="#262626" fill-opacity="1" stroke="none" xml:space="preserve" x="0" y="0" font-family="Arial" font-size="14" font-weight="400" font-style="normal" 
 >Normalized value</text>
</g>

<g fill="#262626" fill-opacity="1" stroke="#262626" stroke-opacity="1" stroke-width="1.06667" stroke-linecap="square" stroke-linejoin="round" transform="matrix(0.75,0,0,0.75,0,0)"
font-family="Arial" font-size="14" font-weight="400" font-style="normal" 
>
<polyline fill="none" vector-effect="none" points="60,242 60,21 " />
<polyline fill="none" vector-effect="none" points="420,242 420,21 " />
<polyline fill="none" vector-effect="none" points="56.4,234.633 60,234.633 " />
<polyline fill="none" vector-effect="none" points="420,234.633 423.6,234.633 " />
<polyline fill="none" vector-effect="none" points="56.4,205.167 60,205.167 " />
<polyline fill="none" vector-effect="none" points="420,205.167 423.6,205.167 " />
<polyline fill="none" vector-effect="none" points="56.4,175.7 60,175.7 " />
<polyline fill="none" vector-effect="none" points="420,175.7 423.6,175.7 " />
<polyline fill="none" vector-effect="none" points="56.4,146.233 60,146.233 " />
<polyline fill="none" vector-effect="none" points="420,146.233 423.6,146.233 " />
<polyline fill="none" vector-effect="none" points="56.4,116.767 60,116.767 " />
<polyline fill="none" vector-effect="none" points="420,116.767 423.6,116.767 " />
<polyline fill="none" vector-effect="none" points="56.4,87.3 60,87.3 " />
<polyline fill="none" vector-effect="none" points="420,87.3 423.6,87.3 " />
<polyline fill="none" vector-effect="none" points="56.4,57.8333 60,57.8333 " />
<polyline fill="none" vector-effect="none" points="420,57.8333 423.6,57.8333 " />
<polyline fill="none" vector-effect="none" points="56.4,28.3667 60,28.3667 " />
<polyline fill="none" vector-effect="none" points="420,28.3667 423.6,28.3667 " />
</g>

<g fill="#262626" fill-opacity="1" stroke="#262626" stroke-opacity="1" stroke-width="1" stroke-linecap="square" stroke-linejoin="bevel" transform="matrix(0.75,0,0,0.75,21.8,179.35)"
font-family="Arial" font-size="13" font-weight="400" font-style="normal" 
>
<text fill="#262626" fill-opacity="1" stroke="none" xml:space="preserve" x="0" y="0" font-family="Arial" font-size="13" font-weight="400" font-style="normal" 
 >-0.2</text>
</g>

<g fill="#262626" fill-opacity="1" stroke="#262626" stroke-opacity="1" stroke-width="1" stroke-linecap="square" stroke-linejoin="bevel" transform="matrix(0.75,0,0,0.75,33.05,157.25)"
font-family="Arial" font-size="13" font-weight="400" font-style="normal" 
>
<text fill="#262626" fill-opacity="1" stroke="none" xml:space="preserve" x="0" y="0" font-family="Arial" font-size="13" font-weight="400" font-style="normal" 
 >0</text>
</g>

<g fill="#262626" fill-opacity="1" stroke="#262626" stroke-opacity="1" stroke-width="1" stroke-linecap="square" stroke-linejoin="bevel" transform="matrix(0.75,0,0,0.75,24.8,135.15)"
font-family="Arial" font-size="13" font-weight="400" font-style="normal" 
>
<text fill="#262626" fill-opacity="1" stroke="none" xml:space="preserve" x="0" y="0" font-family="Arial" font-size="13" font-weight="400" font-style="normal" 
 >0.2</text>
</g>

<g fill="#262626" fill-opacity="1" stroke="#262626" stroke-opacity="1" stroke-width="1" stroke-linecap="square" stroke-linejoin="bevel" transform="matrix(0.75,0,0,0.75,24.8,113.05)"
font-family="Arial" font-size="13" font-weight="400" font-style="normal" 
>
<text fill="#262626" fill-opacity="1" stroke="none" xml:space="preserve" x="0" y="0" font-family="Arial" font-size="13" font-weight="400" font-style="normal" 
 >0.4</text>
</g>

<g fill="#262626" fill-opacity="1" stroke="#262626" stroke-opacity="1" stroke-width="1" stroke-linecap="square" stroke-linejoin="bevel" transform="matrix(0.75,0,0,0.75,24.8,90.95)"
font-family="Arial" font-size="13" font-weight="400" font-style="normal" 
>
<text fill="#262626" fill-opacity="1" stroke="none" xml:space="preserve" x="0" y="0" font-family="Arial" font-size="13" font-weight="400" font-style="normal" 
 >0.6</text>
</g>

<g fill="#262626" fill-opacity="1" stroke="#262626" stroke-opacity="1" stroke-width="1" stroke-linecap="square" stroke-linejoin="bevel" transform="matrix(0.75,0,0,0.75,24.8,68.85)"
font-family="Arial" font-size="13" font-weight="400" font-style="normal" 
>
<text fill="#262626" fill-opacity="1" stroke="none" xml:space="preserve" x="0" y="0" font-family="Arial" font-size="13" font-weight="400" font-style="normal" 
 >0.8</text>
</g>

<g fill="#262626" fill-opacity="1" stroke="#262626" stroke-opacity="1" stroke-width="1" stroke-linecap="square" stroke-linejoin="bevel" transform="matrix(0.75,0,0,0.75,33.05,46.75)"
font-family="Arial" font-size="13" font-weight="400" font-style="normal" 
>
<text fill="#262626" fill-opacity="1" stroke="none" xml:space="preserve" x="0" y="0" font-family="Arial" font-size="13" font-weight="400" font-style="normal" 
 >1</text>
</g>

<g fill="#262626" fill-opacity="1" stroke="#262626" stroke-opacity="1" stroke-width="1" stroke-linecap="square" stroke-linejoin="bevel" transform="matrix(0.75,0,0,0.75,24.8,24.65)"
font-family="Arial" font-size="13" font-weight="400" font-style="normal" 
>
<text fill="#262626" fill-opacity="1" stroke="none" xml:space="preserve" x="0" y="0" font-family="Arial" font-size="13" font-weight="400" font-style="normal" 
 >1.2</text>
</g>

<g fill="none" stroke="#0072bd" stroke-opacity="1" stroke-dasharray="8,8" stroke-dashoffset="0" stroke-width="2.4" stroke-linecap="butt" stroke-linejoin="round" transform="matrix(0.75,0,0,0.75,0,0)"
font-family="Arial" font-size="13" font-weight="400" font-style="normal" 
>
<polyline fill="none" vector-effect="none" points="60,57.8333 60.72,57.8333 61.44,57.8333 62.16,57.8333 62.88,57.8333 63.6,57.8333 64.32,57.8333 65.04,57.8333 65.76,57.8333 66.48,57.8333 67.2,57.8333 67.92,57.8333 68.64,57.8333 69.36,57.8333 70.08,57.8333 70.8,57.8333 71.52,57.8333 72.24,57.8333 72.96,57.8333 73.68,57.8333 74.4,57.8333 75.12,57.8333 75.84,57.8333 76.56,57.8333 77.28,57.8333 78,57.8333 78.72,57.8333 79.44,57.8333 80.16,57.8333 80.88,57.8333 81.6,57.8333 82.32,57.8333 83.04,57.8333 83.76,57.8333 84.48,57.8333 85.2,57.8333 85.92,57.8333 86.64,57.8333 87.36,57.8333 88.08,57.8333 88.8,57.8333 89.52,57.8333 90.24,57.8333 90.96,57.8333 91.68,57.8333 92.4,57.8333 93.12,57.8333 93.84,57.8333 94.56,57.8333 95.28,57.8333 96,57.8333 96.72,57.8333 97.44,57.8333 98.16,57.8333 98.88,57.8333 99.6,57.8333 100.32,57.8333 101.04,57.8333 101.76,57.8333 102.48,57.8333 103.2,57.8333 103.92,57.8333 104.64,57.8333 105.36,57.8333 106.08,57.8333 106.8,57.8333 107.52,57.8333 108.24,57.8333 108.96,57.8333 109.68,57.8333 110.4,57.8333 111.12,57.8333 111.84,57.8333 112.56,57.8333 113.28,57.8333 114,57.8333 114.72,57.8333 115.44,57.8333 116.16,57.8333 116.88,57.8333 117.6,57.8333 118.32,57.8333 119.04,57.8333 119.76,57.8333 120.48,57.8333 121.2,57.8333 121.92,57.8333 122.64,57.8333 123.36,57.8333 124.08,57.8333 124.8,57.8333 125.52,57.8333 126.24,57.8333 126.96,57.8333 127.68,57.8333 128.4,57.8333 129.12,57.8333 129.84,57.8333 130.56,57.8333 131.28,57.8333 132,57.8333 132.72,57.8333 133.44,57.8333 134.16,57.8333 134.88,57.8333 135.6,57.8333 136.32,57.8333 137.04,57.8333 137.76,57.8333 138.48,57.8333 139.2,57.8333 139.92,57.8333 140.64,57.8333 141.36,57.8333 142.08,57.8333 142.8,57.8333 143.52,57.8333 144.24,57.8333 144.96,57.8333 145.68,57.8333 146.4,57.8333 147.12,57.8333 147.84,57.8333 148.56,57.8333 149.28,57.8333 150,57.8333 150.72,57.8333 151.44,57.8333 152.16,57.8333 152.88,57.8333 153.6,57.8333 154.32,57.8333 155.04,57.8333 155.76,57.8333 156.48,57.8333 157.2,57.8333 157.92,57.8333 158.64,57.8333 159.36,57.8333 160.08,57.8333 160.8,57.8333 161.52,57.8333 162.24,57.8333 162.96,57.8333 163.68,57.8333 164.4,57.8333 165.12,57.8333 165.84,57.8333 166.56,57.8333 167.28,57.8333 168,57.8333 168.72,57.8333 169.44,57.8333 170.16,57.8333 170.88,57.8333 171.6,57.8333 172.32,57.8333 173.04,57.8333 173.76,57.8333 174.48,57.8333 175.2,57.8333 175.92,57.8333 176.64,57.8333 177.36,57.8333 178.08,57.8333 178.8,57.8333 179.52,57.8333 180.24,57.8333 180.96,57.8333 181.68,57.8333 182.4,57.8333 183.12,57.8333 183.84,57.8333 184.56,57.8333 185.28,57.8333 186,57.8333 186.72,57.8333 187.44,57.8333 188.16,57.8333 188.88,57.8333 189.6,57.8333 190.32,57.8333 191.04,57.8333 191.76,57.8333 192.48,57.8333 193.2,57.8333 193.92,57.8333 194.64,57.8333 195.36,57.8333 196.08,57.8333 196.8,57.8333 197.52,57.8333 198.24,57.8333 198.96,57.8333 199.68,57.8333 200.4,57.8333 201.12,57.8333 201.84,57.8333 202.56,57.8333 203.28,57.8333 204,57.8333 204.72,57.8333 205.44,57.8333 206.16,57.8333 206.88,57.8333 207.6,57.8333 208.32,57.8333 209.04,57.8333 209.76,57.8333 210.48,57.8333 211.2,57.8333 211.92,57.8333 212.64,57.8333 213.36,57.8333 214.08,57.8333 214.8,57.8333 215.52,57.8333 216.24,57.8333 216.96,57.8333 217.68,57.8333 218.4,57.8333 219.12,57.8333 219.84,57.8333 220.56,57.8333 221.28,57.8333 222,57.8333 222.72,57.8333 223.44,57.8333 224.16,57.8333 224.88,57.8333 225.6,57.8333 226.32,57.8333 227.04,57.8333 227.76,57.8333 228.48,57.8333 229.2,57.8333 229.92,57.8333 230.64,57.8333 231.36,57.8333 232.08,57.8333 232.8,57.8333 233.52,57.8333 234.24,57.8333 234.96,57.8333 235.68,57.8333 236.4,57.8333 237.12,57.8333 237.84,57.8333 238.56,57.8333 239.28,57.8333 240,57.8333 240.72,57.8333 241.44,57.8333 242.16,57.8333 242.88,57.8333 243.6,57.8333 244.32,57.8333 245.04,57.8333 245.76,57.8333 246.48,57.8333 247.2,57.8333 247.92,57.8333 248.64,57.8333 249.36,57.8333 250.08,57.8333 250.8,57.8333 251.52,57.8333 252.24,57.8333 252.96,57.8333 253.68,57.8333 254.4,57.8333 255.12,57.8333 255.84,57.8333 256.56,57.8333 257.28,57.8333 258,57.8333 258.72,57.8333 259.44,57.8333 260.16,57.8333 260.88,57.8333 261.6,57.8333 262.32,57.8333 263.04,57.8333 263.76,57.8333 264.48,57.8333 265.2,57.8333 265.92,57.8333 266.64,57.8333 267.36,57.8333 268.08,57.8333 268.8,57.8333 269.52,57.8333 270.24,57.8333 270.96,57.8333 271.68,57.8333 272.4,57.8333 273.12,57.8333 273.84,57.8333 274.56,57.8333 275.28,57.8333 276,57.8333 276.72,57.8333 277.44,57.8333 278.16,57.8333 278.88,57.8333 279.6,57.8333 280.32,57.8333 281.04,57.8333 281.76,57.8333 282.48,57.8333 283.2,57.8333 283.92,57.8333 284.64,57.8333 285.36,57.8333 286.08,57.8333 286.8,57.8333 287.52,57.8333 288.24,57.8333 288.96,57.8333 289.68,57.8333 290.4,57.8333 291.12,57.8333 291.84,57.8333 292.56,57.8333 293.28,57.8333 294,57.8333 294.72,57.8333 295.44,57.8333 296.16,57.8333 296.88,57.8333 297.6,57.8333 298.32,57.8333 299.04,57.8333 299.76,57.8333 300.48,57.8333 301.2,57.8333 301.92,57.8333 302.64,57.8333 303.36,57.8333 304.08,57.8333 304.8,57.8333 305.52,57.8333 306.24,57.8333 306.96,57.8333 307.68,57.8333 308.4,57.8333 309.12,57.8333 309.84,57.8333 310.56,57.8333 311.28,57.8333 312,57.8333 312.72,57.8333 313.44,57.8333 314.16,57.8333 314.88,57.8333 315.6,57.8333 316.32,57.8333 317.04,57.8333 317.76,57.8333 318.48,57.8333 319.2,57.8333 319.92,57.8333 320.64,57.8333 321.36,57.8333 322.08,57.8333 322.8,57.8333 323.52,57.8333 324.24,57.8333 324.96,57.8333 325.68,57.8333 326.4,57.8333 327.12,57.8333 327.84,57.8333 328.56,57.8333 329.28,57.8333 330,57.8333 330.72,57.8333 331.44,57.8333 332.16,57.8333 332.88,57.8333 333.6,57.8333 334.32,57.8333 335.04,57.8333 335.76,57.8333 336.48,57.8333 337.2,57.8333 337.92,57.8333 338.64,57.8333 339.36,57.8333 340.08,57.8333 340.8,57.8333 341.52,57.8333 342.24,57.8333 342.96,57.8333 343.68,57.8333 344.4,57.8333 345.12,57.8333 345.84,57.8333 346.56,57.8333 347.28,57.8333 348,57.8333 348.72,57.8333 349.44,57.8333 350.16,57.8333 350.88,57.8333 351.6,57.8333 352.32,57.8333 353.04,57.8333 353.76,57.8333 354.48,57.8333 355.2,57.8333 355.92,57.8333 356.64,57.8333 357.36,57.8333 358.08,57.8333 358.8,57.8333 359.52,57.8333 360.24,57.8333 360.96,57.8333 361.68,57.8333 362.4,57.8333 363.12,57.8333 363.84,57.8333 364.56,57.8333 365.28,57.8333 366,57.8333 366.72,57.8333 367.44,57.8333 368.16,57.8333 368.88,57.8333 369.6,57.8333 370.32,57.8333 371.04,57.8333 371.76,57.8333 372.48,57.8333 373.2,57.8333 373.92,57.8333 374.64,57.8333 375.36,57.8333 376.08,57.8333 376.8,57.8333 377.52,57.8333 378.24,57.8333 378.96,57.8333 379.68,57.8333 380.4,57.8333 381.12,57.8333 381.84,57.8333 382.56,57.8333 383.28,57.8333 384,57.8333 384.72,57.8333 385.44,57.8333 386.16,57.8333 386.88,57.8333 387.6,57.8333 388.32,57.8333 389.04,57.8333 389.76,57.8333 390.48,57.8333 391.2,57.8333 391.92,57.8333 392.64,57.8333 393.36,57.8333 394.08,57.8333 394.8,57.8333 395.52,57.8333 396.24,57.8333 396.96,57.8333 397.68,57.8333 398.4,57.8333 399.12,57.8333 399.84,57.8333 400.56,57.8333 401.28,57.8333 402,57.8333 402.72,57.8333 403.44,57.8333 404.16,57.8333 404.88,57.8333 405.6,57.8333 406.32,57.8333 407.04,57.8333 407.76,57.8333 408.48,57.8333 409.2,57.8333 409.92,57.8333 410.64,57.8333 411.36,57.8333 412.08,57.8333 412.8,57.8333 413.52,57.8333 414.24,57.8333 414.96,57.8333 415.68,57.8333 416.4,57.8333 417.12,57.8333 417.84,57.8333 418.56,57.8333 419.28,57.8333 420,57.8333 " />
</g>

<g fill="none" stroke="#d95319" stroke-opacity="1" stroke-width="2.4" stroke-linecap="butt" stroke-linejoin="round" transform="matrix(0.75,0,0,0.75,0,0)"
font-family="Arial" font-size="13" font-weight="400" font-style="normal" 
>
<polyline fill="none" vector-effect="none" points="60,205.167 60.72,204.592 61.44,203.664 62.16,202.382 62.88,200.791 63.6,198.876 64.32,196.651 65.04,194.161 65.76,191.406 66.48,188.415 67.2,185.174 67.92,181.726 68.64,178.087 69.36,174.256 70.08,170.263 70.8,166.123 71.52,161.851 72.24,157.46 72.96,152.966 73.68,148.384 74.4,143.729 75.12,139.029 75.84,134.27 76.56,129.496 77.28,124.693 78,119.89 78.72,115.102 79.44,110.328 80.16,105.599 80.88,100.914 81.6,96.2726 82.32,91.7053 83.04,87.1969 83.76,82.7916 84.48,78.46 85.2,74.2463 85.92,70.1209 86.64,66.1282 87.36,62.2386 88.08,58.4816 88.8,54.8572 89.52,51.3654 90.24,48.0209 90.96,44.8091 91.68,41.7593 92.4,38.8421 93.12,36.0869 93.84,33.4939 94.56,31.0334 95.28,28.7497 96,26.6134 96.72,24.6244 97.44,22.7975 98.16,21.1326 98.2229,21 " />
<polyline fill="none" vector-effect="none" points="115.874,21 116.16,21.4567 116.88,22.6649 117.6,23.9172 118.32,25.2137 119.04,26.5545 119.76,27.9247 120.48,29.3243 121.2,30.7387 121.92,32.1826 122.64,33.6412 123.36,35.1145 124.08,36.5879 124.8,38.0612 125.52,39.5345 126.24,41.0079 126.96,42.4665 127.68,43.9251 128.4,45.3542 129.12,46.7833 129.84,48.1683 130.56,49.5385 131.28,50.8939 132,52.2052 132.72,53.487 133.44,54.7246 134.16,55.9475 134.88,57.1114 135.6,58.2459 136.32,59.3509 137.04,60.3969 137.76,61.3988 138.48,62.3712 139.2,63.2847 139.92,64.1539 140.64,64.979 141.36,65.7451 142.08,66.4818 142.8,67.1595 143.52,67.7931 144.24,68.3677 144.96,68.9128 145.68,69.399 146.4,69.841 147.12,70.2241 147.84,70.5777 148.56,70.8871 149.28,71.1375 150,71.3585 150.72,71.5353 151.44,71.6532 152.16,71.7563 152.88,71.8005 153.6,71.8153 154.32,71.8005 155.04,71.7416 155.76,71.6385 156.48,71.5206 157.2,71.3585 157.92,71.1817 158.64,70.9755 159.36,70.725 160.08,70.4598 160.8,70.1799 161.52,69.8705 162.24,69.5463 162.96,69.1927 163.68,68.8244 164.4,68.4561 165.12,68.0583 165.84,67.6457 166.56,67.2332 167.28,66.8059 168,66.3787 168.72,63.2847 169.44,60.2643 170.16,57.3471 170.88,54.5625 171.6,51.9253 172.32,49.4795 173.04,47.2401 173.76,45.2363 174.48,43.4831 175.2,41.9803 175.92,40.7574 176.64,39.8145 177.36,39.1662 178.08,38.7831 178.8,38.6947 179.52,38.8715 180.24,39.3135 180.96,40.006 181.68,40.9342 182.4,42.0687 183.12,43.3947 183.84,44.8975 184.56,46.5476 185.28,48.3156 186,50.172 186.72,52.0873 187.44,54.0321 188.16,55.9917 188.88,57.9217 189.6,59.8076 190.32,61.6198 191.04,63.3289 191.76,64.9201 192.48,66.3639 193.2,67.6457 193.92,68.7507 194.64,69.6789 195.36,70.3861 196.08,70.9018 196.8,71.1965 197.52,71.2849 198.24,71.1523 198.96,70.8134 199.68,70.2683 200.4,69.5316 201.12,68.6034 201.84,67.5131 202.56,66.2755 203.28,64.9053 204,63.4025 204.72,61.8261 205.44,60.1759 206.16,58.4669 206.88,56.7283 207.6,55.0045 208.32,53.2807 209.04,51.6159 209.76,49.9952 210.48,48.4777 211.2,47.0485 211.92,45.752 212.64,44.5881 213.36,43.5715 214.08,42.7169 214.8,42.0392 215.52,41.5383 216.24,41.2289 216.96,41.111 217.68,41.1699 218.4,41.4204 219.12,41.8477 219.84,42.4665 220.56,43.2326 221.28,44.1755 222,45.2511 222.72,46.4445 223.44,47.7705 224.16,49.1849 224.88,50.6729 225.6,52.2347 226.32,53.8259 227.04,55.4318 227.76,57.0525 228.48,58.6584 229.2,60.2201 229.92,61.7229 230.64,63.1521 231.36,64.4928 232.08,65.7451 232.8,66.8649 233.52,67.8667 234.24,68.7213 234.96,69.4432 235.68,70.0031 236.4,70.4009 237.12,70.6513 237.84,70.7397 238.56,70.6661 239.28,70.4451 240,70.062 240.72,69.5611 241.44,68.9128 242.16,68.1467 242.88,67.2774 243.6,66.305 244.32,65.2442 245.04,64.1245 245.76,62.9605 246.48,61.7524 247.2,60.5295 247.92,59.2919 248.64,58.0691 249.36,56.8904 250.08,55.7412 250.8,54.6362 251.52,53.6196 252.24,52.6767 252.96,51.8221 253.68,51.0707 254.4,50.4372 255.12,49.9068 255.84,49.509 256.56,49.2291 257.28,49.067 258,49.0523 258.72,49.1407 259.44,49.3617 260.16,49.6858 260.88,50.1278 261.6,50.6729 262.32,51.3065 263.04,52.0284 263.76,52.8093 264.48,53.6638 265.2,54.5625 265.92,55.5055 266.64,56.4631 267.36,57.4355 268.08,58.4079 268.8,59.3656 269.52,60.2938 270.24,61.1778 270.96,62.0176 271.68,62.7837 272.4,63.4909 273.12,64.1245 273.84,64.6549 274.56,65.1116 275.28,65.4652 276,65.7157 276.72,65.863 277.44,65.9072 278.16,65.8483 278.88,65.6862 279.6,65.421 280.32,65.0674 281.04,64.6401 281.76,64.1097 282.48,63.5204 283.2,62.8574 283.92,62.1355 284.64,61.3693 285.36,60.559 286.08,59.7339 286.8,58.8941 287.52,58.0396 288.24,57.1998 288.96,56.3747 289.68,55.5791 290.4,54.813 291.12,54.0911 291.84,53.4281 292.56,52.824 293.28,52.2789 294,51.8221 294.72,51.4391 295.44,51.1444 296.16,50.9234 296.88,50.8055 297.6,50.7613 298.32,50.8055 299.04,50.9381 299.76,51.1444 300.48,51.4391 301.2,51.8074 301.92,52.2347 302.64,52.7356 303.36,53.2807 304.08,53.8701 304.8,54.5036 305.52,55.1666 306.24,55.8591 306.96,56.5515 307.68,57.244 308.4,57.9512 309.12,58.6289 309.84,59.2772 310.56,59.9107 311.28,60.5001 312,61.0452 312.72,61.5461 313.44,61.9881 314.16,62.3565 314.88,62.6659 315.6,62.9163 316.32,63.0931 317.04,63.1963 317.76,63.2257 318.48,63.1963 319.2,63.0784 319.92,62.9163 320.64,62.6806 321.36,62.3859 322.08,62.0323 322.8,61.6345 323.52,61.1925 324.24,60.7063 324.96,60.2054 325.68,59.675 326.4,59.1299 327.12,58.57 327.84,58.0101 328.56,57.4503 329.28,56.9199 330,56.4042 330.72,55.9033 331.44,55.4465 332.16,55.0193 332.88,54.6362 333.6,54.2973 334.32,54.0174 335.04,53.7817 335.76,53.6196 336.48,53.5017 337.2,53.4428 337.92,53.4428 338.64,53.487 339.36,53.6049 340.08,53.7669 340.8,53.9879 341.52,54.2531 342.24,54.5478 342.96,54.9014 343.68,55.2697 344.4,55.6823 345.12,56.1095 345.84,56.5663 346.56,57.023 347.28,57.4797 348,57.9512 348.72,58.4079 349.44,58.8499 350.16,59.2772 350.88,59.675 351.6,60.0581 352.32,60.3969 353.04,60.7063 353.76,60.9715 354.48,61.1925 355.2,61.3693 355.92,61.5019 356.64,61.5903 357.36,61.6198 358.08,61.6198 358.8,61.5609 359.52,61.4577 360.24,61.3104 360.96,61.1189 361.68,60.8831 362.4,60.6179 363.12,60.3233 363.84,59.9991 364.56,59.6603 365.28,59.2919 366,58.9236 366.72,58.5405 367.44,58.1427 368.16,57.7597 368.88,57.3766 369.6,57.0083 370.32,56.6547 371.04,56.3305 371.76,56.0211 372.48,55.7412 373.2,55.4907 373.92,55.2697 374.64,55.0929 375.36,54.9456 376.08,54.8425 376.8,54.7688 377.52,54.7393 378.24,54.7541 378.96,54.813 379.68,54.9014 380.4,55.0193 381.12,55.1813 381.84,55.3729 382.56,55.5939 383.28,55.8296 384,56.0948 384.72,56.3895 385.44,56.6841 386.16,56.9935 386.88,57.3029 387.6,57.6271 388.32,57.9365 389.04,58.2459 389.76,58.5405 390.48,58.8205 391.2,59.0857 391.92,59.3361 392.64,59.5571 393.36,59.7634 394.08,59.9402 394.8,60.0728 395.52,60.1907 396.24,60.2643 396.96,60.3085 397.68,60.3233 398.4,60.3085 399.12,60.2496 399.84,60.1759 400.56,60.0728 401.28,59.9255 402,59.7634 402.72,59.5866 403.44,59.3803 404.16,59.1593 404.88,58.9236 405.6,58.6731 406.32,58.4227 407.04,58.1575 407.76,57.907 408.48,57.6418 409.2,57.3913 409.92,57.1556 410.64,56.9199 411.36,56.7136 412.08,56.5073 412.8,56.3305 413.52,56.1685 414.24,56.0359 414.96,55.9327 415.68,55.8443 416.4,55.7854 417.12,55.7559 417.84,55.7559 418.56,55.7854 419.28,55.8296 420,55.9033 " />
</g>

<g fill="none" stroke="#009980" stroke-opacity="1" stroke-width="2.4" stroke-linecap="butt" stroke-linejoin="round" transform="matrix(0.75,0,0,0.75,0,0)"
font-family="Arial" font-size="13" font-weight="400" font-style="normal" 
>
<polyline fill="none" vector-effect="none" points="60,205.167 60.72,205.167 61.44,205.167 62.16,205.167 62.88,205.167 63.6,205.167 64.32,205.167 65.04,205.167 65.76,205.167 66.48,205.167 67.2,205.167 67.92,205.167 68.64,205.167 69.36,205.167 70.08,205.167 70.8,205.167 71.52,205.167 72.24,205.167 72.96,205.167 73.68,205.167 74.4,205.167 75.12,205.167 75.84,205.167 76.56,205.167 77.28,205.167 78,205.167 78.72,205.167 79.44,205.167 80.16,205.167 80.88,205.167 81.6,205.167 82.32,205.167 83.04,205.167 83.76,205.167 84.48,205.167 85.2,205.167 85.92,205.167 86.64,205.167 87.36,205.167 88.08,205.167 88.8,205.167 89.52,205.167 90.24,205.167 90.96,205.167 91.68,205.167 92.4,205.167 93.12,205.167 93.84,205.167 94.56,205.167 95.28,205.167 96,205.167 96.72,205.167 97.44,205.167 98.16,205.167 98.88,205.167 99.6,205.167 100.32,205.167 101.04,205.167 101.76,205.167 102.48,205.167 103.2,205.167 103.92,205.167 104.64,205.167 105.36,205.167 106.08,205.167 106.8,205.167 107.52,205.167 108.24,205.167 108.96,205.167 109.68,205.167 110.4,205.167 111.12,205.167 111.84,205.167 112.56,205.167 113.28,205.167 114,205.167 114.72,205.167 115.44,205.167 116.16,205.167 116.88,205.167 117.6,205.167 118.32,205.167 119.04,205.167 119.76,205.167 120.48,205.167 121.2,205.167 121.92,205.167 122.64,205.167 123.36,205.167 124.08,205.167 124.8,205.167 125.52,205.167 126.24,205.167 126.96,205.167 127.68,205.167 128.4,205.167 129.12,205.167 129.84,205.167 130.56,205.167 131.28,205.167 132,205.167 132.72,205.167 133.44,205.167 134.16,205.167 134.88,205.167 135.6,205.167 136.32,205.167 137.04,205.167 137.76,205.167 138.48,205.167 139.2,205.167 139.92,205.167 140.64,205.167 141.36,205.167 142.08,205.167 142.8,205.167 143.52,205.167 144.24,205.167 144.96,205.167 145.68,205.167 146.4,205.167 147.12,205.167 147.84,205.167 148.56,205.167 149.28,205.167 150,205.167 150.72,205.167 151.44,205.167 152.16,205.167 152.88,205.167 153.6,205.167 154.32,205.167 155.04,205.167 155.76,205.167 156.48,205.167 157.2,205.167 157.92,205.167 158.64,205.167 159.36,205.167 160.08,205.167 160.8,205.167 161.52,205.167 162.24,205.167 162.96,205.167 163.68,205.167 164.4,205.167 165.12,205.167 165.84,205.167 166.56,205.167 167.28,205.167 168,205.167 168.72,202.529 169.44,199.951 170.16,197.491 170.88,195.148 171.6,192.967 172.32,190.978 173.04,189.196 173.76,187.634 174.48,186.337 175.2,185.277 175.92,184.496 176.64,183.98 177.36,183.759 178.08,183.789 178.8,184.113 179.52,184.687 180.24,185.527 180.96,186.588 181.68,187.884 182.4,189.373 183.12,191.052 183.84,192.879 184.56,194.839 185.28,196.916 186,199.052 186.72,201.248 187.44,203.458 188.16,205.653 188.88,207.819 189.6,209.926 190.32,211.929 191.04,213.83 191.76,215.583 192.48,217.189 193.2,218.618 193.92,219.856 194.64,220.887 195.36,221.697 196.08,222.302 196.8,222.67 197.52,222.802 198.24,222.729 198.96,222.419 199.68,221.889 200.4,221.167 201.12,220.239 201.84,219.134 202.56,217.867 203.28,216.467 204,214.935 204.72,213.299 205.44,211.576 206.16,209.808 206.88,207.995 207.6,206.169 208.32,204.371 209.04,202.588 209.76,200.879 210.48,199.244 211.2,197.712 211.92,196.282 212.64,195.001 213.36,193.851 214.08,192.864 214.8,192.054 215.52,191.42 216.24,190.978 216.96,190.713 217.68,190.64 218.4,190.757 219.12,191.052 219.84,191.524 220.56,192.157 221.28,192.953 222,193.881 222.72,194.956 223.44,196.135 224.16,197.417 224.88,198.787 225.6,200.216 226.32,201.675 227.04,203.178 227.76,204.666 228.48,206.154 229.2,207.598 229.92,208.997 230.64,210.338 231.36,211.576 232.08,212.725 232.8,213.756 233.52,214.67 234.24,215.451 234.96,216.084 235.68,216.57 236.4,216.909 237.12,217.086 237.84,217.115 238.56,216.998 239.28,216.718 240,216.305 240.72,215.745 241.44,215.067 242.16,214.272 242.88,213.373 243.6,212.371 244.32,211.296 245.04,210.161 245.76,208.983 246.48,207.76 247.2,206.537 247.92,205.299 248.64,204.091 249.36,202.898 250.08,201.763 250.8,200.673 251.52,199.671 252.24,198.743 252.96,197.918 253.68,197.196 254.4,196.577 255.12,196.076 255.84,195.708 256.56,195.457 257.28,195.34 258,195.34 258.72,195.472 259.44,195.723 260.16,196.091 260.88,196.577 261.6,197.152 262.32,197.829 263.04,198.596 263.76,199.421 264.48,200.319 265.2,201.262 265.92,202.249 266.64,203.251 267.36,204.268 268.08,205.285 268.8,206.272 269.52,207.244 270.24,208.172 270.96,209.056 271.68,209.867 272.4,210.618 273.12,211.281 273.84,211.856 274.56,212.342 275.28,212.725 276,213.005 276.72,213.196 277.44,213.27 278.16,213.241 278.88,213.108 279.6,212.887 280.32,212.563 281.04,212.136 281.76,211.649 282.48,211.075 283.2,210.426 283.92,209.734 284.64,208.983 285.36,208.202 286.08,207.391 286.8,206.552 287.52,205.727 288.24,204.887 288.96,204.076 289.68,203.281 290.4,202.529 291.12,201.807 291.84,201.159 292.56,200.555 293.28,200.025 294,199.568 294.72,199.185 295.44,198.876 296.16,198.669 296.88,198.537 297.6,198.492 298.32,198.537 299.04,198.655 299.76,198.861 300.48,199.155 301.2,199.509 301.92,199.936 302.64,200.423 303.36,200.953 304.08,201.542 304.8,202.161 305.52,202.809 306.24,203.487 306.96,204.18 307.68,204.857 308.4,205.55 309.12,206.213 309.84,206.861 310.56,207.48 311.28,208.054 312,208.585 312.72,209.071 313.44,209.484 314.16,209.852 314.88,210.161 315.6,210.382 316.32,210.544 317.04,210.633 317.76,210.662 318.48,210.603 319.2,210.485 319.92,210.309 320.64,210.058 321.36,209.749 322.08,209.395 322.8,208.983 323.52,208.526 324.24,208.04 324.96,207.524 325.68,206.979 326.4,206.419 327.12,205.859 327.84,205.299 328.56,204.725 329.28,204.18 330,203.664 330.72,203.163 331.44,202.691 332.16,202.264 332.88,201.881 333.6,201.542 334.32,201.248 335.04,201.012 335.76,200.835 336.48,200.717 337.2,200.658 337.92,200.644 338.64,200.702 339.36,200.806 340.08,200.982 340.8,201.189 341.52,201.454 342.24,201.763 342.96,202.102 343.68,202.485 344.4,202.898 345.12,203.325 345.84,203.767 346.56,204.238 347.28,204.695 348,205.167 348.72,205.623 349.44,206.065 350.16,206.507 350.88,206.905 351.6,207.288 352.32,207.627 353.04,207.937 353.76,208.216 354.48,208.437 355.2,208.629 355.92,208.762 356.64,208.85 357.36,208.894 358.08,208.879 358.8,208.821 359.52,208.732 360.24,208.585 360.96,208.393 361.68,208.172 362.4,207.907 363.12,207.612 363.84,207.303 364.56,206.964 365.28,206.596 366,206.227 366.72,205.844 367.44,205.461 368.16,205.078 368.88,204.71 369.6,204.342 370.32,203.988 371.04,203.664 371.76,203.354 372.48,203.075 373.2,202.824 373.92,202.618 374.64,202.441 375.36,202.294 376.08,202.191 376.8,202.132 377.52,202.102 378.24,202.117 378.96,202.176 379.68,202.264 380.4,202.382 381.12,202.544 381.84,202.736 382.56,202.957 383.28,203.207 384,203.472 384.72,203.752 385.44,204.047 386.16,204.356 386.88,204.68 387.6,204.99 388.32,205.299 389.04,205.609 389.76,205.918 390.48,206.198 391.2,206.463 391.92,206.714 392.64,206.935 393.36,207.126 394.08,207.303 394.8,207.45 395.52,207.553 396.24,207.627 396.96,207.671 397.68,207.686 398.4,207.671 399.12,207.627 399.84,207.539 400.56,207.421 401.28,207.288 402,207.126 402.72,206.935 403.44,206.728 404.16,206.507 404.88,206.272 405.6,206.021 406.32,205.771 407.04,205.52 407.76,205.255 408.48,204.99 409.2,204.739 409.92,204.504 410.64,204.268 411.36,204.047 412.08,203.855 412.8,203.679 413.52,203.517 414.24,203.384 414.96,203.266 415.68,203.178 416.4,203.133 417.12,203.089 417.84,203.089 418.56,203.119 419.28,203.163 420,203.237 " />
</g>

<g fill="#0072bd" fill-opacity="1" stroke="#0072bd" stroke-opacity="1" stroke-dasharray="8,8" stroke-dashoffset="0" stroke-width="2.4" stroke-linecap="butt" stroke-linejoin="round" transform="matrix(0.75,0,0,0.75,0,0)"
font-family="Arial" font-size="13" font-weight="400" font-style="normal" 
>
<polyline fill="none" vector-effect="none" points="442,30.5 482,30.5 " />
</g>

<g fill="#d95319" fill-opacity="1" stroke="#d95319" stroke-opacity="1" stroke-width="2.4" stroke-linecap="butt" stroke-linejoin="round" transform="matrix(0.75,0,0,0.75,0,0)"
font-family="Arial" font-size="13" font-weight="400" font-style="normal" 
>
<polyline fill="none" vector-effect="none" points="442,46 482,46 " />
</g>

<g fill="#009980" fill-opacity="1" stroke="#009980" stroke-opacity="1" stroke-width="2.4" stroke-linecap="butt" stroke-linejoin="round" transform="matrix(0.75,0,0,0.75,0,0)"
font-family="Arial" font-size="13" font-weight="400" font-style="normal" 
>
<polyline fill="none" vector-effect="none" points="442,61.5 482,61.5 " />
</g>

<g fill="#262626" fill-opacity="1" stroke="#262626" stroke-opacity="1" stroke-width="1" stroke-linecap="square" stroke-linejoin="bevel" transform="matrix(0.75,0,0,0.75,363.75,26.25)"
font-family="Arial" font-size="13" font-weight="400" font-style="normal" 
>
<text fill="#262626" fill-opacity="1" stroke="none" xml:space="preserve" x="0" y="0" font-family="Arial" font-size="13" font-weight="400" font-style="normal" 
 >Reference</text>
</g>

<g fill="#262626" fill-opacity="1" stroke="#262626" stroke-opacity="1" stroke-width="1" stroke-linecap="square" stroke-linejoin="bevel" transform="matrix(0.75,0,0,0.75,363.75,37.875)"
font-family="Arial" font-size="13" font-weight="400" font-style="normal" 
>
<text fill="#262626" fill-opacity="1" stroke="none" xml:space="preserve" x="0" y="0" font-family="Arial" font-size="13" font-weight="400" font-style="normal" 
 >Response</text>
</g>

<g fill="#262626" fill-opacity="1" stroke="#262626" stroke-opacity="1" stroke-width="1" stroke-linecap="square" stroke-linejoin="bevel" transform="matrix(0.75,0,0,0.75,363.75,49.5)"
font-family="Arial" font-size="13" font-weight="400" font-style="normal" 
>
<text fill="#262626" fill-opacity="1" stroke="none" xml:space="preserve" x="0" y="0" font-family="Arial" font-size="13" font-weight="400" font-style="normal" 
 >Disturbance</text>
</g>
</g>
</svg>
