<?xml version="1.0" encoding="UTF-8" standalone="no"?>
<svg width="201.083mm" height="121.003mm"
 viewBox="0 0 570 343"
 xmlns="http://www.w3.org/2000/svg" xmlns:xlink="http://www.w3.org/1999/xlink"  version="1.2" baseProfile="tiny">
<title>Qt SVG Document</title>
<desc>MATLAB, The MathWorks, Inc. Version 25.2.0.3123386 R2025b Update 3</desc>
<defs>
</defs>
<g fill="none" stroke="black" stroke-width="1" fill-rule="evenodd" stroke-linecap="square" stroke-linejoin="bevel" >

<g fill="#ffffff" fill-opacity="1" stroke="none" transform="matrix(0.75,0,0,0.75,0,0)"
font-family="Microsoft YaHei UI" font-size="9" font-weight="400" font-style="normal" 
>
<path vector-effect="none" fill-rule="evenodd" d="M0,0 L760,0 L760,458 L0,458 L0,0"/>
</g>

<g fill="#ffffff" fill-opacity="1" stroke="none" transform="matrix(7.5e-05,0,0,7.5e-05,0,0)"
font-family="Microsoft YaHei UI" font-size="9" font-weight="400" font-style="normal" 
>
<path vector-effect="none" fill-rule="evenodd" d="M990000,340000 L990000,4.07e+06 L6.87e+06,4.07e+06 L6.87e+06,340000 L990000,340000"/>
</g>

<g fill="#000000" fill-opacity="1" stroke="#000000" stroke-opacity="1" stroke-width="1" stroke-linecap="square" stroke-linejoin="bevel" transform="matrix(0.75,0,0,0.75,275.25,331.25)"
font-family="Helvetica" font-size="14" font-weight="400" font-style="normal" 
>
<text fill="#000000" fill-opacity="1" stroke="none" xml:space="preserve" x="0" y="0" font-family="Helvetica" font-size="14" font-weight="400" font-style="normal" 
 >Time (s)</text>
</g>

<g fill="#000000" fill-opacity="1" stroke="#000000" stroke-opacity="1" stroke-width="0.666667" stroke-linecap="square" stroke-linejoin="round" transform="matrix(0.75,0,0,0.75,0,0)"
font-family="Helvetica" font-size="14" font-weight="400" font-style="normal" 
>
<polyline fill="none" vector-effect="none" points="99,407 687,407 " />
<polyline fill="none" vector-effect="none" points="99,34 687,34 " />
<polyline fill="none" vector-effect="none" points="99,407 99,401.12 " />
<polyline fill="none" vector-effect="none" points="99,39.88 99,34 " />
<polyline fill="none" vector-effect="none" points="157.8,407 157.8,401.12 " />
<polyline fill="none" vector-effect="none" points="157.8,39.88 157.8,34 " />
<polyline fill="none" vector-effect="none" points="216.6,407 216.6,401.12 " />
<polyline fill="none" vector-effect="none" points="216.6,39.88 216.6,34 " />
<polyline fill="none" vector-effect="none" points="275.4,407 275.4,401.12 " />
<polyline fill="none" vector-effect="none" points="275.4,39.88 275.4,34 " />
<polyline fill="none" vector-effect="none" points="334.2,407 334.2,401.12 " />
<polyline fill="none" vector-effect="none" points="334.2,39.88 334.2,34 " />
<polyline fill="none" vector-effect="none" points="393,407 393,401.12 " />
<polyline fill="none" vector-effect="none" points="393,39.88 393,34 " />
<polyline fill="none" vector-effect="none" points="451.8,407 451.8,401.12 " />
<polyline fill="none" vector-effect="none" points="451.8,39.88 451.8,34 " />
<polyline fill="none" vector-effect="none" points="510.6,407 510.6,401.12 " />
<polyline fill="none" vector-effect="none" points="510.6,39.88 510.6,34 " />
<polyline fill="none" vector-effect="none" points="569.4,407 569.4,401.12 " />
<polyline fill="none" vector-effect="none" points="569.4,39.88 569.4,34 " />
<polyline fill="none" vector-effect="none" points="628.2,407 628.2,401.12 " />
<polyline fill="none" vector-effect="none" points="628.2,39.88 628.2,34 " />
<polyline fill="none" vector-effect="none" points="687,407 687,401.12 " />
<polyline fill="none" vector-effect="none" points="687,39.88 687,34 " />
</g>

<g fill="#000000" fill-opacity="1" stroke="#000000" stroke-opacity="1" stroke-width="1" stroke-linecap="square" stroke-linejoin="bevel" transform="matrix(0.75,0,0,0.75,71.625,318.25)"
font-family="Helvetica" font-size="13" font-weight="400" font-style="normal" 
>
<text fill="#000000" fill-opacity="1" stroke="none" xml:space="preserve" x="0" y="0" font-family="Helvetica" font-size="13" font-weight="400" font-style="normal" 
 >0</text>
</g>

<g fill="#000000" fill-opacity="1" stroke="#000000" stroke-opacity="1" stroke-width="1" stroke-linecap="square" stroke-linejoin="bevel" transform="matrix(0.75,0,0,0.75,115.725,318.25)"
font-family="Helvetica" font-size="13" font-weight="400" font-style="normal" 
>
<text fill="#000000" fill-opacity="1" stroke="none" xml:space="preserve" x="0" y="0" font-family="Helvetica" font-size="13" font-weight="400" font-style="normal" 
 >1</text>
</g>

<g fill="#000000" fill-opacity="1" stroke="#000000" stroke-opacity="1" stroke-width="1" stroke-linecap="square" stroke-linejoin="bevel" transform="matrix(0.75,0,0,0.75,159.825,318.25)"
font-family="Helvetica" font-size="13" font-weight="400" font-style="normal" 
>
<text fill="#000000" fill-opacity="1" stroke="none" xml:space="preserve" x="0" y="0" font-family="Helvetica" font-size="13" font-weight="400" font-style="normal" 
 >2</text>
</g>

<g fill="#000000" fill-opacity="1" stroke="#000000" stroke-opacity="1" stroke-width="1" stroke-linecap="square" stroke-linejoin="bevel" transform="matrix(0.75,0,0,0.75,203.925,318.25)"
font-family="Helvetica" font-size="13" font-weight="400" font-style="normal" 
>
<text fill="#000000" fill-opacity="1" stroke="none" xml:space="preserve" x="0" y="0" font-family="Helvetica" font-size="13" font-weight="400" font-style="normal" 
 >3</text>
</g>

<g fill="#000000" fill-opacity="1" stroke="#000000" stroke-opacity="1" stroke-width="1" stroke-linecap="square" stroke-linejoin="bevel" transform="matrix(0.75,0,0,0.75,248.025,318.25)"
font-family="Helvetica" font-size="13" font-weight="400" font-style="normal" 
>
<text fill="#000000" fill-opacity="1" stroke="none" xml:space="preserve" x="0" y="0" font-family="Helvetica" font-size="13" font-weight="400" font-style="normal" 
 >4</text>
</g>

<g fill="#000000" fill-opacity="1" stroke="#000000" stroke-opacity="1" stroke-width="1" stroke-linecap="square" stroke-linejoin="bevel" transform="matrix(0.75,0,0,0.75,292.125,318.25)"
font-family="Helvetica" font-size="13" font-weight="400" font-style="normal" 
>
<text fill="#000000" fill-opacity="1" stroke="none" xml:space="preserve" x="0" y="0" font-family="Helvetica" font-size="13" font-weight="400" font-style="normal" 
 >5</text>
</g>

<g fill="#000000" fill-opacity="1" stroke="#000000" stroke-opacity="1" stroke-width="1" stroke-linecap="square" stroke-linejoin="bevel" transform="matrix(0.75,0,0,0.75,336.225,318.25)"
font-family="Helvetica" font-size="13" font-weight="400" font-style="normal" 
>
<text fill="#000000" fill-opacity="1" stroke="none" xml:space="preserve" x="0" y="0" font-family="Helvetica" font-size="13" font-weight="400" font-style="normal" 
 >6</text>
</g>

<g fill="#000000" fill-opacity="1" stroke="#000000" stroke-opacity="1" stroke-width="1" stroke-linecap="square" stroke-linejoin="bevel" transform="matrix(0.75,0,0,0.75,380.325,318.25)"
font-family="Helvetica" font-size="13" font-weight="400" font-style="normal" 
>
<text fill="#000000" fill-opacity="1" stroke="none" xml:space="preserve" x="0" y="0" font-family="Helvetica" font-size="13" font-weight="400" font-style="normal" 
 >7</text>
</g>

<g fill="#000000" fill-opacity="1" stroke="#000000" stroke-opacity="1" stroke-width="1" stroke-linecap="square" stroke-linejoin="bevel" transform="matrix(0.75,0,0,0.75,424.425,318.25)"
font-family="Helvetica" font-size="13" font-weight="400" font-style="normal" 
>
<text fill="#000000" fill-opacity="1" stroke="none" xml:space="preserve" x="0" y="0" font-family="Helvetica" font-size="13" font-weight="400" font-style="normal" 
 >8</text>
</g>

<g fill="#000000" fill-opacity="1" stroke="#000000" stroke-opacity="1" stroke-width="1" stroke-linecap="square" stroke-linejoin="bevel" transform="matrix(0.75,0,0,0.75,468.525,318.25)"
font-family="Helvetica" font-size="13" font-weight="400" font-style="normal" 
>
<text fill="#000000" fill-opacity="1" stroke="none" xml:space="preserve" x="0" y="0" font-family="Helvetica" font-size="13" font-weight="400" font-style="normal" 
 >9</text>
</g>

<g fill="#000000" fill-opacity="1" stroke="#000000" stroke-opacity="1" stroke-width="1" stroke-linecap="square" stroke-linejoin="bevel" transform="matrix(0.75,0,0,0.75,510,318.25)"
font-family="Helvetica" font-size="13" font-weight="400" font-style="normal" 
>
<text fill="#000000" fill-opacity="1" stroke="none" xml:space="preserve" x="0" y="0" font-family="Helvetica" font-size="13" font-weight="400" font-style="normal" 
 >10</text>
</g>

<g fill="#000000" fill-opacity="1" stroke="#000000" stroke-opacity="1" stroke-width="1" stroke-linecap="square" stroke-linejoin="bevel" transform="matrix(0,-0.75,0.75,0,47.75,189.375)"
font-family="Helvetica" font-size="14" font-weight="400" font-style="normal" 
>
<text fill="#000000" fill-opacity="1" stroke="none" xml:space="preserve" x="0" y="0" font-family="Helvetica" font-size="14" font-weight="400" font-style="normal" 
 >Response</text>
</g>

<g fill="#000000" fill-opacity="1" stroke="#000000" stroke-opacity="1" stroke-width="0.666667" stroke-linecap="square" stroke-linejoin="round" transform="matrix(0.75,0,0,0.75,0,0)"
font-family="Helvetica" font-size="14" font-weight="400" font-style="normal" 
>
<polyline fill="none" vector-effect="none" points="99,407 99,34 " />
<polyline fill="none" vector-effect="none" points="687,407 687,34 " />
<polyline fill="none" vector-effect="none" points="99,407 104.88,407 " />
<polyline fill="none" vector-effect="none" points="681.12,407 687,407 " />
<polyline fill="none" vector-effect="none" points="99,365.556 104.88,365.556 " />
<polyline fill="none" vector-effect="none" points="681.12,365.556 687,365.556 " />
<polyline fill="none" vector-effect="none" points="99,324.111 104.88,324.111 " />
<polyline fill="none" vector-effect="none" points="681.12,324.111 687,324.111 " />
<polyline fill="none" vector-effect="none" points="99,282.667 104.88,282.667 " />
<polyline fill="none" vector-effect="none" points="681.12,282.667 687,282.667 " />
<polyline fill="none" vector-effect="none" points="99,241.222 104.88,241.222 " />
<polyline fill="none" vector-effect="none" points="681.12,241.222 687,241.222 " />
<polyline fill="none" vector-effect="none" points="99,199.778 104.88,199.778 " />
<polyline fill="none" vector-effect="none" points="681.12,199.778 687,199.778 " />
<polyline fill="none" vector-effect="none" points="99,158.333 104.88,158.333 " />
<polyline fill="none" vector-effect="none" points="681.12,158.333 687,158.333 " />
<polyline fill="none" vector-effect="none" points="99,116.889 104.88,116.889 " />
<polyline fill="none" vector-effect="none" points="681.12,116.889 687,116.889 " />
<polyline fill="none" vector-effect="none" points="99,75.4445 104.88,75.4445 " />
<polyline fill="none" vector-effect="none" points="681.12,75.4445 687,75.4445 " />
<polyline fill="none" vector-effect="none" points="99,34 104.88,34 " />
<polyline fill="none" vector-effect="none" points="681.12,34 687,34 " />
</g>

<g fill="#000000" fill-opacity="1" stroke="#000000" stroke-opacity="1" stroke-width="1" stroke-linecap="square" stroke-linejoin="bevel" transform="matrix(0.75,0,0,0.75,53.75,308.625)"
font-family="Helvetica" font-size="13" font-weight="400" font-style="normal" 
>
<text fill="#000000" fill-opacity="1" stroke="none" xml:space="preserve" x="0" y="0" font-family="Helvetica" font-size="13" font-weight="400" font-style="normal" 
 >-0.2</text>
</g>

<g fill="#000000" fill-opacity="1" stroke="#000000" stroke-opacity="1" stroke-width="1" stroke-linecap="square" stroke-linejoin="bevel" transform="matrix(0.75,0,0,0.75,65,277.542)"
font-family="Helvetica" font-size="13" font-weight="400" font-style="normal" 
>
<text fill="#000000" fill-opacity="1" stroke="none" xml:space="preserve" x="0" y="0" font-family="Helvetica" font-size="13" font-weight="400" font-style="normal" 
 >0</text>
</g>

<g fill="#000000" fill-opacity="1" stroke="#000000" stroke-opacity="1" stroke-width="1" stroke-linecap="square" stroke-linejoin="bevel" transform="matrix(0.75,0,0,0.75,56.75,246.458)"
font-family="Helvetica" font-size="13" font-weight="400" font-style="normal" 
>
<text fill="#000000" fill-opacity="1" stroke="none" xml:space="preserve" x="0" y="0" font-family="Helvetica" font-size="13" font-weight="400" font-style="normal" 
 >0.2</text>
</g>

<g fill="#000000" fill-opacity="1" stroke="#000000" stroke-opacity="1" stroke-width="1" stroke-linecap="square" stroke-linejoin="bevel" transform="matrix(0.75,0,0,0.75,56.75,215.375)"
font-family="Helvetica" font-size="13" font-weight="400" font-style="normal" 
>
<text fill="#000000" fill-opacity="1" stroke="none" xml:space="preserve" x="0" y="0" font-family="Helvetica" font-size="13" font-weight="400" font-style="normal" 
 >0.4</text>
</g>

<g fill="#000000" fill-opacity="1" stroke="#000000" stroke-opacity="1" stroke-width="1" stroke-linecap="square" stroke-linejoin="bevel" transform="matrix(0.75,0,0,0.75,56.75,184.292)"
font-family="Helvetica" font-size="13" font-weight="400" font-style="normal" 
>
<text fill="#000000" fill-opacity="1" stroke="none" xml:space="preserve" x="0" y="0" font-family="Helvetica" font-size="13" font-weight="400" font-style="normal" 
 >0.6</text>
</g>

<g fill="#000000" fill-opacity="1" stroke="#000000" stroke-opacity="1" stroke-width="1" stroke-linecap="square" stroke-linejoin="bevel" transform="matrix(0.75,0,0,0.75,56.75,153.208)"
font-family="Helvetica" font-size="13" font-weight="400" font-style="normal" 
>
<text fill="#000000" fill-opacity="1" stroke="none" xml:space="preserve" x="0" y="0" font-family="Helvetica" font-size="13" font-weight="400" font-style="normal" 
 >0.8</text>
</g>

<g fill="#000000" fill-opacity="1" stroke="#000000" stroke-opacity="1" stroke-width="1" stroke-linecap="square" stroke-linejoin="bevel" transform="matrix(0.75,0,0,0.75,65,122.125)"
font-family="Helvetica" font-size="13" font-weight="400" font-style="normal" 
>
<text fill="#000000" fill-opacity="1" stroke="none" xml:space="preserve" x="0" y="0" font-family="Helvetica" font-size="13" font-weight="400" font-style="normal" 
 >1</text>
</g>

<g fill="#000000" fill-opacity="1" stroke="#000000" stroke-opacity="1" stroke-width="1" stroke-linecap="square" stroke-linejoin="bevel" transform="matrix(0.75,0,0,0.75,56.75,91.0417)"
font-family="Helvetica" font-size="13" font-weight="400" font-style="normal" 
>
<text fill="#000000" fill-opacity="1" stroke="none" xml:space="preserve" x="0" y="0" font-family="Helvetica" font-size="13" font-weight="400" font-style="normal" 
 >1.2</text>
</g>

<g fill="#000000" fill-opacity="1" stroke="#000000" stroke-opacity="1" stroke-width="1" stroke-linecap="square" stroke-linejoin="bevel" transform="matrix(0.75,0,0,0.75,56.75,59.9583)"
font-family="Helvetica" font-size="13" font-weight="400" font-style="normal" 
>
<text fill="#000000" fill-opacity="1" stroke="none" xml:space="preserve" x="0" y="0" font-family="Helvetica" font-size="13" font-weight="400" font-style="normal" 
 >1.4</text>
</g>

<g fill="#000000" fill-opacity="1" stroke="#000000" stroke-opacity="1" stroke-width="1" stroke-linecap="square" stroke-linejoin="bevel" transform="matrix(0.75,0,0,0.75,56.75,28.875)"
font-family="Helvetica" font-size="13" font-weight="400" font-style="normal" 
>
<text fill="#000000" fill-opacity="1" stroke="none" xml:space="preserve" x="0" y="0" font-family="Helvetica" font-size="13" font-weight="400" font-style="normal" 
 >1.6</text>
</g>

<g fill="none" stroke="#268cdd" stroke-opacity="1" stroke-width="0.666667" stroke-linecap="butt" stroke-linejoin="round" transform="matrix(0.75,0,0,0.75,0,0)"
font-family="Helvetica" font-size="13" font-weight="400" font-style="normal" 
>
<polyline fill="none" vector-effect="none" points="99,365.556 100.176,367.752 101.352,369.659 102.528,371.275 103.704,372.622 104.88,373.658 106.056,374.445 107.232,374.922 108.408,375.15 109.584,375.108 110.76,374.798 111.936,374.238 113.112,373.43 114.288,372.352 115.464,371.047 116.64,369.493 117.816,367.731 118.992,365.721 120.168,363.504 121.344,361.08 122.52,358.427 123.696,355.588 124.872,352.563 126.048,349.351 127.224,345.952 128.4,342.388 129.576,338.658 130.752,334.762 131.928,330.721 133.104,326.536 134.28,322.225 135.456,317.791 136.632,313.232 137.808,308.549 138.984,303.762 140.16,298.892 141.336,293.919 142.512,288.863 143.688,283.744 144.864,278.564 146.04,273.3 147.216,267.995 148.392,262.649 149.568,257.261 150.744,251.853 151.92,246.424 153.096,240.953 154.272,235.482 155.448,230.012 156.624,224.562 157.8,219.112 158.976,213.662 160.152,208.253 161.328,202.865 162.504,197.519 163.68,192.214 164.856,186.951 166.032,181.749 167.208,176.59 168.384,171.513 169.56,166.498 170.736,161.545 171.912,156.676 173.088,151.889 174.264,147.206 175.44,142.605 176.616,138.088 177.792,133.695 178.968,129.384 180.144,125.178 181.32,121.095 182.496,117.117 183.672,113.263 184.848,109.533 186.024,105.906 187.2,102.425 188.376,99.0471 189.552,95.8144 190.728,92.7061 191.904,89.7428 193.08,86.8831 194.256,84.1892 195.432,81.5989 196.608,79.1745 197.784,76.8743 198.96,74.6984 200.136,72.6884 201.312,70.8027 202.488,69.0413 203.664,67.4249 204.84,65.9537 206.016,64.6274 207.192,63.4256 208.368,62.348 209.544,61.4155 210.72,60.628 211.896,59.965 213.072,59.4262 214.248,59.0117 215.424,58.7423 216.6,58.5766 217.776,58.5558 218.952,58.6387 220.128,58.8667 221.304,59.1982 222.48,59.6334 223.656,60.1929 224.832,60.856 226.008,61.6435 227.184,62.5138 228.36,63.5084 229.536,64.586 230.712,65.7672 231.888,67.0312 233.064,68.3782 234.24,69.8287 235.416,71.3622 236.592,72.9785 237.768,74.657 238.944,76.4184 240.12,78.2627 241.296,80.1484 242.472,82.117 243.648,84.127 244.824,86.22 246,88.3337 247.176,90.5302 248.352,92.7475 249.528,95.0269 250.704,97.3271 251.88,99.6687 253.056,102.052 254.232,104.456 255.408,106.88 256.584,109.346 257.76,111.812 258.936,114.299 260.112,116.806 261.288,119.313 262.464,121.821 263.64,124.328 264.816,126.856 265.992,129.364 267.168,131.871 268.344,134.378 269.52,136.844 270.696,139.31 271.872,141.776 273.048,144.201 274.224,146.605 275.4,148.988 276.576,151.35 277.752,153.671 278.928,155.95 280.104,158.209 281.28,160.426 282.456,162.602 283.632,164.736 284.808,166.829 285.984,168.86 287.16,170.87 288.336,172.818 289.512,174.725 290.688,176.569 291.864,178.372 293.04,180.112 294.216,181.791 295.392,183.428 296.568,185.003 297.744,186.516 298.92,187.966 300.096,189.354 301.272,190.701 302.448,191.965 303.624,193.167 304.8,194.328 305.976,195.405 307.152,196.421 308.328,197.374 309.504,198.286 310.68,199.115 311.856,199.881 313.032,200.586 314.208,201.228 315.384,201.788 316.56,202.306 317.736,202.762 318.912,203.156 320.088,203.487 321.264,203.756 322.44,203.964 323.616,204.129 324.792,204.212 325.968,204.254 327.144,204.233 328.32,204.15 329.496,204.026 330.672,203.839 331.848,203.611 333.024,203.321 334.2,202.969 335.376,202.596 336.552,202.161 337.728,201.684 338.904,201.166 340.08,200.586 341.256,199.985 342.432,199.322 343.608,198.638 344.784,197.913 345.96,197.146 347.136,196.359 348.312,195.53 349.488,194.659 350.664,193.768 351.84,192.857 353.016,191.903 354.192,190.929 355.368,189.935 356.544,188.919 357.72,187.883 358.896,186.826 360.072,185.77 361.248,184.671 362.424,183.573 363.6,182.454 364.776,181.335 365.952,180.195 367.128,179.056 368.304,177.916 369.48,176.755 370.656,175.595 371.832,174.435 373.008,173.274 374.184,172.134 375.36,170.974 376.536,169.813 377.712,168.674 378.888,167.534 380.064,166.394 381.24,165.275 382.416,164.177 383.592,163.079 384.768,161.98 385.944,160.903 387.12,159.846 388.296,158.81 389.472,157.774 390.648,156.779 391.824,155.785 393,154.811 394.176,153.857 395.352,152.925 396.528,152.013 397.704,151.143 398.88,150.272 400.056,149.444 401.232,148.635 402.408,147.848 403.584,147.081 404.76,146.356 405.936,145.651 407.112,144.967 408.288,144.304 409.464,143.683 410.64,143.082 411.816,142.522 412.992,141.984 414.168,141.465 415.344,140.989 416.52,140.533 417.696,140.118 418.872,139.725 420.048,139.352 421.224,139.02 422.4,138.709 423.576,138.44 424.752,138.191 425.928,137.963 427.104,137.777 428.28,137.611 429.456,137.487 430.632,137.362 431.808,137.28 432.984,137.238 434.16,137.217 435.336,137.197 436.512,137.238 437.688,137.28 438.864,137.362 440.04,137.445 441.216,137.57 442.392,137.715 443.568,137.901 444.744,138.088 445.92,138.295 447.096,138.523 448.272,138.792 449.448,139.062 450.624,139.352 451.8,139.663 452.976,139.973 454.152,140.326 455.328,140.699 456.504,141.072 457.68,141.465 458.856,141.859 460.032,142.274 461.208,142.709 462.384,143.144 463.56,143.6 464.736,144.076 465.912,144.532 467.088,145.03 468.264,145.506 469.44,146.004 470.616,146.522 471.792,147.019 472.968,147.537 474.144,148.055 475.32,148.594 476.496,149.112 477.672,149.651 478.848,150.169 480.024,150.708 481.2,151.246 482.376,151.764 483.552,152.303 484.728,152.842 485.904,153.36 487.08,153.899 488.256,154.417 489.432,154.935 490.608,155.453 491.784,155.95 492.96,156.448 494.136,156.945 495.312,157.442 496.488,157.919 497.664,158.395 498.84,158.872 500.016,159.328 501.192,159.784 502.368,160.219 503.544,160.654 504.72,161.069 505.896,161.483 507.072,161.877 508.248,162.271 509.424,162.644 510.6,163.017 511.776,163.369 512.952,163.721 514.128,164.053 515.304,164.363 516.48,164.674 517.656,164.964 518.832,165.234 520.008,165.503 521.184,165.752 522.36,166.001 523.536,166.229 524.712,166.436 525.888,166.643 527.064,166.829 528.24,166.995 529.416,167.161 530.592,167.306 531.768,167.43 532.944,167.555 534.12,167.658 535.296,167.762 536.472,167.845 537.648,167.907 538.824,167.969 540,168.011 541.176,168.031 542.352,168.052 543.528,168.052 544.704,168.052 545.88,168.031 547.056,168.011 548.232,167.969 549.408,167.907 550.584,167.845 551.76,167.762 552.936,167.679 554.112,167.596 555.288,167.493 556.464,167.368 557.64,167.265 558.816,167.12 559.992,166.995 561.168,166.829 562.344,166.684 563.52,166.519 564.696,166.353 565.872,166.166 567.048,165.98 568.224,165.793 569.4,165.607 570.576,165.4 571.752,165.192 572.928,164.985 574.104,164.757 575.28,164.55 576.456,164.322 577.632,164.094 578.808,163.866 579.984,163.638 581.16,163.39 582.336,163.162 583.512,162.913 584.688,162.664 585.864,162.436 587.04,162.188 588.216,161.939 589.392,161.69 590.568,161.442 591.744,161.214 592.92,160.965 594.096,160.716 595.272,160.468 596.448,160.24 597.624,159.991 598.8,159.763 599.976,159.514 601.152,159.287 602.328,159.059 603.504,158.831 604.68,158.603 605.856,158.395 607.032,158.168 608.208,157.96 609.384,157.753 610.56,157.546 611.736,157.339 612.912,157.152 614.088,156.966 615.264,156.779 616.44,156.593 617.616,156.406 618.792,156.24 619.968,156.075 621.144,155.93 622.32,155.764 623.496,155.619 624.672,155.474 625.848,155.329 627.024,155.204 628.2,155.08 629.376,154.956 630.552,154.852 631.728,154.748 632.904,154.645 634.08,154.541 635.256,154.458 636.432,154.375 637.608,154.292 638.784,154.23 639.96,154.168 641.136,154.106 642.312,154.065 643.488,154.002 644.664,153.982 645.84,153.94 647.016,153.92 648.192,153.899 649.368,153.878 650.544,153.857 651.72,153.857 652.896,153.857 654.072,153.857 655.248,153.878 656.424,153.899 657.6,153.92 658.776,153.94 659.952,153.982 661.128,154.002 662.304,154.044 663.48,154.106 664.656,154.147 665.832,154.21 667.008,154.272 668.184,154.334 669.36,154.396 670.536,154.458 671.712,154.541 672.888,154.603 674.064,154.686 675.24,154.769 676.416,154.873 677.592,154.956 678.768,155.038 679.944,155.142 681.12,155.225 682.296,155.329 683.472,155.432 684.648,155.536 685.824,155.639 687,155.743 " />
</g>

<g fill="none" stroke="#f57729" stroke-opacity="1" stroke-width="0.666667" stroke-linecap="butt" stroke-linejoin="round" transform="matrix(0.75,0,0,0.75,0,0)"
font-family="Helvetica" font-size="13" font-weight="400" font-style="normal" 
>
<polyline fill="none" vector-effect="none" points="99,365.556 100.176,364.747 101.352,363.442 102.528,361.639 103.704,359.401 104.88,356.707 106.056,353.578 107.232,350.076 108.408,346.201 109.584,341.994 110.76,337.435 111.936,332.586 113.112,327.468 114.288,322.08 115.464,316.465 116.64,310.642 117.816,304.632 118.992,298.457 120.168,292.137 121.344,285.692 122.52,279.144 123.696,272.534 124.872,265.84 126.048,259.126 127.224,252.371 128.4,245.615 129.576,238.881 130.752,232.167 131.928,225.515 133.104,218.925 134.28,212.398 135.456,205.974 136.632,199.633 137.808,193.437 138.984,187.344 140.16,181.418 141.336,175.616 142.512,170 143.688,164.529 144.864,159.245 146.04,154.147 147.216,149.236 148.392,144.532 149.568,140.015 150.744,135.725 151.92,131.622 153.096,127.747 154.272,124.1 155.448,120.64 156.624,117.428 157.8,114.423 158.976,111.625 160.152,109.056 161.328,106.714 162.504,104.58 163.68,102.673 164.856,100.953 166.032,99.4615 167.208,98.1767 168.384,97.0784 169.56,96.1874 170.736,95.4828 171.912,94.9648 173.088,94.6332 174.264,94.4674 175.44,94.4674 176.616,94.654 177.792,94.9855 178.968,95.4828 180.144,96.1045 181.32,96.8712 182.496,97.783 183.672,98.7984 184.848,99.9381 186.024,101.202 187.2,102.549 188.376,104 189.552,105.554 190.728,107.17 191.904,108.869 193.08,110.631 194.256,112.454 195.432,114.34 196.608,116.267 197.784,118.236 198.96,120.225 200.136,122.256 201.312,124.307 202.488,126.38 203.664,128.452 204.84,130.524 206.016,132.596 207.192,134.669 208.368,136.72 209.544,138.772 210.72,140.782 211.896,142.792 213.072,144.74 214.248,146.667 215.424,148.573 216.6,150.417 217.776,152.22 218.952,153.961 220.128,155.681 221.304,157.318 222.48,158.914 223.656,160.468 224.832,161.939 226.008,163.348 227.184,164.716 228.36,166.001 229.536,167.223 230.712,168.384 231.888,169.461 233.064,170.497 234.24,171.451 235.416,172.342 236.592,173.15 237.768,173.916 238.944,174.6 240.12,175.222 241.296,175.761 242.472,176.258 243.648,176.693 244.824,177.046 246,177.356 247.176,177.605 248.352,177.771 249.528,177.916 250.704,177.978 251.88,177.999 253.056,177.978 254.232,177.895 255.408,177.75 256.584,177.584 257.76,177.356 258.936,177.108 260.112,176.818 261.288,176.465 262.464,176.092 263.64,175.699 264.816,175.263 265.992,174.808 267.168,174.31 268.344,173.792 269.52,173.274 270.696,172.715 271.872,172.134 273.048,171.554 274.224,170.953 275.4,170.352 276.576,166.001 277.752,161.753 278.928,157.65 280.104,153.733 281.28,150.024 282.456,146.584 283.632,143.434 284.808,140.616 285.984,138.15 287.16,136.036 288.336,134.316 289.512,132.99 290.688,132.078 291.864,131.54 293.04,131.415 294.216,131.664 295.392,132.286 296.568,133.259 297.744,134.565 298.92,136.161 300.096,138.026 301.272,140.139 302.448,142.46 303.624,144.947 304.8,147.558 305.976,150.252 307.152,152.987 308.328,155.743 309.504,158.458 310.68,161.11 311.856,163.659 313.032,166.063 314.208,168.301 315.384,170.331 316.56,172.134 317.736,173.689 318.912,174.994 320.088,175.989 321.264,176.714 322.44,177.128 323.616,177.253 324.792,177.066 325.968,176.59 327.144,175.823 328.32,174.787 329.496,173.481 330.672,171.948 331.848,170.207 333.024,168.28 334.2,166.166 335.376,163.949 336.552,161.628 337.728,159.224 338.904,156.779 340.08,154.355 341.256,151.93 342.432,149.589 343.608,147.309 344.784,145.175 345.96,143.165 347.136,141.341 348.312,139.704 349.488,138.274 350.664,137.072 351.84,136.119 353.016,135.415 354.192,134.979 355.368,134.814 356.544,134.896 357.72,135.249 358.896,135.85 360.072,136.72 361.248,137.798 362.424,139.124 363.6,140.637 364.776,142.315 365.952,144.18 367.128,146.169 368.304,148.262 369.48,150.459 370.656,152.697 371.832,154.956 373.008,157.235 374.184,159.494 375.36,161.69 376.536,163.804 377.712,165.814 378.888,167.7 380.064,169.461 381.24,171.036 382.416,172.445 383.592,173.647 384.768,174.662 385.944,175.45 387.12,176.009 388.296,176.362 389.472,176.486 390.648,176.382 391.824,176.072 393,175.533 394.176,174.828 395.352,173.916 396.528,172.839 397.704,171.616 398.88,170.249 400.056,168.757 401.232,167.182 402.408,165.545 403.584,163.845 404.76,162.126 405.936,160.385 407.112,158.665 408.288,157.007 409.464,155.391 410.64,153.837 411.816,152.407 412.992,151.081 414.168,149.879 415.344,148.822 416.52,147.931 417.696,147.185 418.872,146.625 420.048,146.232 421.224,146.004 422.4,145.983 423.576,146.107 424.752,146.418 425.928,146.874 427.104,147.496 428.28,148.262 429.456,149.153 430.632,150.169 431.808,151.267 432.984,152.469 434.16,153.733 435.336,155.059 436.512,156.406 437.688,157.774 438.864,159.141 440.04,160.488 441.216,161.794 442.392,163.037 443.568,164.218 444.744,165.296 445.92,166.291 447.096,167.182 448.272,167.928 449.448,168.57 450.624,169.067 451.8,169.42 452.976,169.627 454.152,169.689 455.328,169.606 456.504,169.378 457.68,169.005 458.856,168.508 460.032,167.907 461.208,167.161 462.384,166.332 463.56,165.4 464.736,164.384 465.912,163.307 467.088,162.167 468.264,161.007 469.44,159.825 470.616,158.623 471.792,157.442 472.968,156.282 474.144,155.163 475.32,154.085 476.496,153.07 477.672,152.137 478.848,151.288 480.024,150.521 481.2,149.879 482.376,149.34 483.552,148.925 484.728,148.615 485.904,148.449 487.08,148.387 488.256,148.449 489.432,148.635 490.608,148.925 491.784,149.34 492.96,149.858 494.136,150.459 495.312,151.163 496.488,151.93 497.664,152.759 498.84,153.65 500.016,154.583 501.192,155.557 502.368,156.531 503.544,157.504 504.72,158.499 505.896,159.452 507.072,160.364 508.248,161.255 509.424,162.084 510.6,162.851 511.776,163.555 512.952,164.177 514.128,164.695 515.304,165.13 516.48,165.482 517.656,165.731 518.832,165.876 520.008,165.918 521.184,165.876 522.36,165.71 523.536,165.482 524.712,165.151 525.888,164.736 527.064,164.239 528.24,163.68 529.416,163.058 530.592,162.374 531.768,161.67 532.944,160.924 534.12,160.157 535.296,159.369 536.472,158.582 537.648,157.795 538.824,157.049 540,156.323 541.176,155.619 542.352,154.976 543.528,154.375 544.704,153.837 545.88,153.36 547.056,152.966 548.232,152.635 549.408,152.407 550.584,152.241 551.76,152.158 552.936,152.158 554.112,152.22 555.288,152.386 556.464,152.614 557.64,152.925 558.816,153.298 559.992,153.712 561.168,154.21 562.344,154.728 563.52,155.308 564.696,155.909 565.872,156.551 567.048,157.194 568.224,157.836 569.4,158.499 570.576,159.141 571.752,159.763 572.928,160.364 574.104,160.924 575.28,161.462 576.456,161.939 577.632,162.374 578.808,162.747 579.984,163.058 581.16,163.307 582.336,163.493 583.512,163.617 584.688,163.659 585.864,163.659 587.04,163.576 588.216,163.431 589.392,163.224 590.568,162.954 591.744,162.623 592.92,162.25 594.096,161.835 595.272,161.38 596.448,160.903 597.624,160.385 598.8,159.867 599.976,159.328 601.152,158.768 602.328,158.23 603.504,157.691 604.68,157.173 605.856,156.676 607.032,156.22 608.208,155.785 609.384,155.391 610.56,155.038 611.736,154.728 612.912,154.479 614.088,154.272 615.264,154.127 616.44,154.023 617.616,153.982 618.792,154.002 619.968,154.085 621.144,154.21 622.32,154.375 623.496,154.603 624.672,154.873 625.848,155.184 627.024,155.515 628.2,155.888 629.376,156.303 630.552,156.717 631.728,157.152 632.904,157.587 634.08,158.043 635.256,158.478 636.432,158.914 637.608,159.328 638.784,159.722 639.96,160.095 641.136,160.447 642.312,160.758 643.488,161.048 644.664,161.297 645.84,161.483 647.016,161.649 648.192,161.753 649.368,161.815 650.544,161.835 651.72,161.815 652.896,161.732 654.072,161.628 655.248,161.483 656.424,161.276 657.6,161.048 658.776,160.799 659.952,160.509 661.128,160.198 662.304,159.867 663.48,159.514 664.656,159.162 665.832,158.789 667.008,158.437 668.184,158.064 669.36,157.712 670.536,157.38 671.712,157.049 672.888,156.758 674.064,156.468 675.24,156.22 676.416,155.992 677.592,155.805 678.768,155.66 679.944,155.536 681.12,155.453 682.296,155.412 683.472,155.412 684.648,155.453 685.824,155.515 687,155.619 " />
</g>

<g fill="none" stroke="#ffe864" stroke-opacity="1" stroke-width="0.666667" stroke-linecap="butt" stroke-linejoin="round" transform="matrix(0.75,0,0,0.75,0,0)"
font-family="Helvetica" font-size="13" font-weight="400" font-style="normal" 
>
<polyline fill="none" vector-effect="none" points="99,365.556 100.176,361.784 101.352,357.723 102.528,353.412 103.704,348.833 104.88,344.046 106.056,339.073 107.232,333.892 108.408,328.566 109.584,323.116 110.76,317.542 111.936,311.864 113.112,306.103 114.288,300.281 115.464,294.416 116.64,288.51 117.816,282.604 118.992,276.678 120.168,270.793 121.344,264.908 122.52,259.064 123.696,253.283 124.872,247.563 126.048,241.906 127.224,236.332 128.4,230.84 129.576,225.453 130.752,220.168 131.928,215.009 133.104,209.973 134.28,205.041 135.456,200.254 136.632,195.592 137.808,191.095 138.984,186.723 140.16,182.495 141.336,178.413 142.512,174.497 143.688,170.725 144.864,167.12 146.04,163.659 147.216,160.364 148.392,157.214 149.568,154.23 150.744,151.391 151.92,148.718 153.096,146.19 154.272,143.828 155.448,141.59 156.624,139.518 157.8,137.59 158.976,135.788 160.152,134.15 161.328,132.638 162.504,131.249 163.68,130.006 164.856,128.887 166.032,127.892 167.208,127.001 168.384,126.235 169.56,125.592 170.736,125.053 171.912,124.618 173.088,124.266 174.264,124.017 175.44,123.872 176.616,123.81 177.792,123.831 178.968,123.934 180.144,124.1 181.32,124.349 182.496,124.66 183.672,125.033 184.848,125.468 186.024,125.965 187.2,126.504 188.376,127.105 189.552,127.727 190.728,128.41 191.904,129.115 193.08,129.861 194.256,130.628 195.432,131.436 196.608,132.265 197.784,133.114 198.96,133.964 200.136,134.855 201.312,135.746 202.488,136.637 203.664,137.549 204.84,138.461 206.016,139.372 207.192,140.284 208.368,141.175 209.544,142.087 210.72,142.978 211.896,143.869 213.072,144.76 214.248,145.631 215.424,146.48 216.6,147.33 217.776,148.159 218.952,148.967 220.128,149.754 221.304,150.521 222.48,151.288 223.656,152.013 224.832,152.738 226.008,153.422 227.184,154.085 228.36,154.728 229.536,155.37 230.712,155.95 231.888,156.531 233.064,157.09 234.24,157.608 235.416,158.126 236.592,158.603 237.768,159.059 238.944,159.494 240.12,159.887 241.296,160.281 242.472,160.633 243.648,160.986 244.824,161.297 246,161.587 247.176,161.856 248.352,162.105 249.528,162.333 250.704,162.54 251.88,162.726 253.056,162.913 254.232,163.058 255.408,163.182 256.584,163.307 257.76,163.39 258.936,163.472 260.112,163.535 261.288,163.597 262.464,163.617 263.64,163.638 264.816,163.659 265.992,163.659 267.168,163.638 268.344,163.597 269.52,163.555 270.696,163.514 271.872,163.452 273.048,163.39 274.224,163.307 275.4,163.224 276.576,161.462 277.752,159.722 278.928,158.064 280.104,156.468 281.28,154.976 282.456,153.588 283.632,152.345 284.808,151.226 285.984,150.272 287.16,149.464 288.336,148.843 289.512,148.387 290.688,148.097 291.864,147.993 293.04,148.034 294.216,148.262 295.392,148.656 296.568,149.195 297.744,149.879 298.92,150.687 300.096,151.599 301.272,152.614 302.448,153.733 303.624,154.914 304.8,156.137 305.976,157.401 307.152,158.665 308.328,159.95 309.504,161.193 310.68,162.395 311.856,163.555 313.032,164.654 314.208,165.669 315.384,166.581 316.56,167.389 317.736,168.073 318.912,168.632 320.088,169.067 321.264,169.358 322.44,169.503 323.616,169.523 324.792,169.399 325.968,169.13 327.144,168.736 328.32,168.197 329.496,167.555 330.672,166.809 331.848,165.959 333.024,165.027 334.2,164.011 335.376,162.934 336.552,161.794 337.728,160.633 338.904,159.473 340.08,158.292 341.256,157.111 342.432,155.971 343.608,154.873 344.784,153.816 345.96,152.821 347.136,151.909 348.312,151.081 349.488,150.355 350.664,149.734 351.84,149.216 353.016,148.822 354.192,148.532 355.368,148.366 356.544,148.324 357.72,148.407 358.896,148.594 360.072,148.905 361.248,149.319 362.424,149.837 363.6,150.438 364.776,151.143 365.952,151.889 367.128,152.718 368.304,153.609 369.48,154.52 370.656,155.474 371.832,156.448 373.008,157.401 374.184,158.375 375.36,159.307 376.536,160.219 377.712,161.069 378.888,161.877 380.064,162.623 381.24,163.307 382.416,163.908 383.592,164.426 384.768,164.84 385.944,165.172 387.12,165.4 388.296,165.545 389.472,165.586 390.648,165.524 391.824,165.379 393,165.13 394.176,164.799 395.352,164.384 396.528,163.908 397.704,163.348 398.88,162.726 400.056,162.063 401.232,161.38 402.408,160.633 403.584,159.887 404.76,159.121 405.936,158.354 407.112,157.608 408.288,156.862 409.464,156.158 410.64,155.474 411.816,154.852 412.992,154.272 414.168,153.774 415.344,153.319 416.52,152.946 417.696,152.635 418.872,152.407 420.048,152.262 421.224,152.179 422.4,152.2 423.576,152.282 424.752,152.448 425.928,152.697 427.104,152.987 428.28,153.36 429.456,153.795 430.632,154.292 431.808,154.811 432.984,155.391 434.16,155.992 435.336,156.613 436.512,157.235 437.688,157.898 438.864,158.52 440.04,159.162 441.216,159.784 442.392,160.364 443.568,160.924 444.744,161.442 445.92,161.898 447.096,162.333 448.272,162.685 449.448,162.996 450.624,163.245 451.8,163.41 452.976,163.535 454.152,163.576 455.328,163.555 456.504,163.472 457.68,163.327 458.856,163.12 460.032,162.851 461.208,162.519 462.384,162.167 463.56,161.753 464.736,161.317 465.912,160.841 467.088,160.323 468.264,159.805 469.44,159.287 470.616,158.748 471.792,158.23 472.968,157.712 474.144,157.194 475.32,156.717 476.496,156.261 477.672,155.847 478.848,155.453 480.024,155.121 481.2,154.831 482.376,154.583 483.552,154.396 484.728,154.251 485.904,154.168 487.08,154.127 488.256,154.147 489.432,154.23 490.608,154.355 491.784,154.541 492.96,154.769 494.136,155.038 495.312,155.329 496.488,155.681 497.664,156.033 498.84,156.427 500.016,156.841 501.192,157.277 502.368,157.691 503.544,158.126 504.72,158.561 505.896,158.996 507.072,159.39 508.248,159.784 509.424,160.157 510.6,160.488 511.776,160.779 512.952,161.048 514.128,161.276 515.304,161.483 516.48,161.628 517.656,161.732 518.832,161.773 520.008,161.794 521.184,161.753 522.36,161.69 523.536,161.566 524.712,161.4 525.888,161.214 527.064,160.986 528.24,160.737 529.416,160.447 530.592,160.136 531.768,159.805 532.944,159.452 534.12,159.1 535.296,158.748 536.472,158.395 537.648,158.043 538.824,157.691 540,157.359 541.176,157.049 542.352,156.758 543.528,156.468 544.704,156.24 545.88,156.012 547.056,155.847 548.232,155.681 549.408,155.577 550.584,155.494 551.76,155.453 552.936,155.453 554.112,155.494 555.288,155.557 556.464,155.66 557.64,155.805 558.816,155.971 559.992,156.158 561.168,156.385 562.344,156.634 563.52,156.883 564.696,157.152 565.872,157.442 567.048,157.732 568.224,158.022 569.4,158.333 570.576,158.623 571.752,158.893 572.928,159.183 574.104,159.432 575.28,159.68 576.456,159.887 577.632,160.095 578.808,160.26 579.984,160.406 581.16,160.509 582.336,160.613 583.512,160.654 584.688,160.696 585.864,160.675 587.04,160.654 588.216,160.592 589.392,160.488 590.568,160.385 591.744,160.24 592.92,160.074 594.096,159.887 595.272,159.68 596.448,159.473 597.624,159.245 598.8,159.017 599.976,158.768 601.152,158.52 602.328,158.292 603.504,158.043 604.68,157.815 605.856,157.587 607.032,157.38 608.208,157.194 609.384,157.007 610.56,156.862 611.736,156.717 612.912,156.613 614.088,156.51 615.264,156.448 616.44,156.406 617.616,156.406 618.792,156.406 619.968,156.448 621.144,156.489 622.32,156.572 623.496,156.676 624.672,156.8 625.848,156.945 627.024,157.09 628.2,157.256 629.376,157.442 630.552,157.629 631.728,157.836 632.904,158.022 634.08,158.23 635.256,158.416 636.432,158.623 637.608,158.81 638.784,158.996 639.96,159.162 641.136,159.307 642.312,159.452 643.488,159.577 644.664,159.68 645.84,159.784 647.016,159.846 648.192,159.887 649.368,159.929 650.544,159.929 651.72,159.929 652.896,159.887 654.072,159.846 655.248,159.763 656.424,159.68 657.6,159.577 658.776,159.452 659.952,159.328 661.128,159.183 662.304,159.038 663.48,158.872 664.656,158.727 665.832,158.561 667.008,158.395 668.184,158.23 669.36,158.064 670.536,157.919 671.712,157.774 672.888,157.629 674.064,157.504 675.24,157.38 676.416,157.297 677.592,157.194 678.768,157.131 679.944,157.069 681.12,157.049 682.296,157.028 683.472,157.028 684.648,157.028 685.824,157.069 687,157.111 " />
</g>

<g fill="#121212" fill-opacity="1" stroke="none" transform="matrix(7.5e-05,0,0,7.5e-05,0,0)"
font-family="Helvetica" font-size="13" font-weight="400" font-style="normal" 
>
<path vector-effect="none" fill-rule="evenodd" d="M5.72e+06,450000 L5.72e+06,920000 L6.76e+06,920000 L6.76e+06,450000 L5.72e+06,450000"/>
</g>

<g fill="#268cdd" fill-opacity="1" stroke="#268cdd" stroke-opacity="1" stroke-width="0.666667" stroke-linecap="butt" stroke-linejoin="round" transform="matrix(0.75,0,0,0.75,0,0)"
font-family="Helvetica" font-size="13" font-weight="400" font-style="normal" 
>
<polyline fill="none" vector-effect="none" points="576,54 616,54 " />
</g>

<g fill="#f57729" fill-opacity="1" stroke="#f57729" stroke-opacity="1" stroke-width="0.666667" stroke-linecap="butt" stroke-linejoin="round" transform="matrix(0.75,0,0,0.75,0,0)"
font-family="Helvetica" font-size="13" font-weight="400" font-style="normal" 
>
<polyline fill="none" vector-effect="none" points="576,68.5 616,68.5 " />
</g>

<g fill="#ffe864" fill-opacity="1" stroke="#ffe864" stroke-opacity="1" stroke-width="0.666667" stroke-linecap="butt" stroke-linejoin="round" transform="matrix(0.75,0,0,0.75,0,0)"
font-family="Helvetica" font-size="13" font-weight="400" font-style="normal" 
>
<polyline fill="none" vector-effect="none" points="576,83 616,83 " />
</g>

<g fill="#d9d9d9" fill-opacity="1" stroke="#d9d9d9" stroke-opacity="1" stroke-width="1" stroke-linecap="square" stroke-linejoin="bevel" transform="matrix(0.75,0,0,0.75,464.25,43.5)"
font-family="Helvetica" font-size="12" font-weight="400" font-style="normal" 
>
<text fill="#d9d9d9" fill-opacity="1" stroke="none" xml:space="preserve" x="0" y="0" font-family="Helvetica" font-size="12" font-weight="400" font-style="normal" 
 >Baseline</text>
</g>

<g fill="#d9d9d9" fill-opacity="1" stroke="#d9d9d9" stroke-opacity="1" stroke-width="1" stroke-linecap="square" stroke-linejoin="bevel" transform="matrix(0.75,0,0,0.75,464.25,54.375)"
font-family="Helvetica" font-size="12" font-weight="400" font-style="normal" 
>
<text fill="#d9d9d9" fill-opacity="1" stroke="none" xml:space="preserve" x="0" y="0" font-family="Helvetica" font-size="12" font-weight="400" font-style="normal" 
 >Method A</text>
</g>

<g fill="#d9d9d9" fill-opacity="1" stroke="#d9d9d9" stroke-opacity="1" stroke-width="1" stroke-linecap="square" stroke-linejoin="bevel" transform="matrix(0.75,0,0,0.75,464.25,65.25)"
font-family="Helvetica" font-size="12" font-weight="400" font-style="normal" 
>
<text fill="#d9d9d9" fill-opacity="1" stroke="none" xml:space="preserve" x="0" y="0" font-family="Helvetica" font-size="12" font-weight="400" font-style="normal" 
 >Method B</text>
</g>

<g fill="none" stroke="#d9d9d9" stroke-opacity="1" stroke-width="0.666667" stroke-linecap="butt" stroke-linejoin="miter" stroke-miterlimit="5" transform="matrix(0.75,0,0,0.75,0,0)"
font-family="Helvetica" font-size="12" font-weight="400" font-style="normal" 
>
<path vector-effect="none" fill-rule="evenodd" d="M572,92 L572,45 L676,45 L676,92 L572,92"/>
</g>
</g>
</svg>
