<?xml version="1.0" encoding="UTF-8" standalone="no"?>
<svg width="201.083mm" height="121.003mm"
 viewBox="0 0 570 343"
 xmlns="http://www.w3.org/2000/svg" xmlns:xlink="http://www.w3.org/1999/xlink"  version="1.2" baseProfile="tiny">
<title>Qt SVG Document</title>
<desc>MATLAB, The MathWorks, Inc. Version 25.2.0.3123386 R2025b Update 3</desc>
<defs>
</defs>
<g fill="none" stroke="black" stroke-width="1" fill-rule="evenodd" stroke-linecap="square" stroke-linejoin="bevel" >

<g fill="#ffffff" fill-opacity="1" stroke="none" transform="matrix(0.75,0,0,0.75,0,0)"
font-family="Microsoft YaHei UI" font-size="9" font-weight="400" font-style="normal" 
>
<path vector-effect="none" fill-rule="evenodd" d="M0,0 L760,0 L760,458 L0,458 L0,0"/>
</g>

<g fill="#ffffff" fill-opacity="1" stroke="none" transform="matrix(7.5e-05,0,0,7.5e-05,0,0)"
font-family="Microsoft YaHei UI" font-size="9" font-weight="400" font-style="normal" 
>
<path vector-effect="none" fill-rule="evenodd" d="M990000,340000 L990000,1.9e+06 L6.87e+06,1.9e+06 L6.87e+06,340000 L990000,340000"/>
</g>

<g fill="#000000" fill-opacity="1" stroke="#000000" stroke-opacity="1" stroke-width="0.666667" stroke-linecap="square" stroke-linejoin="round" transform="matrix(0.75,0,0,0.75,0,0)"
font-family="Microsoft YaHei UI" font-size="9" font-weight="400" font-style="normal" 
>
<polyline fill="none" vector-effect="none" points="99,190 687,190 " />
<polyline fill="none" vector-effect="none" points="99,34 687,34 " />
<polyline fill="none" vector-effect="none" points="99,190 99,184.12 " />
<polyline fill="none" vector-effect="none" points="295,190 295,184.12 " />
<polyline fill="none" vector-effect="none" points="491,190 491,184.12 " />
<polyline fill="none" vector-effect="none" points="687,190 687,184.12 " />
<polyline fill="none" vector-effect="none" points="99,34 99,39.88 " />
<polyline fill="none" vector-effect="none" points="295,34 295,39.88 " />
<polyline fill="none" vector-effect="none" points="491,34 491,39.88 " />
<polyline fill="none" vector-effect="none" points="687,34 687,39.88 " />
<polyline fill="none" vector-effect="none" points="99,190 99,187.06 " />
<polyline fill="none" vector-effect="none" points="158.002,190 158.002,187.06 " />
<polyline fill="none" vector-effect="none" points="192.516,190 192.516,187.06 " />
<polyline fill="none" vector-effect="none" points="217.004,190 217.004,187.06 " />
<polyline fill="none" vector-effect="none" points="235.998,190 235.998,187.06 " />
<polyline fill="none" vector-effect="none" points="251.518,190 251.518,187.06 " />
<polyline fill="none" vector-effect="none" points="264.639,190 264.639,187.06 " />
<polyline fill="none" vector-effect="none" points="276.006,190 276.006,187.06 " />
<polyline fill="none" vector-effect="none" points="286.032,190 286.032,187.06 " />
<polyline fill="none" vector-effect="none" points="295,190 295,187.06 " />
<polyline fill="none" vector-effect="none" points="354.002,190 354.002,187.06 " />
<polyline fill="none" vector-effect="none" points="388.516,190 388.516,187.06 " />
<polyline fill="none" vector-effect="none" points="413.004,190 413.004,187.06 " />
<polyline fill="none" vector-effect="none" points="431.998,190 431.998,187.06 " />
<polyline fill="none" vector-effect="none" points="447.518,190 447.518,187.06 " />
<polyline fill="none" vector-effect="none" points="460.639,190 460.639,187.06 " />
<polyline fill="none" vector-effect="none" points="472.006,190 472.006,187.06 " />
<polyline fill="none" vector-effect="none" points="482.032,190 482.032,187.06 " />
<polyline fill="none" vector-effect="none" points="491,190 491,187.06 " />
<polyline fill="none" vector-effect="none" points="550.002,190 550.002,187.06 " />
<polyline fill="none" vector-effect="none" points="584.516,190 584.516,187.06 " />
<polyline fill="none" vector-effect="none" points="609.004,190 609.004,187.06 " />
<polyline fill="none" vector-effect="none" points="627.998,190 627.998,187.06 " />
<polyline fill="none" vector-effect="none" points="643.518,190 643.518,187.06 " />
<polyline fill="none" vector-effect="none" points="656.639,190 656.639,187.06 " />
<polyline fill="none" vector-effect="none" points="668.006,190 668.006,187.06 " />
<polyline fill="none" vector-effect="none" points="678.032,190 678.032,187.06 " />
<polyline fill="none" vector-effect="none" points="687,190 687,187.06 " />
<polyline fill="none" vector-effect="none" points="99,34 99,36.94 " />
<polyline fill="none" vector-effect="none" points="158.002,34 158.002,36.94 " />
<polyline fill="none" vector-effect="none" points="192.516,34 192.516,36.94 " />
<polyline fill="none" vector-effect="none" points="217.004,34 217.004,36.94 " />
<polyline fill="none" vector-effect="none" points="235.998,34 235.998,36.94 " />
<polyline fill="none" vector-effect="none" points="251.518,34 251.518,36.94 " />
<polyline fill="none" vector-effect="none" points="264.639,34 264.639,36.94 " />
<polyline fill="none" vector-effect="none" points="276.006,34 276.006,36.94 " />
<polyline fill="none" vector-effect="none" points="286.032,34 286.032,36.94 " />
<polyline fill="none" vector-effect="none" points="295,34 295,36.94 " />
<polyline fill="none" vector-effect="none" points="354.002,34 354.002,36.94 " />
<polyline fill="none" vector-effect="none" points="388.516,34 388.516,36.94 " />
<polyline fill="none" vector-effect="none" points="413.004,34 413.004,36.94 " />
<polyline fill="none" vector-effect="none" points="431.998,34 431.998,36.94 " />
<polyline fill="none" vector-effect="none" points="447.518,34 447.518,36.94 " />
<polyline fill="none" vector-effect="none" points="460.639,34 460.639,36.94 " />
<polyline fill="none" vector-effect="none" points="472.006,34 472.006,36.94 " />
<polyline fill="none" vector-effect="none" points="482.032,34 482.032,36.94 " />
<polyline fill="none" vector-effect="none" points="491,34 491,36.94 " />
<polyline fill="none" vector-effect="none" points="550.002,34 550.002,36.94 " />
<polyline fill="none" vector-effect="none" points="584.516,34 584.516,36.94 " />
<polyline fill="none" vector-effect="none" points="609.004,34 609.004,36.94 " />
<polyline fill="none" vector-effect="none" points="627.998,34 627.998,36.94 " />
<polyline fill="none" vector-effect="none" points="643.518,34 643.518,36.94 " />
<polyline fill="none" vector-effect="none" points="656.639,34 656.639,36.94 " />
<polyline fill="none" vector-effect="none" points="668.006,34 668.006,36.94 " />
<polyline fill="none" vector-effect="none" points="678.032,34 678.032,36.94 " />
<polyline fill="none" vector-effect="none" points="687,34 687,36.94 " />
</g>

<g fill="#000000" fill-opacity="1" stroke="#000000" stroke-opacity="1" stroke-width="1" stroke-linecap="square" stroke-linejoin="bevel" transform="matrix(0.75,0,0,0.75,65.25,158.25)"
font-family="Helvetica" font-size="12" font-weight="400" font-style="normal" 
>
<text fill="#000000" fill-opacity="1" stroke="none" xml:space="preserve" x="0" y="0" font-family="Helvetica" font-size="12" font-weight="400" font-style="normal" 
 >10</text>
</g>

<g fill="#000000" fill-opacity="1" stroke="#000000" stroke-opacity="1" stroke-width="1" stroke-linecap="square" stroke-linejoin="bevel" transform="matrix(0.75,0,0,0.75,75.75,153.75)"
font-family="Helvetica" font-size="10" font-weight="400" font-style="normal" 
>
<text fill="#000000" fill-opacity="1" stroke="none" xml:space="preserve" x="0" y="0" font-family="Helvetica" font-size="10" font-weight="400" font-style="normal" 
 >-1</text>
</g>

<g fill="#000000" fill-opacity="1" stroke="#000000" stroke-opacity="1" stroke-width="1" stroke-linecap="square" stroke-linejoin="bevel" transform="matrix(0.75,0,0,0.75,213.75,158.25)"
font-family="Helvetica" font-size="12" font-weight="400" font-style="normal" 
>
<text fill="#000000" fill-opacity="1" stroke="none" xml:space="preserve" x="0" y="0" font-family="Helvetica" font-size="12" font-weight="400" font-style="normal" 
 >10</text>
</g>

<g fill="#000000" fill-opacity="1" stroke="#000000" stroke-opacity="1" stroke-width="1" stroke-linecap="square" stroke-linejoin="bevel" transform="matrix(0.75,0,0,0.75,224.25,153.75)"
font-family="Helvetica" font-size="10" font-weight="400" font-style="normal" 
>
<text fill="#000000" fill-opacity="1" stroke="none" xml:space="preserve" x="0" y="0" font-family="Helvetica" font-size="10" font-weight="400" font-style="normal" 
 >0</text>
</g>

<g fill="#000000" fill-opacity="1" stroke="#000000" stroke-opacity="1" stroke-width="1" stroke-linecap="square" stroke-linejoin="bevel" transform="matrix(0.75,0,0,0.75,360.75,158.25)"
font-family="Helvetica" font-size="12" font-weight="400" font-style="normal" 
>
<text fill="#000000" fill-opacity="1" stroke="none" xml:space="preserve" x="0" y="0" font-family="Helvetica" font-size="12" font-weight="400" font-style="normal" 
 >10</text>
</g>

<g fill="#000000" fill-opacity="1" stroke="#000000" stroke-opacity="1" stroke-width="1" stroke-linecap="square" stroke-linejoin="bevel" transform="matrix(0.75,0,0,0.75,371.25,153.75)"
font-family="Helvetica" font-size="10" font-weight="400" font-style="normal" 
>
<text fill="#000000" fill-opacity="1" stroke="none" xml:space="preserve" x="0" y="0" font-family="Helvetica" font-size="10" font-weight="400" font-style="normal" 
 >1</text>
</g>

<g fill="#000000" fill-opacity="1" stroke="#000000" stroke-opacity="1" stroke-width="1" stroke-linecap="square" stroke-linejoin="bevel" transform="matrix(0.75,0,0,0.75,507.75,158.25)"
font-family="Helvetica" font-size="12" font-weight="400" font-style="normal" 
>
<text fill="#000000" fill-opacity="1" stroke="none" xml:space="preserve" x="0" y="0" font-family="Helvetica" font-size="12" font-weight="400" font-style="normal" 
 >10</text>
</g>

<g fill="#000000" fill-opacity="1" stroke="#000000" stroke-opacity="1" stroke-width="1" stroke-linecap="square" stroke-linejoin="bevel" transform="matrix(0.75,0,0,0.75,518.25,153.75)"
font-family="Helvetica" font-size="10" font-weight="400" font-style="normal" 
>
<text fill="#000000" fill-opacity="1" stroke="none" xml:space="preserve" x="0" y="0" font-family="Helvetica" font-size="10" font-weight="400" font-style="normal" 
 >2</text>
</g>

<g fill="#000000" fill-opacity="1" stroke="#000000" stroke-opacity="1" stroke-width="0.666667" stroke-linecap="square" stroke-linejoin="round" transform="matrix(0.75,0,0,0.75,0,0)"
font-family="Helvetica" font-size="10" font-weight="400" font-style="normal" 
>
<polyline fill="none" vector-effect="none" points="99,190 99,34 " />
<polyline fill="none" vector-effect="none" points="687,190 687,34 " />
<polyline fill="none" vector-effect="none" points="99,190 104.88,190 " />
<polyline fill="none" vector-effect="none" points="99,165.58 104.88,165.58 " />
<polyline fill="none" vector-effect="none" points="99,141.161 104.88,141.161 " />
<polyline fill="none" vector-effect="none" points="99,116.741 104.88,116.741 " />
<polyline fill="none" vector-effect="none" points="99,92.3217 104.88,92.3217 " />
<polyline fill="none" vector-effect="none" points="99,67.9022 104.88,67.9022 " />
<polyline fill="none" vector-effect="none" points="99,43.4826 104.88,43.4826 " />
<polyline fill="none" vector-effect="none" points="687,190 681.12,190 " />
<polyline fill="none" vector-effect="none" points="687,165.58 681.12,165.58 " />
<polyline fill="none" vector-effect="none" points="687,141.161 681.12,141.161 " />
<polyline fill="none" vector-effect="none" points="687,116.741 681.12,116.741 " />
<polyline fill="none" vector-effect="none" points="687,92.3217 681.12,92.3217 " />
<polyline fill="none" vector-effect="none" points="687,67.9022 681.12,67.9022 " />
<polyline fill="none" vector-effect="none" points="687,43.4826 681.12,43.4826 " />
</g>

<g fill="#000000" fill-opacity="1" stroke="#000000" stroke-opacity="1" stroke-width="1" stroke-linecap="square" stroke-linejoin="bevel" transform="matrix(0.75,0,0,0.75,57.35,145.5)"
font-family="Helvetica" font-size="12" font-weight="400" font-style="normal" 
>
<text fill="#000000" fill-opacity="1" stroke="none" xml:space="preserve" x="0" y="0" font-family="Helvetica" font-size="12" font-weight="400" font-style="normal" 
 >-60</text>
</g>

<g fill="#000000" fill-opacity="1" stroke="#000000" stroke-opacity="1" stroke-width="1" stroke-linecap="square" stroke-linejoin="bevel" transform="matrix(0.75,0,0,0.75,57.35,127.185)"
font-family="Helvetica" font-size="12" font-weight="400" font-style="normal" 
>
<text fill="#000000" fill-opacity="1" stroke="none" xml:space="preserve" x="0" y="0" font-family="Helvetica" font-size="12" font-weight="400" font-style="normal" 
 >-50</text>
</g>

<g fill="#000000" fill-opacity="1" stroke="#000000" stroke-opacity="1" stroke-width="1" stroke-linecap="square" stroke-linejoin="bevel" transform="matrix(0.75,0,0,0.75,57.35,108.871)"
font-family="Helvetica" font-size="12" font-weight="400" font-style="normal" 
>
<text fill="#000000" fill-opacity="1" stroke="none" xml:space="preserve" x="0" y="0" font-family="Helvetica" font-size="12" font-weight="400" font-style="normal" 
 >-40</text>
</g>

<g fill="#000000" fill-opacity="1" stroke="#000000" stroke-opacity="1" stroke-width="1" stroke-linecap="square" stroke-linejoin="bevel" transform="matrix(0.75,0,0,0.75,57.35,90.556)"
font-family="Helvetica" font-size="12" font-weight="400" font-style="normal" 
>
<text fill="#000000" fill-opacity="1" stroke="none" xml:space="preserve" x="0" y="0" font-family="Helvetica" font-size="12" font-weight="400" font-style="normal" 
 >-30</text>
</g>

<g fill="#000000" fill-opacity="1" stroke="#000000" stroke-opacity="1" stroke-width="1" stroke-linecap="square" stroke-linejoin="bevel" transform="matrix(0.75,0,0,0.75,57.35,72.2413)"
font-family="Helvetica" font-size="12" font-weight="400" font-style="normal" 
>
<text fill="#000000" fill-opacity="1" stroke="none" xml:space="preserve" x="0" y="0" font-family="Helvetica" font-size="12" font-weight="400" font-style="normal" 
 >-20</text>
</g>

<g fill="#000000" fill-opacity="1" stroke="#000000" stroke-opacity="1" stroke-width="1" stroke-linecap="square" stroke-linejoin="bevel" transform="matrix(0.75,0,0,0.75,57.35,53.9266)"
font-family="Helvetica" font-size="12" font-weight="400" font-style="normal" 
>
<text fill="#000000" fill-opacity="1" stroke="none" xml:space="preserve" x="0" y="0" font-family="Helvetica" font-size="12" font-weight="400" font-style="normal" 
 >-10</text>
</g>

<g fill="#000000" fill-opacity="1" stroke="#000000" stroke-opacity="1" stroke-width="1" stroke-linecap="square" stroke-linejoin="bevel" transform="matrix(0.75,0,0,0.75,65.6,35.612)"
font-family="Helvetica" font-size="12" font-weight="400" font-style="normal" 
>
<text fill="#000000" fill-opacity="1" stroke="none" xml:space="preserve" x="0" y="0" font-family="Helvetica" font-size="12" font-weight="400" font-style="normal" 
 >0</text>
</g>

<g fill="#000000" fill-opacity="1" stroke="#000000" stroke-opacity="1" stroke-width="1" stroke-linecap="square" stroke-linejoin="bevel" transform="matrix(0,-0.75,0.75,0,51.85,117)"
font-family="Helvetica" font-size="13" font-weight="400" font-style="normal" 
>
<text fill="#000000" fill-opacity="1" stroke="none" xml:space="preserve" x="0" y="0" font-family="Helvetica" font-size="13" font-weight="400" font-style="normal" 
 >Magnitude (dB)</text>
</g>

<g fill="none" stroke="#268cdd" stroke-opacity="1" stroke-width="0.666667" stroke-linecap="butt" stroke-linejoin="round" transform="matrix(0.75,0,0,0.75,0,0)"
font-family="Helvetica" font-size="13" font-weight="400" font-style="normal" 
>
<polyline fill="none" vector-effect="none" points="99,43.4724 101.433,43.4719 103.96,43.4711 106.414,43.4704 108.874,43.4697 111.266,43.4689 113.736,43.4682 116.205,43.4672 118.673,43.4665 121.136,43.4655 123.594,43.4645 126.045,43.4633 128.548,43.4621 130.98,43.4611 133.457,43.4597 135.92,43.4584 138.367,43.457 140.849,43.4553 143.262,43.4538 145.755,43.4521 148.226,43.4501 150.673,43.4482 153.141,43.4462 155.584,43.444 158.044,43.4418 160.518,43.4394 162.962,43.4367 165.416,43.434 167.876,43.4311 170.342,43.4281 172.809,43.425 175.277,43.4213 177.742,43.4179 180.204,43.414 182.66,43.4098 185.109,43.4054 187.58,43.4008 190.04,43.3959 192.487,43.3908 194.949,43.3854 197.422,43.3796 199.877,43.3734 202.34,43.3671 204.782,43.36 207.251,43.3527 209.721,43.3451 212.166,43.3368 214.63,43.3283 217.089,43.319 219.561,43.3092 222.004,43.299 224.476,43.288 226.935,43.2765 229.399,43.264 231.847,43.2511 234.313,43.2372 236.778,43.2225 239.238,43.2072 241.694,43.1908 244.158,43.1732 246.612,43.1549 249.071,43.1354 251.532,43.1146 253.992,43.0926 256.451,43.0694 258.918,43.0448 261.379,43.0186 263.833,42.9908 266.301,42.9615 268.758,42.9305 271.213,42.8975 273.676,42.8626 276.133,42.8255 278.594,42.7862 281.056,42.7446 283.517,42.7005 285.975,42.6536 288.437,42.604 290.902,42.5515 293.358,42.4958 295.822,42.4367 298.281,42.3742 300.743,42.3078 303.198,42.2374 305.659,42.163 308.124,42.0839 310.583,42.0001 313.043,41.9112 315.5,41.8172 317.959,41.7173 320.426,41.6116 322.884,41.4995 325.345,41.3808 327.806,41.2548 330.265,41.1217 332.721,40.9803 335.183,40.8309 337.642,40.6726 340.103,40.5051 342.562,40.3278 345.024,40.1405 347.485,39.9425 349.944,39.7332 352.404,39.5125 354.866,39.2798 357.328,39.0346 359.785,38.777 362.246,38.5066 364.706,38.2236 367.166,37.9276 369.628,37.62 372.089,37.3006 374.548,36.9714 377.01,36.6339 379.468,36.2906 381.929,35.9453 384.388,35.6022 386.848,35.2676 389.309,34.9492 391.77,34.6562 394.23,34.4002 396.691,34.1951 399.15,34.0559 401.611,34 404.071,34.0452 406.531,34.2083 408.991,34.5047 411.451,34.9463 413.912,35.5392 416.373,36.2847 418.833,37.1772 421.293,38.2065 423.753,39.3584 426.213,40.6157 428.674,41.9608 431.134,43.3764 433.594,44.8467 436.054,46.357 438.514,47.896 440.975,49.4532 443.435,51.0207 445.895,52.5921 448.356,54.1623 450.815,55.7278 453.276,57.2855 455.736,58.8337 458.197,60.3707 460.657,61.8957 463.118,63.4082 465.577,64.9081 468.037,66.3952 470.497,67.8694 472.958,69.3315 475.419,70.7815 477.879,72.2198 480.339,73.6466 482.799,75.063 485.259,76.469 487.72,77.8651 490.18,79.2519 492.641,80.6296 495.1,81.9991 497.561,83.3605 500.021,84.7143 502.481,86.0611 504.942,87.4007 507.402,88.7343 509.862,90.0617 512.322,91.3833 514.783,92.6995 517.242,94.0108 519.703,95.317 522.163,96.6189 524.623,97.9165 527.084,99.2098 529.544,100.5 532.004,101.786 534.465,103.068 536.925,104.348 539.385,105.624 541.845,106.898 544.306,108.169 546.766,109.437 549.226,110.703 551.686,111.967 554.146,113.228 556.607,114.488 559.067,115.745 561.527,117.001 563.988,118.256 566.448,119.508 568.908,120.759 571.368,122.009 573.829,123.257 576.289,124.505 578.749,125.75 581.209,126.995 583.669,128.239 586.13,129.482 588.59,130.723 591.05,131.964 593.51,133.204 595.971,134.444 598.431,135.683 600.891,136.92 603.352,138.158 605.812,139.394 608.272,140.63 610.732,141.866 613.193,143.101 615.653,144.335 618.113,145.569 620.573,146.802 623.033,148.035 625.494,149.268 627.954,150.5 630.414,151.732 632.875,152.964 635.335,154.195 637.795,155.426 640.255,156.657 642.715,157.888 645.176,159.118 647.636,160.348 650.096,161.578 652.556,162.807 655.017,164.036 657.477,165.266 659.937,166.495 662.398,167.723 664.858,168.952 667.318,170.181 669.778,171.409 672.238,172.637 674.699,173.866 677.159,175.094 679.619,176.322 682.08,177.549 684.54,178.777 687,180.005 " />
</g>

<g fill="#ffffff" fill-opacity="1" stroke="none" transform="matrix(7.5e-05,0,0,7.5e-05,0,0)"
font-family="Helvetica" font-size="13" font-weight="400" font-style="normal" 
>
<path vector-effect="none" fill-rule="evenodd" d="M990000,2.51e+06 L990000,4.07e+06 L6.87e+06,4.07e+06 L6.87e+06,2.51e+06 L990000,2.51e+06"/>
</g>

<g fill="#000000" fill-opacity="1" stroke="#000000" stroke-opacity="1" stroke-width="0.666667" stroke-linecap="square" stroke-linejoin="round" transform="matrix(0.75,0,0,0.75,0,0)"
font-family="Helvetica" font-size="13" font-weight="400" font-style="normal" 
>
<polyline fill="none" vector-effect="none" points="99,407 687,407 " />
<polyline fill="none" vector-effect="none" points="99,251 687,251 " />
<polyline fill="none" vector-effect="none" points="99,407 99,401.12 " />
<polyline fill="none" vector-effect="none" points="295,407 295,401.12 " />
<polyline fill="none" vector-effect="none" points="491,407 491,401.12 " />
<polyline fill="none" vector-effect="none" points="687,407 687,401.12 " />
<polyline fill="none" vector-effect="none" points="99,251 99,256.88 " />
<polyline fill="none" vector-effect="none" points="295,251 295,256.88 " />
<polyline fill="none" vector-effect="none" points="491,251 491,256.88 " />
<polyline fill="none" vector-effect="none" points="687,251 687,256.88 " />
<polyline fill="none" vector-effect="none" points="99,407 99,404.06 " />
<polyline fill="none" vector-effect="none" points="158.002,407 158.002,404.06 " />
<polyline fill="none" vector-effect="none" points="192.516,407 192.516,404.06 " />
<polyline fill="none" vector-effect="none" points="217.004,407 217.004,404.06 " />
<polyline fill="none" vector-effect="none" points="235.998,407 235.998,404.06 " />
<polyline fill="none" vector-effect="none" points="251.518,407 251.518,404.06 " />
<polyline fill="none" vector-effect="none" points="264.639,407 264.639,404.06 " />
<polyline fill="none" vector-effect="none" points="276.006,407 276.006,404.06 " />
<polyline fill="none" vector-effect="none" points="286.032,407 286.032,404.06 " />
<polyline fill="none" vector-effect="none" points="295,407 295,404.06 " />
<polyline fill="none" vector-effect="none" points="354.002,407 354.002,404.06 " />
<polyline fill="none" vector-effect="none" points="388.516,407 388.516,404.06 " />
<polyline fill="none" vector-effect="none" points="413.004,407 413.004,404.06 " />
<polyline fill="none" vector-effect="none" points="431.998,407 431.998,404.06 " />
<polyline fill="none" vector-effect="none" points="447.518,407 447.518,404.06 " />
<polyline fill="none" vector-effect="none" points="460.639,407 460.639,404.06 " />
<polyline fill="none" vector-effect="none" points="472.006,407 472.006,404.06 " />
<polyline fill="none" vector-effect="none" points="482.032,407 482.032,404.06 " />
<polyline fill="none" vector-effect="none" points="491,407 491,404.06 " />
<polyline fill="none" vector-effect="none" points="550.002,407 550.002,404.06 " />
<polyline fill="none" vector-effect="none" points="584.516,407 584.516,404.06 " />
<polyline fill="none" vector-effect="none" points="609.004,407 609.004,404.06 " />
<polyline fill="none" vector-effect="none" points="627.998,407 627.998,404.06 " />
<polyline fill="none" vector-effect="none" points="643.518,407 643.518,404.06 " />
<polyline fill="none" vector-effect="none" points="656.639,407 656.639,404.06 " />
<polyline fill="none" vector-effect="none" points="668.006,407 668.006,404.06 " />
<polyline fill="none" vector-effect="none" points="678.032,407 678.032,404.06 " />
<polyline fill="none" vector-effect="none" points="687,407 687,404.06 " />
<polyline fill="none" vector-effect="none" points="99,251 99,253.94 " />
<polyline fill="none" vector-effect="none" points="158.002,251 158.002,253.94 " />
<polyline fill="none" vector-effect="none" points="192.516,251 192.516,253.94 " />
<polyline fill="none" vector-effect="none" points="217.004,251 217.004,253.94 " />
<polyline fill="none" vector-effect="none" points="235.998,251 235.998,253.94 " />
<polyline fill="none" vector-effect="none" points="251.518,251 251.518,253.94 " />
<polyline fill="none" vector-effect="none" points="264.639,251 264.639,253.94 " />
<polyline fill="none" vector-effect="none" points="276.006,251 276.006,253.94 " />
<polyline fill="none" vector-effect="none" points="286.032,251 286.032,253.94 " />
<polyline fill="none" vector-effect="none" points="295,251 295,253.94 " />
<polyline fill="none" vector-effect="none" points="354.002,251 354.002,253.94 " />
<polyline fill="none" vector-effect="none" points="388.516,251 388.516,253.94 " />
<polyline fill="none" vector-effect="none" points="413.004,251 413.004,253.94 " />
<polyline fill="none" vector-effect="none" points="431.998,251 431.998,253.94 " />
<polyline fill="none" vector-effect="none" points="447.518,251 447.518,253.94 " />
<polyline fill="none" vector-effect="none" points="460.639,251 460.639,253.94 " />
<polyline fill="none" vector-effect="none" points="472.006,251 472.006,253.94 " />
<polyline fill="none" vector-effect="none" points="482.032,251 482.032,253.94 " />
<polyline fill="none" vector-effect="none" points="491,251 491,253.94 " />
<polyline fill="none" vector-effect="none" points="550.002,251 550.002,253.94 " />
<polyline fill="none" vector-effect="none" points="584.516,251 584.516,253.94 " />
<polyline fill="none" vector-effect="none" points="609.004,251 609.004,253.94 " />
<polyline fill="none" vector-effect="none" points="627.998,251 627.998,253.94 " />
<polyline fill="none" vector-effect="none" points="643.518,251 643.518,253.94 " />
<polyline fill="none" vector-effect="none" points="656.639,251 656.639,253.94 " />
<polyline fill="none" vector-effect="none" points="668.006,251 668.006,253.94 " />
<polyline fill="none" vector-effect="none" points="678.032,251 678.032,253.94 " />
<polyline fill="none" vector-effect="none" points="687,251 687,253.94 " />
</g>

<g fill="#000000" fill-opacity="1" stroke="#000000" stroke-opacity="1" stroke-width="1" stroke-linecap="square" stroke-linejoin="bevel" transform="matrix(0.75,0,0,0.75,65.25,321)"
font-family="Helvetica" font-size="12" font-weight="400" font-style="normal" 
>
<text fill="#000000" fill-opacity="1" stroke="none" xml:space="preserve" x="0" y="0" font-family="Helvetica" font-size="12" font-weight="400" font-style="normal" 
 >10</text>
</g>

<g fill="#000000" fill-opacity="1" stroke="#000000" stroke-opacity="1" stroke-width="1" stroke-linecap="square" stroke-linejoin="bevel" transform="matrix(0.75,0,0,0.75,75.75,316.5)"
font-family="Helvetica" font-size="10" font-weight="400" font-style="normal" 
>
<text fill="#000000" fill-opacity="1" stroke="none" xml:space="preserve" x="0" y="0" font-family="Helvetica" font-size="10" font-weight="400" font-style="normal" 
 >-1</text>
</g>

<g fill="#000000" fill-opacity="1" stroke="#000000" stroke-opacity="1" stroke-width="1" stroke-linecap="square" stroke-linejoin="bevel" transform="matrix(0.75,0,0,0.75,213.75,321)"
font-family="Helvetica" font-size="12" font-weight="400" font-style="normal" 
>
<text fill="#000000" fill-opacity="1" stroke="none" xml:space="preserve" x="0" y="0" font-family="Helvetica" font-size="12" font-weight="400" font-style="normal" 
 >10</text>
</g>

<g fill="#000000" fill-opacity="1" stroke="#000000" stroke-opacity="1" stroke-width="1" stroke-linecap="square" stroke-linejoin="bevel" transform="matrix(0.75,0,0,0.75,224.25,316.5)"
font-family="Helvetica" font-size="10" font-weight="400" font-style="normal" 
>
<text fill="#000000" fill-opacity="1" stroke="none" xml:space="preserve" x="0" y="0" font-family="Helvetica" font-size="10" font-weight="400" font-style="normal" 
 >0</text>
</g>

<g fill="#000000" fill-opacity="1" stroke="#000000" stroke-opacity="1" stroke-width="1" stroke-linecap="square" stroke-linejoin="bevel" transform="matrix(0.75,0,0,0.75,360.75,321)"
font-family="Helvetica" font-size="12" font-weight="400" font-style="normal" 
>
<text fill="#000000" fill-opacity="1" stroke="none" xml:space="preserve" x="0" y="0" font-family="Helvetica" font-size="12" font-weight="400" font-style="normal" 
 >10</text>
</g>

<g fill="#000000" fill-opacity="1" stroke="#000000" stroke-opacity="1" stroke-width="1" stroke-linecap="square" stroke-linejoin="bevel" transform="matrix(0.75,0,0,0.75,371.25,316.5)"
font-family="Helvetica" font-size="10" font-weight="400" font-style="normal" 
>
<text fill="#000000" fill-opacity="1" stroke="none" xml:space="preserve" x="0" y="0" font-family="Helvetica" font-size="10" font-weight="400" font-style="normal" 
 >1</text>
</g>

<g fill="#000000" fill-opacity="1" stroke="#000000" stroke-opacity="1" stroke-width="1" stroke-linecap="square" stroke-linejoin="bevel" transform="matrix(0.75,0,0,0.75,507.75,321)"
font-family="Helvetica" font-size="12" font-weight="400" font-style="normal" 
>
<text fill="#000000" fill-opacity="1" stroke="none" xml:space="preserve" x="0" y="0" font-family="Helvetica" font-size="12" font-weight="400" font-style="normal" 
 >10</text>
</g>

<g fill="#000000" fill-opacity="1" stroke="#000000" stroke-opacity="1" stroke-width="1" stroke-linecap="square" stroke-linejoin="bevel" transform="matrix(0.75,0,0,0.75,518.25,316.5)"
font-family="Helvetica" font-size="10" font-weight="400" font-style="normal" 
>
<text fill="#000000" fill-opacity="1" stroke="none" xml:space="preserve" x="0" y="0" font-family="Helvetica" font-size="10" font-weight="400" font-style="normal" 
 >2</text>
</g>

<g fill="#000000" fill-opacity="1" stroke="#000000" stroke-opacity="1" stroke-width="1" stroke-linecap="square" stroke-linejoin="bevel" transform="matrix(0.75,0,0,0.75,261.375,331.595)"
font-family="Helvetica" font-size="13" font-weight="400" font-style="normal" 
>
<text fill="#000000" fill-opacity="1" stroke="none" xml:space="preserve" x="0" y="0" font-family="Helvetica" font-size="13" font-weight="400" font-style="normal" 
 >Frequency (Hz)</text>
</g>

<g fill="#000000" fill-opacity="1" stroke="#000000" stroke-opacity="1" stroke-width="0.666667" stroke-linecap="square" stroke-linejoin="round" transform="matrix(0.75,0,0,0.75,0,0)"
font-family="Helvetica" font-size="13" font-weight="400" font-style="normal" 
>
<polyline fill="none" vector-effect="none" points="99,407 99,251 " />
<polyline fill="none" vector-effect="none" points="687,407 687,251 " />
<polyline fill="none" vector-effect="none" points="99,407 104.88,407 " />
<polyline fill="none" vector-effect="none" points="99,368 104.88,368 " />
<polyline fill="none" vector-effect="none" points="99,329 104.88,329 " />
<polyline fill="none" vector-effect="none" points="99,290 104.88,290 " />
<polyline fill="none" vector-effect="none" points="99,251 104.88,251 " />
<polyline fill="none" vector-effect="none" points="687,407 681.12,407 " />
<polyline fill="none" vector-effect="none" points="687,368 681.12,368 " />
<polyline fill="none" vector-effect="none" points="687,329 681.12,329 " />
<polyline fill="none" vector-effect="none" points="687,290 681.12,290 " />
<polyline fill="none" vector-effect="none" points="687,251 681.12,251 " />
</g>

<g fill="#000000" fill-opacity="1" stroke="#000000" stroke-opacity="1" stroke-width="1" stroke-linecap="square" stroke-linejoin="bevel" transform="matrix(0.75,0,0,0.75,52.1,308.25)"
font-family="Helvetica" font-size="12" font-weight="400" font-style="normal" 
>
<text fill="#000000" fill-opacity="1" stroke="none" xml:space="preserve" x="0" y="0" font-family="Helvetica" font-size="12" font-weight="400" font-style="normal" 
 >-200</text>
</g>

<g fill="#000000" fill-opacity="1" stroke="#000000" stroke-opacity="1" stroke-width="1" stroke-linecap="square" stroke-linejoin="bevel" transform="matrix(0.75,0,0,0.75,52.1,279)"
font-family="Helvetica" font-size="12" font-weight="400" font-style="normal" 
>
<text fill="#000000" fill-opacity="1" stroke="none" xml:space="preserve" x="0" y="0" font-family="Helvetica" font-size="12" font-weight="400" font-style="normal" 
 >-150</text>
</g>

<g fill="#000000" fill-opacity="1" stroke="#000000" stroke-opacity="1" stroke-width="1" stroke-linecap="square" stroke-linejoin="bevel" transform="matrix(0.75,0,0,0.75,52.1,249.75)"
font-family="Helvetica" font-size="12" font-weight="400" font-style="normal" 
>
<text fill="#000000" fill-opacity="1" stroke="none" xml:space="preserve" x="0" y="0" font-family="Helvetica" font-size="12" font-weight="400" font-style="normal" 
 >-100</text>
</g>

<g fill="#000000" fill-opacity="1" stroke="#000000" stroke-opacity="1" stroke-width="1" stroke-linecap="square" stroke-linejoin="bevel" transform="matrix(0.75,0,0,0.75,57.35,220.5)"
font-family="Helvetica" font-size="12" font-weight="400" font-style="normal" 
>
<text fill="#000000" fill-opacity="1" stroke="none" xml:space="preserve" x="0" y="0" font-family="Helvetica" font-size="12" font-weight="400" font-style="normal" 
 >-50</text>
</g>

<g fill="#000000" fill-opacity="1" stroke="#000000" stroke-opacity="1" stroke-width="1" stroke-linecap="square" stroke-linejoin="bevel" transform="matrix(0.75,0,0,0.75,65.6,191.25)"
font-family="Helvetica" font-size="12" font-weight="400" font-style="normal" 
>
<text fill="#000000" fill-opacity="1" stroke="none" xml:space="preserve" x="0" y="0" font-family="Helvetica" font-size="12" font-weight="400" font-style="normal" 
 >0</text>
</g>

<g fill="#000000" fill-opacity="1" stroke="#000000" stroke-opacity="1" stroke-width="1" stroke-linecap="square" stroke-linejoin="bevel" transform="matrix(0,-0.75,0.75,0,46.6,273)"
font-family="Helvetica" font-size="13" font-weight="400" font-style="normal" 
>
<text fill="#000000" fill-opacity="1" stroke="none" xml:space="preserve" x="0" y="0" font-family="Helvetica" font-size="13" font-weight="400" font-style="normal" 
 >Phase (deg)</text>
</g>

<g fill="none" stroke="#268cdd" stroke-opacity="1" stroke-width="0.666667" stroke-linecap="butt" stroke-linejoin="round" transform="matrix(0.75,0,0,0.75,0,0)"
font-family="Helvetica" font-size="13" font-weight="400" font-style="normal" 
>
<polyline fill="none" vector-effect="none" points="99,251.76 101.433,251.783 103.96,251.805 106.414,251.829 108.874,251.853 111.266,251.879 113.736,251.904 116.205,251.931 118.673,251.958 121.136,251.986 123.594,252.015 126.045,252.045 128.548,252.076 130.98,252.107 133.457,252.14 135.92,252.174 138.367,252.208 140.849,252.244 143.262,252.28 145.755,252.318 148.226,252.357 150.673,252.397 153.141,252.438 155.584,252.48 158.044,252.523 160.518,252.568 162.962,252.615 165.416,252.662 167.876,252.711 170.342,252.762 172.809,252.814 175.277,252.867 177.742,252.922 180.204,252.979 182.66,253.037 185.109,253.098 187.58,253.16 190.04,253.224 192.487,253.289 194.949,253.357 197.422,253.427 199.877,253.499 202.34,253.573 204.782,253.65 207.251,253.728 209.721,253.809 212.166,253.893 214.63,253.979 217.089,254.068 219.561,254.16 222.004,254.254 224.476,254.351 226.935,254.452 229.399,254.555 231.847,254.662 234.313,254.772 236.778,254.886 239.238,255.003 241.694,255.124 244.158,255.249 246.612,255.377 249.071,255.51 251.532,255.648 253.992,255.789 256.451,255.936 258.918,256.087 261.379,256.243 263.833,256.405 266.301,256.572 268.758,256.745 271.213,256.924 273.676,257.108 276.133,257.3 278.594,257.498 281.056,257.703 283.517,257.916 285.975,258.136 288.437,258.365 290.902,258.602 293.358,258.848 295.822,259.103 298.281,259.368 300.743,259.644 303.198,259.931 305.659,260.229 308.124,260.54 310.583,260.864 313.043,261.202 315.5,261.554 317.959,261.922 320.426,262.306 322.884,262.709 325.345,263.13 327.806,263.571 330.265,264.035 332.721,264.521 335.183,265.033 337.642,265.571 340.103,266.139 342.562,266.738 345.024,267.371 347.485,268.042 349.944,268.752 352.404,269.507 354.866,270.309 357.328,271.163 359.785,272.075 362.246,273.05 364.706,274.094 367.166,275.214 369.628,276.417 372.089,277.713 374.548,279.111 377.01,280.62 379.468,282.252 381.929,284.02 384.388,285.934 386.848,288.01 389.309,290.258 391.77,292.691 394.23,295.318 396.691,298.144 399.15,301.172 401.611,304.394 404.071,307.798 406.531,311.358 408.991,315.042 411.451,318.806 413.912,322.602 416.373,326.38 418.833,330.089 421.293,333.685 423.753,337.132 426.213,340.404 428.674,343.483 431.134,346.363 433.594,349.041 436.054,351.524 438.514,353.819 440.975,355.939 443.435,357.894 445.895,359.699 448.356,361.366 450.815,362.906 453.276,364.332 455.736,365.653 458.197,366.88 460.657,368.021 463.118,369.084 465.577,370.076 468.037,371.004 470.497,371.873 472.958,372.688 475.419,373.455 477.879,374.177 480.339,374.857 482.799,375.5 485.259,376.107 487.72,376.683 490.18,377.229 492.641,377.748 495.1,378.24 497.561,378.71 500.021,379.157 502.481,379.583 504.942,379.99 507.402,380.379 509.862,380.751 512.322,381.108 514.783,381.449 517.242,381.776 519.703,382.091 522.163,382.392 524.623,382.682 527.084,382.961 529.544,383.229 532.004,383.487 534.465,383.735 536.925,383.974 539.385,384.205 541.845,384.427 544.306,384.642 546.766,384.849 549.226,385.049 551.686,385.242 554.146,385.429 556.607,385.609 559.067,385.783 561.527,385.952 563.988,386.115 566.448,386.273 568.908,386.425 571.368,386.573 573.829,386.716 576.289,386.854 578.749,386.988 581.209,387.118 583.669,387.244 586.13,387.366 588.59,387.484 591.05,387.599 593.51,387.71 595.971,387.817 598.431,387.922 600.891,388.023 603.352,388.121 605.812,388.216 608.272,388.308 610.732,388.398 613.193,388.485 615.653,388.569 618.113,388.651 620.573,388.73 623.033,388.807 625.494,388.882 627.954,388.954 630.414,389.025 632.875,389.093 635.335,389.159 637.795,389.224 640.255,389.286 642.715,389.347 645.176,389.406 647.636,389.463 650.096,389.519 652.556,389.573 655.017,389.625 657.477,389.676 659.937,389.725 662.398,389.773 664.858,389.82 667.318,389.865 669.778,389.909 672.238,389.951 674.699,389.993 677.159,390.033 679.619,390.072 682.08,390.11 684.54,390.147 687,390.183 " />
</g>
</g>
</svg>
