<?xml version="1.0" encoding="UTF-8" standalone="no"?>
<svg width="201.083mm" height="121.003mm"
 viewBox="0 0 570 343"
 xmlns="http://www.w3.org/2000/svg" xmlns:xlink="http://www.w3.org/1999/xlink"  version="1.2" baseProfile="tiny">
<title>Qt SVG Document</title>
<defs>
</defs>
<g fill="none" stroke="black" stroke-width="1" fill-rule="evenodd" stroke-linecap="square" stroke-linejoin="bevel" >

<g fill="#ffffff" fill-opacity="1" stroke="none" transform="matrix(0.75,0,0,0.75,0,0)"
font-family="Microsoft YaHei UI" font-size="9" font-weight="400" font-style="normal" 
>
<path vector-effect="none" fill-rule="evenodd" d="M0,0 L760,0 L760,458 L0,458 L0,0"/>
</g>

<g fill="#ffffff" fill-opacity="1" stroke="none" transform="matrix(7.5e-05,0,0,7.5e-05,0,0)"
font-family="Microsoft YaHei UI" font-size="9" font-weight="400" font-style="normal" 
>
<path vector-effect="none" fill-rule="evenodd" d="M990000,340000 L990000,4.07e+06 L6.87e+06,4.07e+06 L6.87e+06,340000 L990000,340000"/>
</g>

<g fill="#000000" fill-opacity="1" stroke="#000000" stroke-opacity="1" stroke-width="1" stroke-linecap="square" stroke-linejoin="bevel" transform="matrix(0.75,0,0,0.75,275.25,331.25)"
font-family="Helvetica" font-size="14" font-weight="400" font-style="normal" 
>
<text fill="#000000" fill-opacity="1" stroke="none" xml:space="preserve" x="0" y="0" font-family="Helvetica" font-size="14" font-weight="400" font-style="normal" 
 >Time (s)</text>
</g>

<g fill="#000000" fill-opacity="1" stroke="#000000" stroke-opacity="1" stroke-width="0.666667" stroke-linecap="square" stroke-linejoin="round" transform="matrix(0.75,0,0,0.75,0,0)"
font-family="Helvetica" font-size="14" font-weight="400" font-style="normal" 
>
<polyline fill="none" vector-effect="none" points="99,407 687,407 " />
<polyline fill="none" vector-effect="none" points="99,34 687,34 " />
<polyline fill="none" vector-effect="none" points="99,407 99,401.12 " />
<polyline fill="none" vector-effect="none" points="99,39.88 99,34 " />
<polyline fill="none" vector-effect="none" points="157.8,407 157.8,401.12 " />
<polyline fill="none" vector-effect="none" points="157.8,39.88 157.8,34 " />
<polyline fill="none" vector-effect="none" points="216.6,407 216.6,401.12 " />
<polyline fill="none" vector-effect="none" points="216.6,39.88 216.6,34 " />
<polyline fill="none" vector-effect="none" points="275.4,407 275.4,401.12 " />
<polyline fill="none" vector-effect="none" points="275.4,39.88 275.4,34 " />
<polyline fill="none" vector-effect="none" points="334.2,407 334.2,401.12 " />
<polyline fill="none" vector-effect="none" points="334.2,39.88 334.2,34 " />
<polyline fill="none" vector-effect="none" points="393,407 393,401.12 " />
<polyline fill="none" vector-effect="none" points="393,39.88 393,34 " />
<polyline fill="none" vector-effect="none" points="451.8,407 451.8,401.12 " />
<polyline fill="none" vector-effect="none" points="451.8,39.88 451.8,34 " />
<polyline fill="none" vector-effect="none" points="510.6,407 510.6,401.12 " />
<polyline fill="none" vector-effect="none" points="510.6,39.88 510.6,34 " />
<polyline fill="none" vector-effect="none" points="569.4,407 569.4,401.12 " />
<polyline fill="none" vector-effect="none" points="569.4,39.88 569.4,34 " />
<polyline fill="none" vector-effect="none" points="628.2,407 628.2,401.12 " />
<polyline fill="none" vector-effect="none" points="628.2,39.88 628.2,34 " />
<polyline fill="none" vector-effect="none" points="687,407 687,401.12 " />
<polyline fill="none" vector-effect="none" points="687,39.88 687,34 " />
</g>

<g fill="#000000" fill-opacity="1" stroke="#000000" stroke-opacity="1" stroke-width="1" stroke-linecap="square" stroke-linejoin="bevel" transform="matrix(0.75,0,0,0.75,71.625,318.25)"
font-family="Helvetica" font-size="13" font-weight="400" font-style="normal" 
>
<text fill="#000000" fill-opacity="1" stroke="none" xml:space="preserve" x="0" y="0" font-family="Helvetica" font-size="13" font-weight="400" font-style="normal" 
 >0</text>
</g>

<g fill="#000000" fill-opacity="1" stroke="#000000" stroke-opacity="1" stroke-width="1" stroke-linecap="square" stroke-linejoin="bevel" transform="matrix(0.75,0,0,0.75,115.725,318.25)"
font-family="Helvetica" font-size="13" font-weight="400" font-style="normal" 
>
<text fill="#000000" fill-opacity="1" stroke="none" xml:space="preserve" x="0" y="0" font-family="Helvetica" font-size="13" font-weight="400" font-style="normal" 
 >1</text>
</g>

<g fill="#000000" fill-opacity="1" stroke="#000000" stroke-opacity="1" stroke-width="1" stroke-linecap="square" stroke-linejoin="bevel" transform="matrix(0.75,0,0,0.75,159.825,318.25)"
font-family="Helvetica" font-size="13" font-weight="400" font-style="normal" 
>
<text fill="#000000" fill-opacity="1" stroke="none" xml:space="preserve" x="0" y="0" font-family="Helvetica" font-size="13" font-weight="400" font-style="normal" 
 >2</text>
</g>

<g fill="#000000" fill-opacity="1" stroke="#000000" stroke-opacity="1" stroke-width="1" stroke-linecap="square" stroke-linejoin="bevel" transform="matrix(0.75,0,0,0.75,203.925,318.25)"
font-family="Helvetica" font-size="13" font-weight="400" font-style="normal" 
>
<text fill="#000000" fill-opacity="1" stroke="none" xml:space="preserve" x="0" y="0" font-family="Helvetica" font-size="13" font-weight="400" font-style="normal" 
 >3</text>
</g>

<g fill="#000000" fill-opacity="1" stroke="#000000" stroke-opacity="1" stroke-width="1" stroke-linecap="square" stroke-linejoin="bevel" transform="matrix(0.75,0,0,0.75,248.025,318.25)"
font-family="Helvetica" font-size="13" font-weight="400" font-style="normal" 
>
<text fill="#000000" fill-opacity="1" stroke="none" xml:space="preserve" x="0" y="0" font-family="Helvetica" font-size="13" font-weight="400" font-style="normal" 
 >4</text>
</g>

<g fill="#000000" fill-opacity="1" stroke="#000000" stroke-opacity="1" stroke-width="1" stroke-linecap="square" stroke-linejoin="bevel" transform="matrix(0.75,0,0,0.75,292.125,318.25)"
font-family="Helvetica" font-size="13" font-weight="400" font-style="normal" 
>
<text fill="#000000" fill-opacity="1" stroke="none" xml:space="preserve" x="0" y="0" font-family="Helvetica" font-size="13" font-weight="400" font-style="normal" 
 >5</text>
</g>

<g fill="#000000" fill-opacity="1" stroke="#000000" stroke-opacity="1" stroke-width="1" stroke-linecap="square" stroke-linejoin="bevel" transform="matrix(0.75,0,0,0.75,336.225,318.25)"
font-family="Helvetica" font-size="13" font-weight="400" font-style="normal" 
>
<text fill="#000000" fill-opacity="1" stroke="none" xml:space="preserve" x="0" y="0" font-family="Helvetica" font-size="13" font-weight="400" font-style="normal" 
 >6</text>
</g>

<g fill="#000000" fill-opacity="1" stroke="#000000" stroke-opacity="1" stroke-width="1" stroke-linecap="square" stroke-linejoin="bevel" transform="matrix(0.75,0,0,0.75,380.325,318.25)"
font-family="Helvetica" font-size="13" font-weight="400" font-style="normal" 
>
<text fill="#000000" fill-opacity="1" stroke="none" xml:space="preserve" x="0" y="0" font-family="Helvetica" font-size="13" font-weight="400" font-style="normal" 
 >7</text>
</g>

<g fill="#000000" fill-opacity="1" stroke="#000000" stroke-opacity="1" stroke-width="1" stroke-linecap="square" stroke-linejoin="bevel" transform="matrix(0.75,0,0,0.75,424.425,318.25)"
font-family="Helvetica" font-size="13" font-weight="400" font-style="normal" 
>
<text fill="#000000" fill-opacity="1" stroke="none" xml:space="preserve" x="0" y="0" font-family="Helvetica" font-size="13" font-weight="400" font-style="normal" 
 >8</text>
</g>

<g fill="#000000" fill-opacity="1" stroke="#000000" stroke-opacity="1" stroke-width="1" stroke-linecap="square" stroke-linejoin="bevel" transform="matrix(0.75,0,0,0.75,468.525,318.25)"
font-family="Helvetica" font-size="13" font-weight="400" font-style="normal" 
>
<text fill="#000000" fill-opacity="1" stroke="none" xml:space="preserve" x="0" y="0" font-family="Helvetica" font-size="13" font-weight="400" font-style="normal" 
 >9</text>
</g>

<g fill="#000000" fill-opacity="1" stroke="#000000" stroke-opacity="1" stroke-width="1" stroke-linecap="square" stroke-linejoin="bevel" transform="matrix(0.75,0,0,0.75,510,318.25)"
font-family="Helvetica" font-size="13" font-weight="400" font-style="normal" 
>
<text fill="#000000" fill-opacity="1" stroke="none" xml:space="preserve" x="0" y="0" font-family="Helvetica" font-size="13" font-weight="400" font-style="normal" 
 >10</text>
</g>

<g fill="#000000" fill-opacity="1" stroke="#000000" stroke-opacity="1" stroke-width="1" stroke-linecap="square" stroke-linejoin="bevel" transform="matrix(0,-0.75,0.75,0,47.75,206.625)"
font-family="Helvetica" font-size="14" font-weight="400" font-style="normal" 
>
<text fill="#000000" fill-opacity="1" stroke="none" xml:space="preserve" x="0" y="0" font-family="Helvetica" font-size="14" font-weight="400" font-style="normal" 
 >Normalized value</text>
</g>

<g fill="#000000" fill-opacity="1" stroke="#000000" stroke-opacity="1" stroke-width="0.666667" stroke-linecap="square" stroke-linejoin="round" transform="matrix(0.75,0,0,0.75,0,0)"
font-family="Helvetica" font-size="14" font-weight="400" font-style="normal" 
>
<polyline fill="none" vector-effect="none" points="99,407 99,34 " />
<polyline fill="none" vector-effect="none" points="687,407 687,34 " />
<polyline fill="none" vector-effect="none" points="99,407 104.88,407 " />
<polyline fill="none" vector-effect="none" points="681.12,407 687,407 " />
<polyline fill="none" vector-effect="none" points="99,360.375 104.88,360.375 " />
<polyline fill="none" vector-effect="none" points="681.12,360.375 687,360.375 " />
<polyline fill="none" vector-effect="none" points="99,313.75 104.88,313.75 " />
<polyline fill="none" vector-effect="none" points="681.12,313.75 687,313.75 " />
<polyline fill="none" vector-effect="none" points="99,267.125 104.88,267.125 " />
<polyline fill="none" vector-effect="none" points="681.12,267.125 687,267.125 " />
<polyline fill="none" vector-effect="none" points="99,220.5 104.88,220.5 " />
<polyline fill="none" vector-effect="none" points="681.12,220.5 687,220.5 " />
<polyline fill="none" vector-effect="none" points="99,173.875 104.88,173.875 " />
<polyline fill="none" vector-effect="none" points="681.12,173.875 687,173.875 " />
<polyline fill="none" vector-effect="none" points="99,127.25 104.88,127.25 " />
<polyline fill="none" vector-effect="none" points="681.12,127.25 687,127.25 " />
<polyline fill="none" vector-effect="none" points="99,80.625 104.88,80.625 " />
<polyline fill="none" vector-effect="none" points="681.12,80.625 687,80.625 " />
<polyline fill="none" vector-effect="none" points="99,34 104.88,34 " />
<polyline fill="none" vector-effect="none" points="681.12,34 687,34 " />
</g>

<g fill="#000000" fill-opacity="1" stroke="#000000" stroke-opacity="1" stroke-width="1" stroke-linecap="square" stroke-linejoin="bevel" transform="matrix(0.75,0,0,0.75,53.75,308.625)"
font-family="Helvetica" font-size="13" font-weight="400" font-style="normal" 
>
<text fill="#000000" fill-opacity="1" stroke="none" xml:space="preserve" x="0" y="0" font-family="Helvetica" font-size="13" font-weight="400" font-style="normal" 
 >-0.2</text>
</g>

<g fill="#000000" fill-opacity="1" stroke="#000000" stroke-opacity="1" stroke-width="1" stroke-linecap="square" stroke-linejoin="bevel" transform="matrix(0.75,0,0,0.75,65,273.656)"
font-family="Helvetica" font-size="13" font-weight="400" font-style="normal" 
>
<text fill="#000000" fill-opacity="1" stroke="none" xml:space="preserve" x="0" y="0" font-family="Helvetica" font-size="13" font-weight="400" font-style="normal" 
 >0</text>
</g>

<g fill="#000000" fill-opacity="1" stroke="#000000" stroke-opacity="1" stroke-width="1" stroke-linecap="square" stroke-linejoin="bevel" transform="matrix(0.75,0,0,0.75,56.75,238.688)"
font-family="Helvetica" font-size="13" font-weight="400" font-style="normal" 
>
<text fill="#000000" fill-opacity="1" stroke="none" xml:space="preserve" x="0" y="0" font-family="Helvetica" font-size="13" font-weight="400" font-style="normal" 
 >0.2</text>
</g>

<g fill="#000000" fill-opacity="1" stroke="#000000" stroke-opacity="1" stroke-width="1" stroke-linecap="square" stroke-linejoin="bevel" transform="matrix(0.75,0,0,0.75,56.75,203.719)"
font-family="Helvetica" font-size="13" font-weight="400" font-style="normal" 
>
<text fill="#000000" fill-opacity="1" stroke="none" xml:space="preserve" x="0" y="0" font-family="Helvetica" font-size="13" font-weight="400" font-style="normal" 
 >0.4</text>
</g>

<g fill="#000000" fill-opacity="1" stroke="#000000" stroke-opacity="1" stroke-width="1" stroke-linecap="square" stroke-linejoin="bevel" transform="matrix(0.75,0,0,0.75,56.75,168.75)"
font-family="Helvetica" font-size="13" font-weight="400" font-style="normal" 
>
<text fill="#000000" fill-opacity="1" stroke="none" xml:space="preserve" x="0" y="0" font-family="Helvetica" font-size="13" font-weight="400" font-style="normal" 
 >0.6</text>
</g>

<g fill="#000000" fill-opacity="1" stroke="#000000" stroke-opacity="1" stroke-width="1" stroke-linecap="square" stroke-linejoin="bevel" transform="matrix(0.75,0,0,0.75,56.75,133.781)"
font-family="Helvetica" font-size="13" font-weight="400" font-style="normal" 
>
<text fill="#000000" fill-opacity="1" stroke="none" xml:space="preserve" x="0" y="0" font-family="Helvetica" font-size="13" font-weight="400" font-style="normal" 
 >0.8</text>
</g>

<g fill="#000000" fill-opacity="1" stroke="#000000" stroke-opacity="1" stroke-width="1" stroke-linecap="square" stroke-linejoin="bevel" transform="matrix(0.75,0,0,0.75,65,98.8125)"
font-family="Helvetica" font-size="13" font-weight="400" font-style="normal" 
>
<text fill="#000000" fill-opacity="1" stroke="none" xml:space="preserve" x="0" y="0" font-family="Helvetica" font-size="13" font-weight="400" font-style="normal" 
 >1</text>
</g>

<g fill="#000000" fill-opacity="1" stroke="#000000" stroke-opacity="1" stroke-width="1" stroke-linecap="square" stroke-linejoin="bevel" transform="matrix(0.75,0,0,0.75,56.75,63.8437)"
font-family="Helvetica" font-size="13" font-weight="400" font-style="normal" 
>
<text fill="#000000" fill-opacity="1" stroke="none" xml:space="preserve" x="0" y="0" font-family="Helvetica" font-size="13" font-weight="400" font-style="normal" 
 >1.2</text>
</g>

<g fill="#000000" fill-opacity="1" stroke="#000000" stroke-opacity="1" stroke-width="1" stroke-linecap="square" stroke-linejoin="bevel" transform="matrix(0.75,0,0,0.75,56.75,28.875)"
font-family="Helvetica" font-size="13" font-weight="400" font-style="normal" 
>
<text fill="#000000" fill-opacity="1" stroke="none" xml:space="preserve" x="0" y="0" font-family="Helvetica" font-size="13" font-weight="400" font-style="normal" 
 >1.4</text>
</g>

<g fill="none" stroke="#268cdd" stroke-opacity="1" stroke-dasharray="10,6" stroke-dashoffset="0" stroke-width="0.666667" stroke-linecap="butt" stroke-linejoin="round" transform="matrix(0.75,0,0,0.75,0,0)"
font-family="Helvetica" font-size="13" font-weight="400" font-style="normal" 
>
<polyline fill="none" vector-effect="none" points="99,127.25 100.176,127.25 101.352,127.25 102.528,127.25 103.704,127.25 104.88,127.25 106.056,127.25 107.232,127.25 108.408,127.25 109.584,127.25 110.76,127.25 111.936,127.25 113.112,127.25 114.288,127.25 115.464,127.25 116.64,127.25 117.816,127.25 118.992,127.25 120.168,127.25 121.344,127.25 122.52,127.25 123.696,127.25 124.872,127.25 126.048,127.25 127.224,127.25 128.4,127.25 129.576,127.25 130.752,127.25 131.928,127.25 133.104,127.25 134.28,127.25 135.456,127.25 136.632,127.25 137.808,127.25 138.984,127.25 140.16,127.25 141.336,127.25 142.512,127.25 143.688,127.25 144.864,127.25 146.04,127.25 147.216,127.25 148.392,127.25 149.568,127.25 150.744,127.25 151.92,127.25 153.096,127.25 154.272,127.25 155.448,127.25 156.624,127.25 157.8,127.25 158.976,127.25 160.152,127.25 161.328,127.25 162.504,127.25 163.68,127.25 164.856,127.25 166.032,127.25 167.208,127.25 168.384,127.25 169.56,127.25 170.736,127.25 171.912,127.25 173.088,127.25 174.264,127.25 175.44,127.25 176.616,127.25 177.792,127.25 178.968,127.25 180.144,127.25 181.32,127.25 182.496,127.25 183.672,127.25 184.848,127.25 186.024,127.25 187.2,127.25 188.376,127.25 189.552,127.25 190.728,127.25 191.904,127.25 193.08,127.25 194.256,127.25 195.432,127.25 196.608,127.25 197.784,127.25 198.96,127.25 200.136,127.25 201.312,127.25 202.488,127.25 203.664,127.25 204.84,127.25 206.016,127.25 207.192,127.25 208.368,127.25 209.544,127.25 210.72,127.25 211.896,127.25 213.072,127.25 214.248,127.25 215.424,127.25 216.6,127.25 217.776,127.25 218.952,127.25 220.128,127.25 221.304,127.25 222.48,127.25 223.656,127.25 224.832,127.25 226.008,127.25 227.184,127.25 228.36,127.25 229.536,127.25 230.712,127.25 231.888,127.25 233.064,127.25 234.24,127.25 235.416,127.25 236.592,127.25 237.768,127.25 238.944,127.25 240.12,127.25 241.296,127.25 242.472,127.25 243.648,127.25 244.824,127.25 246,127.25 247.176,127.25 248.352,127.25 249.528,127.25 250.704,127.25 251.88,127.25 253.056,127.25 254.232,127.25 255.408,127.25 256.584,127.25 257.76,127.25 258.936,127.25 260.112,127.25 261.288,127.25 262.464,127.25 263.64,127.25 264.816,127.25 265.992,127.25 267.168,127.25 268.344,127.25 269.52,127.25 270.696,127.25 271.872,127.25 273.048,127.25 274.224,127.25 275.4,127.25 276.576,127.25 277.752,127.25 278.928,127.25 280.104,127.25 281.28,127.25 282.456,127.25 283.632,127.25 284.808,127.25 285.984,127.25 287.16,127.25 288.336,127.25 289.512,127.25 290.688,127.25 291.864,127.25 293.04,127.25 294.216,127.25 295.392,127.25 296.568,127.25 297.744,127.25 298.92,127.25 300.096,127.25 301.272,127.25 302.448,127.25 303.624,127.25 304.8,127.25 305.976,127.25 307.152,127.25 308.328,127.25 309.504,127.25 310.68,127.25 311.856,127.25 313.032,127.25 314.208,127.25 315.384,127.25 316.56,127.25 317.736,127.25 318.912,127.25 320.088,127.25 321.264,127.25 322.44,127.25 323.616,127.25 324.792,127.25 325.968,127.25 327.144,127.25 328.32,127.25 329.496,127.25 330.672,127.25 331.848,127.25 333.024,127.25 334.2,127.25 335.376,127.25 336.552,127.25 337.728,127.25 338.904,127.25 340.08,127.25 341.256,127.25 342.432,127.25 343.608,127.25 344.784,127.25 345.96,127.25 347.136,127.25 348.312,127.25 349.488,127.25 350.664,127.25 351.84,127.25 353.016,127.25 354.192,127.25 355.368,127.25 356.544,127.25 357.72,127.25 358.896,127.25 360.072,127.25 361.248,127.25 362.424,127.25 363.6,127.25 364.776,127.25 365.952,127.25 367.128,127.25 368.304,127.25 369.48,127.25 370.656,127.25 371.832,127.25 373.008,127.25 374.184,127.25 375.36,127.25 376.536,127.25 377.712,127.25 378.888,127.25 380.064,127.25 381.24,127.25 382.416,127.25 383.592,127.25 384.768,127.25 385.944,127.25 387.12,127.25 388.296,127.25 389.472,127.25 390.648,127.25 391.824,127.25 393,127.25 394.176,127.25 395.352,127.25 396.528,127.25 397.704,127.25 398.88,127.25 400.056,127.25 401.232,127.25 402.408,127.25 403.584,127.25 404.76,127.25 405.936,127.25 407.112,127.25 408.288,127.25 409.464,127.25 410.64,127.25 411.816,127.25 412.992,127.25 414.168,127.25 415.344,127.25 416.52,127.25 417.696,127.25 418.872,127.25 420.048,127.25 421.224,127.25 422.4,127.25 423.576,127.25 424.752,127.25 425.928,127.25 427.104,127.25 428.28,127.25 429.456,127.25 430.632,127.25 431.808,127.25 432.984,127.25 434.16,127.25 435.336,127.25 436.512,127.25 437.688,127.25 438.864,127.25 440.04,127.25 441.216,127.25 442.392,127.25 443.568,127.25 444.744,127.25 445.92,127.25 447.096,127.25 448.272,127.25 449.448,127.25 450.624,127.25 451.8,127.25 452.976,127.25 454.152,127.25 455.328,127.25 456.504,127.25 457.68,127.25 458.856,127.25 460.032,127.25 461.208,127.25 462.384,127.25 463.56,127.25 464.736,127.25 465.912,127.25 467.088,127.25 468.264,127.25 469.44,127.25 470.616,127.25 471.792,127.25 472.968,127.25 474.144,127.25 475.32,127.25 476.496,127.25 477.672,127.25 478.848,127.25 480.024,127.25 481.2,127.25 482.376,127.25 483.552,127.25 484.728,127.25 485.904,127.25 487.08,127.25 488.256,127.25 489.432,127.25 490.608,127.25 491.784,127.25 492.96,127.25 494.136,127.25 495.312,127.25 496.488,127.25 497.664,127.25 498.84,127.25 500.016,127.25 501.192,127.25 502.368,127.25 503.544,127.25 504.72,127.25 505.896,127.25 507.072,127.25 508.248,127.25 509.424,127.25 510.6,127.25 511.776,127.25 512.952,127.25 514.128,127.25 515.304,127.25 516.48,127.25 517.656,127.25 518.832,127.25 520.008,127.25 521.184,127.25 522.36,127.25 523.536,127.25 524.712,127.25 525.888,127.25 527.064,127.25 528.24,127.25 529.416,127.25 530.592,127.25 531.768,127.25 532.944,127.25 534.12,127.25 535.296,127.25 536.472,127.25 537.648,127.25 538.824,127.25 540,127.25 541.176,127.25 542.352,127.25 543.528,127.25 544.704,127.25 545.88,127.25 547.056,127.25 548.232,127.25 549.408,127.25 550.584,127.25 551.76,127.25 552.936,127.25 554.112,127.25 555.288,127.25 556.464,127.25 557.64,127.25 558.816,127.25 559.992,127.25 561.168,127.25 562.344,127.25 563.52,127.25 564.696,127.25 565.872,127.25 567.048,127.25 568.224,127.25 569.4,127.25 570.576,127.25 571.752,127.25 572.928,127.25 574.104,127.25 575.28,127.25 576.456,127.25 577.632,127.25 578.808,127.25 579.984,127.25 581.16,127.25 582.336,127.25 583.512,127.25 584.688,127.25 585.864,127.25 587.04,127.25 588.216,127.25 589.392,127.25 590.568,127.25 591.744,127.25 592.92,127.25 594.096,127.25 595.272,127.25 596.448,127.25 597.624,127.25 598.8,127.25 599.976,127.25 601.152,127.25 602.328,127.25 603.504,127.25 604.68,127.25 605.856,127.25 607.032,127.25 608.208,127.25 609.384,127.25 610.56,127.25 611.736,127.25 612.912,127.25 614.088,127.25 615.264,127.25 616.44,127.25 617.616,127.25 618.792,127.25 619.968,127.25 621.144,127.25 622.32,127.25 623.496,127.25 624.672,127.25 625.848,127.25 627.024,127.25 628.2,127.25 629.376,127.25 630.552,127.25 631.728,127.25 632.904,127.25 634.08,127.25 635.256,127.25 636.432,127.25 637.608,127.25 638.784,127.25 639.96,127.25 641.136,127.25 642.312,127.25 643.488,127.25 644.664,127.25 645.84,127.25 647.016,127.25 648.192,127.25 649.368,127.25 650.544,127.25 651.72,127.25 652.896,127.25 654.072,127.25 655.248,127.25 656.424,127.25 657.6,127.25 658.776,127.25 659.952,127.25 661.128,127.25 662.304,127.25 663.48,127.25 664.656,127.25 665.832,127.25 667.008,127.25 668.184,127.25 669.36,127.25 670.536,127.25 671.712,127.25 672.888,127.25 674.064,127.25 675.24,127.25 676.416,127.25 677.592,127.25 678.768,127.25 679.944,127.25 681.12,127.25 682.296,127.25 683.472,127.25 684.648,127.25 685.824,127.25 687,127.25 " />
</g>

<g fill="none" stroke="#f57729" stroke-opacity="1" stroke-width="0.666667" stroke-linecap="butt" stroke-linejoin="round" transform="matrix(0.75,0,0,0.75,0,0)"
font-family="Helvetica" font-size="13" font-weight="400" font-style="normal" 
>
<polyline fill="none" vector-effect="none" points="99,360.375 100.176,359.466 101.352,357.997 102.528,355.969 103.704,353.451 104.88,350.421 106.056,346.9 107.232,342.961 108.408,338.601 109.584,333.869 110.76,328.74 111.936,323.285 113.112,317.527 114.288,311.465 115.464,305.148 116.64,298.597 117.816,291.836 118.992,284.889 120.168,277.779 121.344,270.529 122.52,263.162 123.696,255.725 124.872,248.195 126.048,240.642 127.224,233.042 128.4,225.442 129.576,217.866 130.752,210.312 131.928,202.829 133.104,195.416 134.28,188.072 135.456,180.845 136.632,173.712 137.808,166.741 138.984,159.887 140.16,153.22 141.336,146.693 142.512,140.375 143.688,134.22 144.864,128.276 146.04,122.541 147.216,117.016 148.392,111.724 149.568,106.642 150.744,101.816 151.92,97.2002 153.096,92.8407 154.272,88.7378 155.448,84.8446 156.624,81.2311 157.8,77.8508 158.976,74.7036 160.152,71.8129 161.328,69.1786 162.504,66.7774 163.68,64.6326 164.856,62.6977 166.032,61.0192 167.208,59.5738 168.384,58.3382 169.56,57.3358 170.736,56.5432 171.912,55.9604 173.088,55.5874 174.264,55.4009 175.44,55.4009 176.616,55.6107 177.792,55.9837 178.968,56.5432 180.144,57.2426 181.32,58.1051 182.496,59.1309 183.672,60.2732 184.848,61.5554 186.024,62.9774 187.2,64.4928 188.376,66.1246 189.552,67.8731 190.728,69.6914 191.904,71.6031 193.08,73.5846 194.256,75.6361 195.432,77.7576 196.608,79.9256 197.784,82.1403 198.96,84.3783 200.136,86.6629 201.312,88.9709 202.488,91.3021 203.664,93.6334 204.84,95.9646 206.016,98.2959 207.192,100.627 208.368,102.935 209.544,105.243 210.72,107.504 211.896,109.766 213.072,111.957 214.248,114.125 215.424,116.27 216.6,118.345 217.776,120.373 218.952,122.331 220.128,124.266 221.304,126.108 222.48,127.903 223.656,129.651 224.832,131.306 226.008,132.892 227.184,134.43 228.36,135.876 229.536,137.251 230.712,138.557 231.888,139.769 233.064,140.934 234.24,142.007 235.416,143.009 236.592,143.918 237.768,144.781 238.944,145.55 240.12,146.25 241.296,146.856 242.472,147.415 243.648,147.905 244.824,148.301 246,148.651 247.176,148.931 248.352,149.117 249.528,149.28 250.704,149.35 251.88,149.374 253.056,149.35 254.232,149.257 255.408,149.094 256.584,148.907 257.76,148.651 258.936,148.371 260.112,148.045 261.288,147.648 262.464,147.229 263.64,146.786 264.816,146.296 265.992,145.783 267.168,145.224 268.344,144.641 269.52,144.058 270.696,143.429 271.872,142.776 273.048,142.123 274.224,141.447 275.4,140.771 276.576,135.876 277.752,131.097 278.928,126.481 280.104,122.075 281.28,117.902 282.456,114.032 283.632,110.488 284.808,107.318 285.984,104.544 287.16,102.166 288.336,100.231 289.512,98.7388 290.688,97.7131 291.864,97.1069 293.04,96.9671 294.216,97.2468 295.392,97.9462 296.568,99.0419 297.744,100.511 298.92,102.306 300.096,104.404 301.272,106.782 302.448,109.393 303.624,112.19 304.8,115.127 305.976,118.158 307.152,121.235 308.328,124.336 309.504,127.39 310.68,130.374 311.856,133.241 313.032,135.946 314.208,138.463 315.384,140.748 316.56,142.776 317.736,144.525 318.912,145.993 320.088,147.112 321.264,147.928 322.44,148.394 323.616,148.534 324.792,148.324 325.968,147.788 327.144,146.926 328.32,145.76 329.496,144.291 330.672,142.566 331.848,140.608 333.024,138.44 334.2,136.062 335.376,133.568 336.552,130.957 337.728,128.252 338.904,125.502 340.08,122.774 341.256,120.046 342.432,117.412 343.608,114.848 344.784,112.447 345.96,110.185 347.136,108.134 348.312,106.292 349.488,104.684 350.664,103.331 351.84,102.259 353.016,101.466 354.192,100.977 355.368,100.79 356.544,100.884 357.72,101.28 358.896,101.956 360.072,102.935 361.248,104.147 362.424,105.639 363.6,107.341 364.776,109.229 365.952,111.328 367.128,113.566 368.304,115.92 369.48,118.391 370.656,120.909 371.832,123.45 373.008,126.014 374.184,128.555 375.36,131.027 376.536,133.405 377.712,135.666 378.888,137.787 380.064,139.769 381.24,141.541 382.416,143.126 383.592,144.478 384.768,145.62 385.944,146.506 387.12,147.136 388.296,147.532 389.472,147.672 390.648,147.555 391.824,147.206 393,146.599 394.176,145.807 395.352,144.781 396.528,143.569 397.704,142.193 398.88,140.655 400.056,138.976 401.232,137.204 402.408,135.363 403.584,133.451 404.76,131.516 405.936,129.558 407.112,127.623 408.288,125.758 409.464,123.94 410.64,122.191 411.816,120.583 412.992,119.091 414.168,117.739 415.344,116.55 416.52,115.547 417.696,114.708 418.872,114.078 420.048,113.635 421.224,113.379 422.4,113.356 423.576,113.496 424.752,113.845 425.928,114.358 427.104,115.058 428.28,115.92 429.456,116.923 430.632,118.065 431.808,119.3 432.984,120.653 434.16,122.075 435.336,123.567 436.512,125.082 437.688,126.621 438.864,128.159 440.04,129.674 441.216,131.143 442.392,132.542 443.568,133.871 444.744,135.083 445.92,136.202 447.096,137.204 448.272,138.044 449.448,138.766 450.624,139.326 451.8,139.722 452.976,139.955 454.152,140.025 455.328,139.932 456.504,139.676 457.68,139.256 458.856,138.696 460.032,138.02 461.208,137.181 462.384,136.249 463.56,135.2 464.736,134.057 465.912,132.845 467.088,131.563 468.264,130.257 469.44,128.928 470.616,127.576 471.792,126.248 472.968,124.942 474.144,123.683 475.32,122.471 476.496,121.329 477.672,120.28 478.848,119.324 480.024,118.461 481.2,117.739 482.376,117.132 483.552,116.666 484.728,116.316 485.904,116.13 487.08,116.06 488.256,116.13 489.432,116.34 490.608,116.666 491.784,117.132 492.96,117.715 494.136,118.391 495.312,119.184 496.488,120.046 497.664,120.979 498.84,121.981 500.016,123.03 501.192,124.126 502.368,125.222 503.544,126.318 504.72,127.437 505.896,128.509 507.072,129.535 508.248,130.537 509.424,131.47 510.6,132.332 511.776,133.125 512.952,133.824 514.128,134.407 515.304,134.896 516.48,135.293 517.656,135.573 518.832,135.736 520.008,135.782 521.184,135.736 522.36,135.549 523.536,135.293 524.712,134.92 525.888,134.454 527.064,133.894 528.24,133.265 529.416,132.565 530.592,131.796 531.768,131.003 532.944,130.164 534.12,129.302 535.296,128.416 536.472,127.53 537.648,126.644 538.824,125.805 540,124.989 541.176,124.196 542.352,123.473 543.528,122.797 544.704,122.191 545.88,121.655 547.056,121.212 548.232,120.839 549.408,120.583 550.584,120.396 551.76,120.303 552.936,120.303 554.112,120.373 555.288,120.559 556.464,120.816 557.64,121.165 558.816,121.585 559.992,122.051 561.168,122.611 562.344,123.194 563.52,123.846 564.696,124.522 565.872,125.245 567.048,125.968 568.224,126.69 569.4,127.437 570.576,128.159 571.752,128.859 572.928,129.535 574.104,130.164 575.28,130.77 576.456,131.306 577.632,131.796 578.808,132.216 579.984,132.565 581.16,132.845 582.336,133.055 583.512,133.195 584.688,133.241 585.864,133.241 587.04,133.148 588.216,132.985 589.392,132.752 590.568,132.449 591.744,132.076 592.92,131.656 594.096,131.19 595.272,130.677 596.448,130.141 597.624,129.558 598.8,128.975 599.976,128.369 601.152,127.74 602.328,127.133 603.504,126.527 604.68,125.945 605.856,125.385 607.032,124.872 608.208,124.383 609.384,123.94 610.56,123.543 611.736,123.194 612.912,122.914 614.088,122.681 615.264,122.518 616.44,122.401 617.616,122.354 618.792,122.378 619.968,122.471 621.144,122.611 622.32,122.797 623.496,123.054 624.672,123.357 625.848,123.706 627.024,124.079 628.2,124.499 629.376,124.965 630.552,125.432 631.728,125.921 632.904,126.411 634.08,126.924 635.256,127.413 636.432,127.903 637.608,128.369 638.784,128.812 639.96,129.232 641.136,129.628 642.312,129.978 643.488,130.304 644.664,130.584 645.84,130.794 647.016,130.98 648.192,131.097 649.368,131.167 650.544,131.19 651.72,131.167 652.896,131.073 654.072,130.957 655.248,130.794 656.424,130.56 657.6,130.304 658.776,130.024 659.952,129.698 661.128,129.348 662.304,128.975 663.48,128.579 664.656,128.182 665.832,127.763 667.008,127.367 668.184,126.947 669.36,126.551 670.536,126.178 671.712,125.805 672.888,125.478 674.064,125.152 675.24,124.872 676.416,124.616 677.592,124.406 678.768,124.243 679.944,124.103 681.12,124.01 682.296,123.963 683.472,123.963 684.648,124.01 685.824,124.079 687,124.196 " />
</g>

<g fill="none" stroke="#ffe864" stroke-opacity="1" stroke-width="0.666667" stroke-linecap="butt" stroke-linejoin="round" transform="matrix(0.75,0,0,0.75,0,0)"
font-family="Helvetica" font-size="13" font-weight="400" font-style="normal" 
>
<polyline fill="none" vector-effect="none" points="99,360.375 100.176,360.375 101.352,360.375 102.528,360.375 103.704,360.375 104.88,360.375 106.056,360.375 107.232,360.375 108.408,360.375 109.584,360.375 110.76,360.375 111.936,360.375 113.112,360.375 114.288,360.375 115.464,360.375 116.64,360.375 117.816,360.375 118.992,360.375 120.168,360.375 121.344,360.375 122.52,360.375 123.696,360.375 124.872,360.375 126.048,360.375 127.224,360.375 128.4,360.375 129.576,360.375 130.752,360.375 131.928,360.375 133.104,360.375 134.28,360.375 135.456,360.375 136.632,360.375 137.808,360.375 138.984,360.375 140.16,360.375 141.336,360.375 142.512,360.375 143.688,360.375 144.864,360.375 146.04,360.375 147.216,360.375 148.392,360.375 149.568,360.375 150.744,360.375 151.92,360.375 153.096,360.375 154.272,360.375 155.448,360.375 156.624,360.375 157.8,360.375 158.976,360.375 160.152,360.375 161.328,360.375 162.504,360.375 163.68,360.375 164.856,360.375 166.032,360.375 167.208,360.375 168.384,360.375 169.56,360.375 170.736,360.375 171.912,360.375 173.088,360.375 174.264,360.375 175.44,360.375 176.616,360.375 177.792,360.375 178.968,360.375 180.144,360.375 181.32,360.375 182.496,360.375 183.672,360.375 184.848,360.375 186.024,360.375 187.2,360.375 188.376,360.375 189.552,360.375 190.728,360.375 191.904,360.375 193.08,360.375 194.256,360.375 195.432,360.375 196.608,360.375 197.784,360.375 198.96,360.375 200.136,360.375 201.312,360.375 202.488,360.375 203.664,360.375 204.84,360.375 206.016,360.375 207.192,360.375 208.368,360.375 209.544,360.375 210.72,360.375 211.896,360.375 213.072,360.375 214.248,360.375 215.424,360.375 216.6,360.375 217.776,360.375 218.952,360.375 220.128,360.375 221.304,360.375 222.48,360.375 223.656,360.375 224.832,360.375 226.008,360.375 227.184,360.375 228.36,360.375 229.536,360.375 230.712,360.375 231.888,360.375 233.064,360.375 234.24,360.375 235.416,360.375 236.592,360.375 237.768,360.375 238.944,360.375 240.12,360.375 241.296,360.375 242.472,360.375 243.648,360.375 244.824,360.375 246,360.375 247.176,360.375 248.352,360.375 249.528,360.375 250.704,360.375 251.88,360.375 253.056,360.375 254.232,360.375 255.408,360.375 256.584,360.375 257.76,360.375 258.936,360.375 260.112,360.375 261.288,360.375 262.464,360.375 263.64,360.375 264.816,360.375 265.992,360.375 267.168,360.375 268.344,360.375 269.52,360.375 270.696,360.375 271.872,360.375 273.048,360.375 274.224,360.375 275.4,360.375 276.576,356.202 277.752,352.122 278.928,348.229 280.104,344.522 281.28,341.072 282.456,337.925 283.632,335.104 284.808,332.633 285.984,330.582 287.16,328.903 288.336,327.668 289.512,326.852 290.688,326.502 291.864,326.549 293.04,327.061 294.216,327.971 295.392,329.299 296.568,330.978 297.744,333.029 298.92,335.384 300.096,338.042 301.272,340.932 302.448,344.033 303.624,347.32 304.8,350.7 305.976,354.174 307.152,357.671 308.328,361.144 309.504,364.571 310.68,367.905 311.856,371.075 313.032,374.083 314.208,376.857 315.384,379.398 316.56,381.659 317.736,383.618 318.912,385.249 320.088,386.532 321.264,387.487 322.44,388.07 323.616,388.28 324.792,388.164 325.968,387.674 327.144,386.835 328.32,385.692 329.496,384.224 330.672,382.475 331.848,380.47 333.024,378.256 334.2,375.831 335.376,373.243 336.552,370.516 337.728,367.718 338.904,364.851 340.08,361.96 341.256,359.116 342.432,356.295 343.608,353.591 344.784,351.003 345.96,348.579 347.136,346.318 348.312,344.289 349.488,342.471 350.664,340.909 351.84,339.627 353.016,338.624 354.192,337.925 355.368,337.505 356.544,337.389 357.72,337.575 358.896,338.042 360.072,338.788 361.248,339.79 362.424,341.049 363.6,342.518 364.776,344.219 365.952,346.084 367.128,348.113 368.304,350.281 369.48,352.542 370.656,354.85 371.832,357.228 373.008,359.582 374.184,361.937 375.36,364.222 376.536,366.436 377.712,368.558 378.888,370.516 380.064,372.334 381.24,373.966 382.416,375.412 383.592,376.647 384.768,377.65 385.944,378.419 387.12,378.955 388.296,379.235 389.472,379.281 390.648,379.095 391.824,378.652 393,377.999 394.176,377.113 395.352,376.041 396.528,374.782 397.704,373.36 398.88,371.775 400.056,370.073 401.232,368.278 402.408,366.413 403.584,364.478 404.76,362.543 405.936,360.585 407.112,358.673 408.288,356.785 409.464,354.99 410.64,353.265 411.816,351.679 412.992,350.211 414.168,348.905 415.344,347.763 416.52,346.784 417.696,345.991 418.872,345.408 420.048,345.012 421.224,344.826 422.4,344.826 423.576,345.035 424.752,345.432 425.928,346.014 427.104,346.784 428.28,347.693 429.456,348.765 430.632,349.978 431.808,351.283 432.984,352.705 434.16,354.197 435.336,355.759 436.512,357.344 437.688,358.953 438.864,360.561 440.04,362.123 441.216,363.662 442.392,365.131 443.568,366.53 444.744,367.812 445.92,369.001 447.096,370.05 448.272,370.959 449.448,371.728 450.624,372.334 451.8,372.777 452.976,373.08 454.152,373.197 455.328,373.15 456.504,372.94 457.68,372.591 458.856,372.078 460.032,371.402 461.208,370.633 462.384,369.723 463.56,368.698 464.736,367.602 465.912,366.413 467.088,365.177 468.264,363.895 469.44,362.566 470.616,361.261 471.792,359.932 472.968,358.65 474.144,357.391 475.32,356.202 476.496,355.06 477.672,354.034 478.848,353.078 480.024,352.239 481.2,351.516 482.376,350.91 483.552,350.421 484.728,350.094 485.904,349.884 487.08,349.814 488.256,349.884 489.432,350.071 490.608,350.397 491.784,350.863 492.96,351.423 494.136,352.099 495.312,352.868 496.488,353.708 497.664,354.64 498.84,355.619 500.016,356.645 501.192,357.717 502.368,358.813 503.544,359.885 504.72,360.981 505.896,362.03 507.072,363.056 508.248,364.035 509.424,364.944 510.6,365.784 511.776,366.553 512.952,367.206 514.128,367.788 515.304,368.278 516.48,368.628 517.656,368.884 518.832,369.024 520.008,369.071 521.184,368.977 522.36,368.791 523.536,368.511 524.712,368.115 525.888,367.625 527.064,367.066 528.24,366.413 529.416,365.69 530.592,364.921 531.768,364.105 532.944,363.242 534.12,362.357 535.296,361.471 536.472,360.585 537.648,359.676 538.824,358.813 540,357.997 541.176,357.204 542.352,356.458 543.528,355.782 544.704,355.176 545.88,354.64 547.056,354.174 548.232,353.801 549.408,353.521 550.584,353.335 551.76,353.241 552.936,353.218 554.112,353.311 555.288,353.474 556.464,353.754 557.64,354.081 558.816,354.5 559.992,354.99 561.168,355.526 562.344,356.132 563.52,356.785 564.696,357.461 565.872,358.16 567.048,358.906 568.224,359.629 569.4,360.375 570.576,361.098 571.752,361.797 572.928,362.496 574.104,363.126 575.28,363.732 576.456,364.268 577.632,364.758 578.808,365.201 579.984,365.55 581.16,365.853 582.336,366.063 583.512,366.203 584.688,366.273 585.864,366.25 587.04,366.156 588.216,366.017 589.392,365.784 590.568,365.48 591.744,365.131 592.92,364.711 594.096,364.245 595.272,363.755 596.448,363.219 597.624,362.636 598.8,362.053 599.976,361.447 601.152,360.841 602.328,360.235 603.504,359.652 604.68,359.069 605.856,358.51 607.032,357.997 608.208,357.508 609.384,357.065 610.56,356.668 611.736,356.342 612.912,356.062 614.088,355.829 615.264,355.666 616.44,355.573 617.616,355.526 618.792,355.549 619.968,355.643 621.144,355.782 622.32,355.969 623.496,356.225 624.672,356.528 625.848,356.878 627.024,357.274 628.2,357.694 629.376,358.137 630.552,358.603 631.728,359.093 632.904,359.606 634.08,360.095 635.256,360.585 636.432,361.074 637.608,361.564 638.784,362.007 639.96,362.427 641.136,362.823 642.312,363.172 643.488,363.476 644.664,363.755 645.84,363.988 647.016,364.152 648.192,364.268 649.368,364.338 650.544,364.361 651.72,364.338 652.896,364.268 654.072,364.128 655.248,363.942 656.424,363.732 657.6,363.476 658.776,363.172 659.952,362.846 661.128,362.496 662.304,362.123 663.48,361.727 664.656,361.331 665.832,360.935 667.008,360.515 668.184,360.095 669.36,359.699 670.536,359.326 671.712,358.953 672.888,358.603 674.064,358.3 675.24,358.02 676.416,357.764 677.592,357.554 678.768,357.368 679.944,357.228 681.12,357.158 682.296,357.088 683.472,357.088 684.648,357.135 685.824,357.204 687,357.321 " />
</g>

<g fill="#121212" fill-opacity="1" stroke="none" transform="matrix(7.5e-05,0,0,7.5e-05,0,0)"
font-family="Helvetica" font-size="13" font-weight="400" font-style="normal" 
>
<path vector-effect="none" fill-rule="evenodd" d="M5.6e+06,450000 L5.6e+06,920000 L6.76e+06,920000 L6.76e+06,450000 L5.6e+06,450000"/>
</g>

<g fill="#268cdd" fill-opacity="1" stroke="#268cdd" stroke-opacity="1" stroke-dasharray="10,6" stroke-dashoffset="0" stroke-width="0.666667" stroke-linecap="butt" stroke-linejoin="round" transform="matrix(0.75,0,0,0.75,0,0)"
font-family="Helvetica" font-size="13" font-weight="400" font-style="normal" 
>
<polyline fill="none" vector-effect="none" points="564,54 604,54 " />
</g>

<g fill="#f57729" fill-opacity="1" stroke="#f57729" stroke-opacity="1" stroke-width="0.666667" stroke-linecap="butt" stroke-linejoin="round" transform="matrix(0.75,0,0,0.75,0,0)"
font-family="Helvetica" font-size="13" font-weight="400" font-style="normal" 
>
<polyline fill="none" vector-effect="none" points="564,68.5 604,68.5 " />
</g>

<g fill="#ffe864" fill-opacity="1" stroke="#ffe864" stroke-opacity="1" stroke-width="0.666667" stroke-linecap="butt" stroke-linejoin="round" transform="matrix(0.75,0,0,0.75,0,0)"
font-family="Helvetica" font-size="13" font-weight="400" font-style="normal" 
>
<polyline fill="none" vector-effect="none" points="564,83 604,83 " />
</g>

<g fill="#d9d9d9" fill-opacity="1" stroke="#d9d9d9" stroke-opacity="1" stroke-width="1" stroke-linecap="square" stroke-linejoin="bevel" transform="matrix(0.75,0,0,0.75,455.25,43.5)"
font-family="Helvetica" font-size="12" font-weight="400" font-style="normal" 
>
<text fill="#d9d9d9" fill-opacity="1" stroke="none" xml:space="preserve" x="0" y="0" font-family="Helvetica" font-size="12" font-weight="400" font-style="normal" 
 >Reference</text>
</g>

<g fill="#d9d9d9" fill-opacity="1" stroke="#d9d9d9" stroke-opacity="1" stroke-width="1" stroke-linecap="square" stroke-linejoin="bevel" transform="matrix(0.75,0,0,0.75,455.25,54.375)"
font-family="Helvetica" font-size="12" font-weight="400" font-style="normal" 
>
<text fill="#d9d9d9" fill-opacity="1" stroke="none" xml:space="preserve" x="0" y="0" font-family="Helvetica" font-size="12" font-weight="400" font-style="normal" 
 >Response</text>
</g>

<g fill="#d9d9d9" fill-opacity="1" stroke="#d9d9d9" stroke-opacity="1" stroke-width="1" stroke-linecap="square" stroke-linejoin="bevel" transform="matrix(0.75,0,0,0.75,455.25,65.25)"
font-family="Helvetica" font-size="12" font-weight="400" font-style="normal" 
>
<text fill="#d9d9d9" fill-opacity="1" stroke="none" xml:space="preserve" x="0" y="0" font-family="Helvetica" font-size="12" font-weight="400" font-style="normal" 
 >Disturbance</text>
</g>

<g fill="none" stroke="#d9d9d9" stroke-opacity="1" stroke-width="0.666667" stroke-linecap="butt" stroke-linejoin="miter" stroke-miterlimit="5" transform="matrix(0.75,0,0,0.75,0,0)"
font-family="Helvetica" font-size="12" font-weight="400" font-style="normal" 
>
<path vector-effect="none" fill-rule="evenodd" d="M560,92 L560,45 L676,45 L676,92 L560,92"/>
</g>
</g>
</svg>
